SplineFontDB: 3.0
FontName: ArchivoNarrowDeva-Bold
FullName: Archivo Narrow Devanagari Bold
FamilyName: Archivo Narrow Devanagari
Weight: Bold
Copyright: Copyright (c) 2012-2014, Omnibus-Type (www.omnibus-type.com omnibus.type@gmail.com) with Reserved Font Name 'Archivo'
Version: 001.004
ItalicAngle: 0
UnderlinePosition: -50
UnderlineWidth: 50
Ascent: 800
Descent: 200
sfntRevision: 0x00010106
LayerCount: 2
Layer: 0 0 "Back"  1
Layer: 1 0 "Fore"  0
XUID: [1021 191 1600663927 11013312]
FSType: 8
OS2Version: 3
OS2_WeightWidthSlopeOnly: 0
OS2_UseTypoMetrics: 1
CreationTime: 1409322514
ModificationTime: 1409350086
PfmFamily: 81
TTFWeight: 700
TTFWidth: 5
LineGap: 0
VLineGap: 0
Panose: 0 0 8 0 0 0 0 0 0 0
OS2TypoAscent: 890
OS2TypoAOffset: 0
OS2TypoDescent: -404
OS2TypoDOffset: 0
OS2TypoLinegap: 0
OS2WinAscent: 890
OS2WinAOffset: 0
OS2WinDescent: 404
OS2WinDOffset: 0
HheadAscent: 890
HheadAOffset: 0
HheadDescent: -404
HheadDOffset: 0
OS2SubXSize: 650
OS2SubYSize: 600
OS2SubXOff: 0
OS2SubYOff: 75
OS2SupXSize: 650
OS2SupYSize: 600
OS2SupXOff: 0
OS2SupYOff: 350
OS2StrikeYSize: 50
OS2StrikeYPos: 279
OS2Vendor: 'Omni'
OS2CodePages: 20000093.00000000
OS2UnicodeRanges: 00008007.00000000.00000000.00000000
Lookup: 1 0 0 "'aalt' Access All Alternates lookup 0"  {"'aalt' Access All Alternates lookup 0 subtable"  } ['aalt' ('DFLT' <'dflt' > 'dev2' <'HIN ' 'MAR ' 'NEP ' 'dflt' > 'grek' <'dflt' > 'latn' <'CAT ' 'MOL ' 'ROM ' 'dflt' > ) ]
Lookup: 3 0 0 "'aalt' Access All Alternates lookup 1"  {"'aalt' Access All Alternates lookup 1 subtable"  } ['aalt' ('DFLT' <'dflt' > 'dev2' <'HIN ' 'MAR ' 'NEP ' 'dflt' > 'grek' <'dflt' > 'latn' <'CAT ' 'MOL ' 'ROM ' 'dflt' > ) ]
Lookup: 4 0 0 "Ligature Substitution lookup 2"  {"Ligature Substitution lookup 2 subtable"  } []

StartChar: .notdef
Encoding: 65536 -1 0
Width: 442
Flags: W
HStem: 0 44<71 371> 575 44<71 371>
VStem: 0 44<84 535> 398 44<84 535>
LayerCount: 2
Fore
SplineSet
0 619 m 1
 442 619 l 1
 442 0 l 1
 0 0 l 1
 0 619 l 1
371 575 m 1
 71 575 l 1
 221 349 l 1
 371 575 l 1
44 535 m 1
 44 84 l 1
 194 309 l 1
 44 535 l 1
398 535 m 1
 248 309 l 1
 398 84 l 1
 398 535 l 1
221 270 m 1
 71 44 l 1
 371 44 l 1
 221 270 l 1
EndSplineSet
EndChar

StartChar: A
Encoding: 65 65 1
Width: 523
GlyphClass: 2
Flags: W
HStem: 0 21G<0 116.05 400.782 522> 119 101<177 339> 586 20G<188.564 333.436>
AnchorPoint: "Anchor-1" 0 0 basechar 0
AnchorPoint: "Anchor-0" 262 606 basechar 0
LayerCount: 2
Fore
SplineSet
407 0 m 1
 370 119 l 1
 146 119 l 1
 110 0 l 1
 0 0 l 1
 195 606 l 1
 327 606 l 1
 522 0 l 1
 407 0 l 1
260 505 m 1
 256 505 l 1
 256 505 248 451 239 423 c 2
 177 220 l 1
 339 220 l 1
 278 423 l 2
 268 454 260 505 260 505 c 1
EndSplineSet
Substitution2: "Single Substitution lookup 32 subtable" ordfeminine
Substitution2: "'aalt' Access All Alternates lookup 0 subtable" ordfeminine
Position2: "'cpsp' Capital Spacing lookup 0 subtable" dx=5 dy=0 dh=10 dv=0
EndChar

StartChar: Aacute
Encoding: 193 193 2
Width: 523
GlyphClass: 2
Flags: W
HStem: 0 21G<0 116.05 400.782 522> 119 101<177 339> 586 20G<188.564 333.436>
LayerCount: 2
Fore
SplineSet
288 664 m 1
 201 664 l 1
 277 781 l 1
 383 781 l 1
 384 778 l 1
 288 664 l 1
407 0 m 1
 370 119 l 1
 146 119 l 1
 110 0 l 1
 0 0 l 1
 195 606 l 1
 327 606 l 1
 522 0 l 1
 407 0 l 1
260 505 m 1
 256 505 l 1
 256 505 248 451 239 423 c 2
 177 220 l 1
 339 220 l 1
 278 423 l 2
 268 454 260 505 260 505 c 1
EndSplineSet
Position2: "'cpsp' Capital Spacing lookup 0 subtable" dx=5 dy=0 dh=10 dv=0
EndChar

StartChar: Abreve
Encoding: 258 258 3
Width: 523
GlyphClass: 2
Flags: W
HStem: 0 21G<0 116.05 400.782 522> 119 101<177 339> 586 20G<188.564 333.436> 686 65<214.008 310.695>
VStem: 144 66<757.633 781> 314 66<757.633 781>
LayerCount: 2
Fore
SplineSet
314 781 m 1
 380 781 l 1
 380 736 334 686 261 686 c 0
 188 686 144 736 144 781 c 1
 210 781 l 1
 212 768 232 751 261 751 c 0
 292 751 313 768 314 781 c 1
407 0 m 1
 370 119 l 1
 146 119 l 1
 110 0 l 1
 0 0 l 1
 195 606 l 1
 327 606 l 1
 522 0 l 1
 407 0 l 1
260 505 m 1
 256 505 l 1
 256 505 248 451 239 423 c 2
 177 220 l 1
 339 220 l 1
 278 423 l 2
 268 454 260 505 260 505 c 1
EndSplineSet
Position2: "'cpsp' Capital Spacing lookup 0 subtable" dx=5 dy=0 dh=10 dv=0
EndChar

StartChar: Acircumflex
Encoding: 194 194 4
Width: 523
GlyphClass: 2
Flags: W
HStem: 0 21G<0 116.05 400.782 522> 119 101<177 339> 586 20G<188.564 333.436>
LayerCount: 2
Fore
SplineSet
301 661 m 1
 262 722 l 1
 222 661 l 1
 143 661 l 1
 219 781 l 1
 306 781 l 1
 381 661 l 1
 301 661 l 1
407 0 m 1
 370 119 l 1
 146 119 l 1
 110 0 l 1
 0 0 l 1
 195 606 l 1
 327 606 l 1
 522 0 l 1
 407 0 l 1
260 505 m 1
 256 505 l 1
 256 505 248 451 239 423 c 2
 177 220 l 1
 339 220 l 1
 278 423 l 2
 268 454 260 505 260 505 c 1
EndSplineSet
Position2: "'cpsp' Capital Spacing lookup 0 subtable" dx=5 dy=0 dh=10 dv=0
EndChar

StartChar: Adieresis
Encoding: 196 196 5
Width: 523
GlyphClass: 2
Flags: W
HStem: 0 21G<0 116.05 400.782 522> 119 101<177 339> 586 20G<188.564 333.436> 684 97<141 229 294 384>
VStem: 141 88<684 781> 294 90<684 781>
LayerCount: 2
Fore
SplineSet
141 684 m 1
 141 781 l 1
 229 781 l 1
 229 684 l 1
 141 684 l 1
294 684 m 1
 294 781 l 1
 384 781 l 1
 384 684 l 1
 294 684 l 1
407 0 m 1
 370 119 l 1
 146 119 l 1
 110 0 l 1
 0 0 l 1
 195 606 l 1
 327 606 l 1
 522 0 l 1
 407 0 l 1
260 505 m 1
 256 505 l 1
 256 505 248 451 239 423 c 2
 177 220 l 1
 339 220 l 1
 278 423 l 2
 268 454 260 505 260 505 c 1
EndSplineSet
Position2: "'cpsp' Capital Spacing lookup 0 subtable" dx=5 dy=0 dh=10 dv=0
EndChar

StartChar: Agrave
Encoding: 192 192 6
Width: 523
GlyphClass: 2
Flags: W
HStem: 0 21G<0 116.05 400.782 522> 119 101<177 339> 586 20G<188.564 333.436>
LayerCount: 2
Fore
SplineSet
235 664 m 1
 140 778 l 1
 141 781 l 1
 247 781 l 1
 323 664 l 1
 235 664 l 1
407 0 m 1
 370 119 l 1
 146 119 l 1
 110 0 l 1
 0 0 l 1
 195 606 l 1
 327 606 l 1
 522 0 l 1
 407 0 l 1
260 505 m 1
 256 505 l 1
 256 505 248 451 239 423 c 2
 177 220 l 1
 339 220 l 1
 278 423 l 2
 268 454 260 505 260 505 c 1
EndSplineSet
Position2: "'cpsp' Capital Spacing lookup 0 subtable" dx=5 dy=0 dh=10 dv=0
EndChar

StartChar: Amacron
Encoding: 256 256 7
Width: 523
GlyphClass: 2
Flags: W
HStem: 0 21G<0 116.05 400.782 522> 119 101<177 339> 586 20G<188.564 333.436> 671 77<149 375>
LayerCount: 2
Fore
SplineSet
149 671 m 1
 149 748 l 1
 375 748 l 1
 375 671 l 1
 149 671 l 1
407 0 m 1
 370 119 l 1
 146 119 l 1
 110 0 l 1
 0 0 l 1
 195 606 l 1
 327 606 l 1
 522 0 l 1
 407 0 l 1
260 505 m 1
 256 505 l 1
 256 505 248 451 239 423 c 2
 177 220 l 1
 339 220 l 1
 278 423 l 2
 268 454 260 505 260 505 c 1
EndSplineSet
Position2: "'cpsp' Capital Spacing lookup 0 subtable" dx=5 dy=0 dh=10 dv=0
EndChar

StartChar: Aogonek
Encoding: 260 260 8
Width: 523
GlyphClass: 2
Flags: W
HStem: -168 61<500.587 554.063> -156 49<500.587 555> 0 21G<0 116.05> 119 101<177 339> 586 20G<188.564 333.436>
VStem: 409 87<-102.371 -23.2855>
LayerCount: 2
Fore
SplineSet
555 -107 m 1x7c
 555 -156 l 1x7c
 535 -164 516 -168 497 -168 c 0
 456 -168 409 -149 409 -88 c 0
 409 -44 430 -24 449 0 c 1
 407 0 l 1
 370 119 l 1
 146 119 l 1
 110 0 l 1
 0 0 l 1
 195 606 l 1
 327 606 l 1
 522 0 l 1
 512 -10 496 -34 496 -62 c 0
 496 -85 507 -107 536 -107 c 2xbc
 555 -107 l 1x7c
339 220 m 1
 278 423 l 2
 268 454 260 505 260 505 c 1
 256 505 l 1
 256 505 248 451 239 423 c 2
 177 220 l 1
 339 220 l 1
EndSplineSet
Position2: "'cpsp' Capital Spacing lookup 0 subtable" dx=5 dy=0 dh=10 dv=0
EndChar

StartChar: Aring
Encoding: 197 197 9
Width: 523
GlyphClass: 2
Flags: W
HStem: 0 21G<0 116.05 400.782 522> 119 101<177 339> 586 20G<188.564 333.436> 637 45<225.49 297.306> 763 44<226.436 297.079>
VStem: 177 44<686.605 757.564> 302 45<686.601 758.51>
LayerCount: 2
Fore
SplineSet
262 807 m 0
 309 807 347 768 347 722 c 0
 347 675 309 637 262 637 c 0
 216 637 177 674 177 722 c 0
 177 769 215 807 262 807 c 0
262 763 m 0
 239 763 221 745 221 722 c 0
 221 699 239 682 262 682 c 0
 284 682 302 699 302 722 c 0
 302 745 284 763 262 763 c 0
407 0 m 1
 370 119 l 1
 146 119 l 1
 110 0 l 1
 0 0 l 1
 195 606 l 1
 327 606 l 1
 522 0 l 1
 407 0 l 1
260 505 m 1
 256 505 l 1
 256 505 248 451 239 423 c 2
 177 220 l 1
 339 220 l 1
 278 423 l 2
 268 454 260 505 260 505 c 1
EndSplineSet
Position2: "'cpsp' Capital Spacing lookup 0 subtable" dx=5 dy=0 dh=10 dv=0
EndChar

StartChar: Aringacute
Encoding: 506 506 10
Width: 523
GlyphClass: 2
Flags: W
HStem: 0 21G<0 116.05 400.782 522> 119 101<177 339> 682 44<224.846 297.728>
VStem: 177 44<608.601 677.62> 302 45<608.208 677.612>
LayerCount: 2
Fore
SplineSet
224 750 m 1
 286 846 l 1
 392 846 l 1
 392 843 l 1
 311 750 l 1
 224 750 l 1
262 726 m 0
 309 726 347 688 347 644 c 0
 347 626 340 609 331 595 c 1
 522 0 l 1
 407 0 l 1
 370 119 l 1
 146 119 l 1
 110 0 l 1
 0 0 l 1
 192 596 l 1
 182 609 177 626 177 644 c 0
 177 689 215 726 262 726 c 0
262 682 m 0
 239 682 221 666 221 644 c 0
 221 621 239 604 262 604 c 0
 284 604 302 621 302 644 c 0
 302 666 284 682 262 682 c 0
260 505 m 1
 256 505 l 1
 256 505 248 451 239 423 c 2
 177 220 l 1
 339 220 l 1
 278 423 l 2
 268 454 260 505 260 505 c 1
EndSplineSet
Position2: "'cpsp' Capital Spacing lookup 0 subtable" dx=5 dy=0 dh=10 dv=0
EndChar

StartChar: Atilde
Encoding: 195 195 11
Width: 523
GlyphClass: 2
Flags: W
HStem: 0 21G<0 116.05 400.782 522> 119 101<177 339> 586 20G<188.564 333.436> 673 75<249.255 348.114> 705 76<173.529 272.335>
VStem: 113 58<673 703.132> 352 58<750.481 781>
LayerCount: 2
Fore
SplineSet
352 781 m 1xee
 410 781 l 1xee
 410 732 385 673 323 673 c 0xf6
 280 673 246 705 206 705 c 0xee
 187 705 175 697 171 673 c 1
 113 673 l 1xf6
 113 721 138 781 200 781 c 0xee
 243 781 278 748 317 748 c 0xf6
 336 748 348 756 352 781 c 1xee
407 0 m 1
 370 119 l 1
 146 119 l 1
 110 0 l 1
 0 0 l 1
 195 606 l 1
 327 606 l 1
 522 0 l 1
 407 0 l 1
260 505 m 1
 256 505 l 1
 256 505 248 451 239 423 c 2
 177 220 l 1
 339 220 l 1
 278 423 l 2
 268 454 260 505 260 505 c 1
EndSplineSet
Position2: "'cpsp' Capital Spacing lookup 0 subtable" dx=5 dy=0 dh=10 dv=0
EndChar

StartChar: AE
Encoding: 198 198 12
Width: 725
GlyphClass: 2
Flags: W
HStem: 0 101<486 687> 119 101<179 342> 260 101<447 643> 506 100<387 682>
AnchorPoint: "Anchor-1" 0 0 basechar 0
AnchorPoint: "Anchor-0" 362 606 basechar 0
LayerCount: 2
Fore
SplineSet
387 506 m 1
 423 361 l 1
 643 361 l 1
 643 260 l 1
 447 260 l 1
 486 101 l 1
 687 101 l 1
 687 0 l 1
 395 0 l 1
 366 119 l 1
 142 119 l 1
 98 0 l 1
 -7 0 l 1
 225 606 l 1
 682 606 l 1
 682 506 l 1
 387 506 l 1
280 483 m 1
 277 483 l 1
 272 472 269 461 264 450 c 2
 179 220 l 1
 342 220 l 1
 288 450 l 2
 286 461 283 472 280 483 c 1
EndSplineSet
Position2: "'cpsp' Capital Spacing lookup 0 subtable" dx=5 dy=0 dh=10 dv=0
EndChar

StartChar: AEacute
Encoding: 508 508 13
Width: 725
GlyphClass: 2
Flags: W
HStem: 0 101<486 687> 119 101<179 342> 260 101<447 643> 506 100<387 682>
LayerCount: 2
Fore
SplineSet
389 664 m 1
 301 664 l 1
 377 781 l 1
 484 781 l 1
 484 778 l 1
 389 664 l 1
387 506 m 1
 423 361 l 1
 643 361 l 1
 643 260 l 1
 447 260 l 1
 486 101 l 1
 687 101 l 1
 687 0 l 1
 395 0 l 1
 366 119 l 1
 142 119 l 1
 98 0 l 1
 -7 0 l 1
 225 606 l 1
 682 606 l 1
 682 506 l 1
 387 506 l 1
280 483 m 1
 277 483 l 1
 271 469 266 453 261 439 c 2
 179 220 l 1
 342 220 l 1
 290 442 l 2
 286 455 284 469 280 483 c 1
EndSplineSet
Position2: "'cpsp' Capital Spacing lookup 0 subtable" dx=5 dy=0 dh=10 dv=0
EndChar

StartChar: B
Encoding: 66 66 14
Width: 523
GlyphClass: 2
Flags: W
HStem: 0 101<166 353.846> 261 100<166 341.738> 506 100<166 344.216>
VStem: 53 113<101 261 361 506> 363 116<381.776 488.666> 377 116<122.585 236.881>
LayerCount: 2
Fore
SplineSet
53 606 m 1xf4
 314 606 l 2
 409 606 479 545 479 456 c 0xf8
 479 386 438 337 386 318 c 1
 386 315 l 1
 446 296 493 240 493 163 c 0
 493 61 411 0 314 0 c 2
 53 0 l 1
 53 606 l 1xf4
166 361 m 1
 283 361 l 2
 337 361 363 395 363 436 c 0
 363 482 333 506 288 506 c 2
 166 506 l 1
 166 361 l 1
166 101 m 1
 295 101 l 2
 342 101 377 127 377 177 c 0xf4
 377 224 349 261 290 261 c 2
 166 261 l 1
 166 101 l 1
EndSplineSet
Position2: "'cpsp' Capital Spacing lookup 0 subtable" dx=5 dy=0 dh=10 dv=0
EndChar

StartChar: C
Encoding: 67 67 15
Width: 523
GlyphClass: 2
Flags: W
HStem: -11 98<208.723 339.835> 520 97<204.741 334.241>
VStem: 30 117<158.973 449.663> 384 110<132.278 225 381 463.544>
AnchorPoint: "Anchor-1" 262 0 basechar 0
AnchorPoint: "Anchor-0" 262 606 basechar 0
LayerCount: 2
Fore
SplineSet
271 617 m 0
 398 617 494 545 494 381 c 1
 378 381 l 1
 378 475 335 520 271 520 c 0
 187 520 147 446 147 325 c 2
 147 281 l 2
 147 160 188 87 275 87 c 0
 340 87 384 131 384 225 c 1
 494 225 l 1
 494 65 400 -11 271 -11 c 0
 119 -11 30 89 30 303 c 0
 30 517 119 617 271 617 c 0
EndSplineSet
Position2: "'cpsp' Capital Spacing lookup 0 subtable" dx=5 dy=0 dh=10 dv=0
EndChar

StartChar: Cacute
Encoding: 262 262 16
Width: 523
GlyphClass: 2
Flags: W
HStem: -11 98<208.723 339.835> 520 97<204.741 334.241>
VStem: 30 117<158.973 449.663> 384 110<132.278 225 381 463.544>
LayerCount: 2
Fore
SplineSet
298 664 m 1
 210 664 l 1
 286 781 l 1
 392 781 l 1
 393 778 l 1
 298 664 l 1
271 617 m 0
 398 617 494 545 494 381 c 1
 378 381 l 1
 378 475 335 520 271 520 c 0
 187 520 147 446 147 325 c 2
 147 281 l 2
 147 160 188 87 275 87 c 0
 340 87 384 131 384 225 c 1
 494 225 l 1
 494 65 400 -11 271 -11 c 0
 119 -11 30 89 30 303 c 0
 30 517 119 617 271 617 c 0
EndSplineSet
Position2: "'cpsp' Capital Spacing lookup 0 subtable" dx=5 dy=0 dh=10 dv=0
EndChar

StartChar: Ccaron
Encoding: 268 268 17
Width: 523
GlyphClass: 2
Flags: W
HStem: -11 98<208.723 339.835> 520 97<204.741 334.241>
VStem: 30 117<158.973 449.663> 384 110<132.278 225 381 463.544>
LayerCount: 2
Fore
SplineSet
152 781 m 1
 232 781 l 1
 271 720 l 1
 311 781 l 1
 390 781 l 1
 315 661 l 1
 228 661 l 1
 152 781 l 1
271 617 m 0
 398 617 494 545 494 381 c 1
 378 381 l 1
 378 475 335 520 271 520 c 0
 187 520 147 446 147 325 c 2
 147 281 l 2
 147 160 188 87 275 87 c 0
 340 87 384 131 384 225 c 1
 494 225 l 1
 494 65 400 -11 271 -11 c 0
 119 -11 30 89 30 303 c 0
 30 517 119 617 271 617 c 0
EndSplineSet
Position2: "'cpsp' Capital Spacing lookup 0 subtable" dx=5 dy=0 dh=10 dv=0
EndChar

StartChar: Ccedilla
Encoding: 199 199 18
Width: 523
GlyphClass: 2
Flags: W
HStem: -161 50<189.99 282.045> -154 43<189 261.871> -10 97<208.473 232 292 339.314> 520 97<204.741 334.241>
VStem: 30 117<160.768 449.663> 284 76<-109.873 -68.6409> 384 110<136.6 225 381 463.544>
LayerCount: 2
Fore
SplineSet
271 617 m 0xbe
 398 617 494 545 494 381 c 1
 378 381 l 1
 378 475 335 520 271 520 c 0
 187 520 147 446 147 325 c 2
 147 281 l 2
 147 160 188 87 275 87 c 0
 340 87 384 131 384 225 c 1
 494 225 l 1
 494 74 409 -2 292 -10 c 1
 290 -29 l 1
 328 -32 360 -49 360 -89 c 0
 360 -149 301 -161 263 -161 c 0xbe
 239 -161 210 -158 189 -154 c 1
 189 -111 l 1x7e
 252 -111 l 2
 271 -111 284 -106 284 -89 c 0
 284 -75 277 -68 254 -68 c 2
 225 -68 l 1
 232 -8 l 1
 103 8 30 108 30 303 c 0
 30 517 119 617 271 617 c 0xbe
EndSplineSet
Position2: "'cpsp' Capital Spacing lookup 0 subtable" dx=5 dy=0 dh=10 dv=0
EndChar

StartChar: Ccircumflex
Encoding: 264 264 19
Width: 523
GlyphClass: 2
Flags: W
HStem: -11 98<208.723 339.835> 520 97<204.741 334.241>
VStem: 30 117<158.973 449.663> 384 110<132.278 225 381 463.544>
LayerCount: 2
Fore
SplineSet
271 722 m 1
 232 661 l 1
 152 661 l 1
 228 781 l 1
 315 781 l 1
 390 661 l 1
 311 661 l 1
 271 722 l 1
271 617 m 0
 398 617 494 545 494 381 c 1
 378 381 l 1
 378 475 335 520 271 520 c 0
 187 520 147 446 147 325 c 2
 147 281 l 2
 147 160 188 87 275 87 c 0
 340 87 384 131 384 225 c 1
 494 225 l 1
 494 65 400 -11 271 -11 c 0
 119 -11 30 89 30 303 c 0
 30 517 119 617 271 617 c 0
EndSplineSet
Position2: "'cpsp' Capital Spacing lookup 0 subtable" dx=5 dy=0 dh=10 dv=0
EndChar

StartChar: Cdotaccent
Encoding: 266 266 20
Width: 523
GlyphClass: 2
Flags: W
HStem: -11 98<208.723 339.835> 520 97<204.741 334.241> 679 102<224 318>
VStem: 30 117<158.973 449.663> 224 94<679 781> 384 110<132.278 225 381 463.544>
LayerCount: 2
Fore
SplineSet
224 781 m 1
 318 781 l 1
 318 679 l 1
 224 679 l 1
 224 781 l 1
271 617 m 0
 398 617 494 545 494 381 c 1
 378 381 l 1
 378 475 335 520 271 520 c 0
 187 520 147 446 147 325 c 2
 147 281 l 2
 147 160 188 87 275 87 c 0
 340 87 384 131 384 225 c 1
 494 225 l 1
 494 65 400 -11 271 -11 c 0
 119 -11 30 89 30 303 c 0
 30 517 119 617 271 617 c 0
EndSplineSet
Position2: "'cpsp' Capital Spacing lookup 0 subtable" dx=5 dy=0 dh=10 dv=0
EndChar

StartChar: D
Encoding: 68 68 21
Width: 523
GlyphClass: 2
Flags: W
HStem: 0 101<166 310.111> 506 100<166 314.742>
VStem: 53 113<101 506> 377 116<175.5 433.25>
AnchorPoint: "Anchor-1" 0 0 basechar 0
AnchorPoint: "Anchor-0" 262 606 basechar 0
LayerCount: 2
Fore
SplineSet
53 606 m 1
 250 606 l 2
 401 606 493 507 493 312 c 0
 493 104 401 0 250 0 c 2
 53 0 l 1
 53 606 l 1
166 101 m 1
 240 101 l 2
 324 101 377 164 377 290 c 2
 377 334 l 2
 377 448 324 506 240 506 c 2
 166 506 l 1
 166 101 l 1
EndSplineSet
Position2: "'cpsp' Capital Spacing lookup 0 subtable" dx=5 dy=0 dh=10 dv=0
EndChar

StartChar: Eth
Encoding: 208 208 22
Width: 523
GlyphClass: 2
Flags: W
HStem: 0 101<166 310.111> 276 75<9 53 166 277> 506 100<166 314.742>
VStem: 53 113<101 276 351 506> 377 116<175.5 433.25>
LayerCount: 2
Fore
SplineSet
53 606 m 1
 250 606 l 2
 401 606 493 507 493 312 c 0
 493 104 401 0 250 0 c 2
 53 0 l 1
 53 276 l 1
 9 276 l 1
 9 351 l 1
 53 351 l 1
 53 606 l 1
277 351 m 1
 277 276 l 1
 166 276 l 1
 166 101 l 1
 240 101 l 2
 324 101 377 164 377 290 c 2
 377 334 l 2
 377 448 324 506 240 506 c 2
 166 506 l 1
 166 351 l 1
 277 351 l 1
EndSplineSet
Position2: "'cpsp' Capital Spacing lookup 0 subtable" dx=5 dy=0 dh=10 dv=0
EndChar

StartChar: Dcaron
Encoding: 270 270 23
Width: 523
GlyphClass: 2
Flags: W
HStem: 0 101<166 310.111> 506 100<166 314.742>
VStem: 53 113<101 506> 377 116<175.5 433.25>
LayerCount: 2
Fore
SplineSet
105 781 m 1
 185 781 l 1
 225 720 l 1
 263 781 l 1
 343 781 l 1
 268 661 l 1
 181 661 l 1
 105 781 l 1
53 606 m 1
 250 606 l 2
 401 606 493 507 493 312 c 0
 493 104 401 0 250 0 c 2
 53 0 l 1
 53 606 l 1
166 101 m 1
 240 101 l 2
 324 101 377 164 377 290 c 2
 377 334 l 2
 377 448 324 506 240 506 c 2
 166 506 l 1
 166 101 l 1
EndSplineSet
Position2: "'cpsp' Capital Spacing lookup 0 subtable" dx=5 dy=0 dh=10 dv=0
EndChar

StartChar: Dcroat
Encoding: 272 272 24
Width: 523
GlyphClass: 2
Flags: W
HStem: 0 101<166 310.111> 276 75<9 53 166 277> 506 100<166 314.742>
VStem: 53 113<101 276 351 506> 377 116<175.5 433.25>
LayerCount: 2
Fore
SplineSet
53 606 m 1
 250 606 l 2
 401 606 493 507 493 312 c 0
 493 104 401 0 250 0 c 2
 53 0 l 1
 53 276 l 1
 9 276 l 1
 9 351 l 1
 53 351 l 1
 53 606 l 1
277 351 m 1
 277 276 l 1
 166 276 l 1
 166 101 l 1
 240 101 l 2
 324 101 377 164 377 290 c 2
 377 334 l 2
 377 448 324 506 240 506 c 2
 166 506 l 1
 166 351 l 1
 277 351 l 1
EndSplineSet
Position2: "'cpsp' Capital Spacing lookup 0 subtable" dx=5 dy=0 dh=10 dv=0
EndChar

StartChar: E
Encoding: 69 69 25
Width: 484
GlyphClass: 2
Flags: W
HStem: 0 101<166 445> 260 101<166 400> 506 100<166 439>
VStem: 53 113<101 260 361 506>
AnchorPoint: "Anchor-1" 242 0 basechar 0
AnchorPoint: "Anchor-0" 242 606 basechar 0
LayerCount: 2
Fore
SplineSet
439 606 m 1
 439 506 l 1
 166 506 l 1
 166 361 l 1
 400 361 l 1
 400 260 l 1
 166 260 l 1
 166 101 l 1
 445 101 l 1
 445 0 l 1
 53 0 l 1
 53 606 l 1
 439 606 l 1
EndSplineSet
Position2: "'cpsp' Capital Spacing lookup 0 subtable" dx=5 dy=0 dh=10 dv=0
EndChar

StartChar: Eacute
Encoding: 201 201 26
Width: 484
GlyphClass: 2
Flags: W
HStem: 0 101<166 445> 260 101<166 400> 506 100<166 439>
VStem: 53 113<101 260 361 506>
LayerCount: 2
Fore
SplineSet
269 664 m 1
 181 664 l 1
 257 781 l 1
 363 781 l 1
 364 778 l 1
 269 664 l 1
166 506 m 1
 166 361 l 1
 400 361 l 1
 400 260 l 1
 166 260 l 1
 166 101 l 1
 445 101 l 1
 445 0 l 1
 53 0 l 1
 53 606 l 1
 439 606 l 1
 439 506 l 1
 166 506 l 1
EndSplineSet
Position2: "'cpsp' Capital Spacing lookup 0 subtable" dx=5 dy=0 dh=10 dv=0
EndChar

StartChar: Ebreve
Encoding: 276 276 27
Width: 484
GlyphClass: 2
Flags: W
HStem: 0 101<166 445> 260 101<166 400> 506 100<166 439> 686 65<193.961 290.856>
VStem: 53 113<101 260 361 506> 124 65<759.75 781> 294 66<759.75 781>
LayerCount: 2
Fore
SplineSet
294 781 m 1xf6
 360 781 l 1
 360 736 315 686 241 686 c 0
 169 686 124 736 124 781 c 1
 189 781 l 1
 192 768 212 751 241 751 c 0
 271 751 293 768 294 781 c 1xf6
439 606 m 1
 439 506 l 1
 166 506 l 1
 166 361 l 1
 400 361 l 1
 400 260 l 1
 166 260 l 1
 166 101 l 1
 445 101 l 1
 445 0 l 1
 53 0 l 1
 53 606 l 1xfa
 439 606 l 1
EndSplineSet
Position2: "'cpsp' Capital Spacing lookup 0 subtable" dx=5 dy=0 dh=10 dv=0
EndChar

StartChar: Ecaron
Encoding: 282 282 28
Width: 484
GlyphClass: 2
Flags: W
HStem: 0 101<166 445> 260 101<166 400> 506 100<166 439>
VStem: 53 113<101 260 361 506>
LayerCount: 2
Fore
SplineSet
123 781 m 1
 202 781 l 1
 242 720 l 1
 281 781 l 1
 361 781 l 1
 286 661 l 1
 199 661 l 1
 123 781 l 1
439 606 m 1
 439 506 l 1
 166 506 l 1
 166 361 l 1
 400 361 l 1
 400 260 l 1
 166 260 l 1
 166 101 l 1
 445 101 l 1
 445 0 l 1
 53 0 l 1
 53 606 l 1
 439 606 l 1
EndSplineSet
Position2: "'cpsp' Capital Spacing lookup 0 subtable" dx=5 dy=0 dh=10 dv=0
EndChar

StartChar: Ecircumflex
Encoding: 202 202 29
Width: 484
GlyphClass: 2
Flags: W
HStem: 0 101<166 445> 260 101<166 400> 506 100<166 439>
VStem: 53 113<101 260 361 506>
LayerCount: 2
Fore
SplineSet
242 722 m 1
 202 661 l 1
 123 661 l 1
 199 781 l 1
 286 781 l 1
 361 661 l 1
 281 661 l 1
 242 722 l 1
439 606 m 1
 439 506 l 1
 166 506 l 1
 166 361 l 1
 400 361 l 1
 400 260 l 1
 166 260 l 1
 166 101 l 1
 445 101 l 1
 445 0 l 1
 53 0 l 1
 53 606 l 1
 439 606 l 1
EndSplineSet
Position2: "'cpsp' Capital Spacing lookup 0 subtable" dx=5 dy=0 dh=10 dv=0
EndChar

StartChar: Edieresis
Encoding: 203 203 30
Width: 484
GlyphClass: 2
Flags: W
HStem: 0 101<166 445> 260 101<166 400> 506 100<166 439> 684 97<120 209 275 363>
VStem: 53 113<101 260 361 506> 120 89<684 781> 275 88<684 781>
LayerCount: 2
Fore
SplineSet
120 684 m 1xf6
 120 781 l 1
 209 781 l 1
 209 684 l 1
 120 684 l 1xf6
275 684 m 1
 275 781 l 1
 363 781 l 1
 363 684 l 1
 275 684 l 1
166 506 m 1xfa
 166 361 l 1
 400 361 l 1
 400 260 l 1
 166 260 l 1
 166 101 l 1
 445 101 l 1
 445 0 l 1
 53 0 l 1
 53 606 l 1
 439 606 l 1
 439 506 l 1
 166 506 l 1xfa
EndSplineSet
Position2: "'cpsp' Capital Spacing lookup 0 subtable" dx=5 dy=0 dh=10 dv=0
EndChar

StartChar: Edotaccent
Encoding: 278 278 31
Width: 484
GlyphClass: 2
Flags: W
HStem: 0 101<166 445> 260 101<166 400> 506 100<166 439> 679 102<194 289>
VStem: 53 113<101 260 361 506> 194 95<679 781>
LayerCount: 2
Fore
SplineSet
194 781 m 1
 289 781 l 1
 289 679 l 1
 194 679 l 1
 194 781 l 1
439 606 m 1
 439 506 l 1
 166 506 l 1
 166 361 l 1
 400 361 l 1
 400 260 l 1
 166 260 l 1
 166 101 l 1
 445 101 l 1
 445 0 l 1
 53 0 l 1
 53 606 l 1
 439 606 l 1
EndSplineSet
Position2: "'cpsp' Capital Spacing lookup 0 subtable" dx=5 dy=0 dh=10 dv=0
EndChar

StartChar: Egrave
Encoding: 200 200 32
Width: 484
GlyphClass: 2
Flags: W
HStem: 0 101<166 445> 260 101<166 400> 506 100<166 439>
VStem: 53 113<101 260 361 506>
LayerCount: 2
Fore
SplineSet
215 664 m 1
 119 778 l 1
 120 781 l 1
 226 781 l 1
 302 664 l 1
 215 664 l 1
166 506 m 1
 166 361 l 1
 400 361 l 1
 400 260 l 1
 166 260 l 1
 166 101 l 1
 445 101 l 1
 445 0 l 1
 53 0 l 1
 53 606 l 1
 439 606 l 1
 439 506 l 1
 166 506 l 1
EndSplineSet
Position2: "'cpsp' Capital Spacing lookup 0 subtable" dx=5 dy=0 dh=10 dv=0
EndChar

StartChar: Emacron
Encoding: 274 274 33
Width: 484
GlyphClass: 2
Flags: W
HStem: 0 101<166 445> 260 101<166 400> 506 100<166 439> 671 77<129 354>
VStem: 53 113<101 260 361 506>
LayerCount: 2
Fore
SplineSet
129 748 m 1
 354 748 l 1
 354 671 l 1
 129 671 l 1
 129 748 l 1
439 606 m 1
 439 506 l 1
 166 506 l 1
 166 361 l 1
 400 361 l 1
 400 260 l 1
 166 260 l 1
 166 101 l 1
 445 101 l 1
 445 0 l 1
 53 0 l 1
 53 606 l 1
 439 606 l 1
EndSplineSet
Position2: "'cpsp' Capital Spacing lookup 0 subtable" dx=5 dy=0 dh=10 dv=0
EndChar

StartChar: Eogonek
Encoding: 280 280 34
Width: 484
GlyphClass: 2
Flags: W
HStem: -168 61<422.587 476.063> -156 49<422.587 477> 0 101<166 370> 260 101<166 400> 506 100<166 439>
VStem: 53 113<101 260 361 506> 331 87<-102.371 -20.4585>
LayerCount: 2
Fore
SplineSet
166 361 m 1xbe
 400 361 l 1
 400 260 l 1
 166 260 l 1
 166 101 l 1
 445 101 l 1
 445 0 l 1
 434 -12 418 -37 418 -62 c 0
 418 -85 429 -107 458 -107 c 2xbe
 477 -107 l 1
 477 -156 l 1x7e
 457 -164 438 -168 419 -168 c 0
 378 -168 331 -149 331 -88 c 0
 331 -47 349 -22 370 0 c 1
 53 0 l 1
 53 606 l 1
 439 606 l 1
 439 506 l 1
 166 506 l 1
 166 361 l 1xbe
EndSplineSet
Position2: "'cpsp' Capital Spacing lookup 0 subtable" dx=5 dy=0 dh=10 dv=0
EndChar

StartChar: F
Encoding: 70 70 35
Width: 443
GlyphClass: 2
Flags: W
HStem: 0 21G<53 166> 252 101<166 374> 506 100<166 409>
VStem: 53 113<0 252 353 506>
LayerCount: 2
Fore
SplineSet
409 606 m 1
 409 506 l 1
 166 506 l 1
 166 353 l 1
 374 353 l 1
 374 252 l 1
 166 252 l 1
 166 0 l 1
 53 0 l 1
 53 606 l 1
 409 606 l 1
EndSplineSet
Position2: "'cpsp' Capital Spacing lookup 0 subtable" dx=5 dy=0 dh=10 dv=0
EndChar

StartChar: G
Encoding: 71 71 36
Width: 564
GlyphClass: 2
Flags: W
HStem: -11 98<211.175 351.036> 0 21G<440.03 519> 232 98<267 403> 520 97<209.662 354.301>
VStem: 30 117<163.234 442.344> 403 116<144.18 232 394 468.424> 446 73<0 23.45>
AnchorPoint: "Anchor-1" 282 0 basechar 0
AnchorPoint: "Anchor-0" 282 606 basechar 0
LayerCount: 2
Fore
SplineSet
267 330 m 1xbc
 519 330 l 1
 519 0 l 1
 446 0 l 1x7a
 426 67 l 1
 387 16 328 -11 264 -11 c 0
 116 -11 30 88 30 303 c 0
 30 517 124 617 287 617 c 0
 409 617 519 539 519 394 c 1
 403 394 l 1
 403 476 349 520 284 520 c 0
 189 520 147 446 147 325 c 2
 147 281 l 2
 147 157 190 87 285 87 c 0
 354 87 403 143 403 232 c 1
 267 232 l 1
 267 330 l 1xbc
EndSplineSet
Position2: "'cpsp' Capital Spacing lookup 0 subtable" dx=5 dy=0 dh=10 dv=0
EndChar

StartChar: Gbreve
Encoding: 286 286 37
Width: 564
GlyphClass: 2
Flags: W
HStem: -11 98<211.175 351.036> 0 21G<440.03 519> 232 98<267 403> 520 97<209.662 354.301> 686 65<234.698 331.374>
VStem: 30 117<163.234 442.344> 164 66<759.75 781> 335 65<759.75 781> 403 116<144.18 232 394 468.424> 446 73<0 23.45>
LayerCount: 2
Fore
SplineSet
282 686 m 0x3f
 210 686 164 736 164 781 c 1
 230 781 l 1
 232 768 253 751 282 751 c 0
 312 751 333 768 335 781 c 1
 400 781 l 1
 400 736 355 686 282 686 c 0x3f
267 330 m 1
 519 330 l 1
 519 0 l 1
 446 0 l 1x7f40
 426 67 l 1
 387 16 328 -11 264 -11 c 0
 116 -11 30 88 30 303 c 0
 30 517 124 617 287 617 c 0
 409 617 519 539 519 394 c 1
 403 394 l 1
 403 476 349 520 284 520 c 0
 189 520 147 446 147 325 c 2
 147 281 l 2
 147 157 190 87 285 87 c 0
 354 87 403 143 403 232 c 1xbf80
 267 232 l 1
 267 330 l 1
EndSplineSet
Position2: "'cpsp' Capital Spacing lookup 0 subtable" dx=5 dy=0 dh=10 dv=0
EndChar

StartChar: Gcircumflex
Encoding: 284 284 38
Width: 564
GlyphClass: 2
Flags: W
HStem: -11 98<211.175 351.036> 0 21G<440.03 519> 232 98<267 403> 520 97<209.662 354.301>
VStem: 30 117<163.234 442.344> 403 116<144.18 232 394 468.424> 446 73<0 23.45>
LayerCount: 2
Fore
SplineSet
243 661 m 1x38
 164 661 l 1
 240 781 l 1
 326 781 l 1
 401 661 l 1
 322 661 l 1
 283 722 l 1
 243 661 l 1x38
267 330 m 1
 519 330 l 1
 519 0 l 1
 446 0 l 1x7a
 426 67 l 1
 387 16 328 -11 264 -11 c 0
 116 -11 30 88 30 303 c 0
 30 517 124 617 287 617 c 0
 409 617 519 539 519 394 c 1
 403 394 l 1
 403 476 349 520 284 520 c 0
 189 520 147 446 147 325 c 2
 147 281 l 2
 147 157 190 87 285 87 c 0
 354 87 403 143 403 232 c 1xbc
 267 232 l 1
 267 330 l 1
EndSplineSet
Position2: "'cpsp' Capital Spacing lookup 0 subtable" dx=5 dy=0 dh=10 dv=0
EndChar

StartChar: Gcommaaccent
Encoding: 290 290 39
Width: 564
GlyphClass: 2
Flags: W
HStem: -157 108<214 257> -11 98<211.175 351.036> 0 21G<440.03 519> 232 98<267 403> 520 97<209.662 354.301>
VStem: 30 117<163.234 442.344> 214 109<-148 -49> 403 116<144.18 232 394 468.424> 446 73<0 23.45>
LayerCount: 2
Fore
SplineSet
267 330 m 1xdf
 519 330 l 1
 519 0 l 1
 446 0 l 1xbe80
 426 67 l 1
 387 16 328 -11 264 -11 c 0
 116 -11 30 88 30 303 c 0
 30 517 124 617 287 617 c 0
 409 617 519 539 519 394 c 1
 403 394 l 1
 403 476 349 520 284 520 c 0
 189 520 147 446 147 325 c 2
 147 281 l 2
 147 157 190 87 285 87 c 0
 354 87 403 143 403 232 c 1
 267 232 l 1
 267 330 l 1xdf
214 -49 m 1
 323 -49 l 1
 323 -148 l 1
 283 -232 l 1
 225 -232 l 1
 257 -157 l 1
 214 -157 l 1
 214 -49 l 1
EndSplineSet
Position2: "'cpsp' Capital Spacing lookup 0 subtable" dx=5 dy=0 dh=10 dv=0
EndChar

StartChar: Gdotaccent
Encoding: 288 288 40
Width: 564
GlyphClass: 2
Flags: W
HStem: -11 98<211.175 351.036> 0 21G<440.03 519> 232 98<267 403> 520 97<209.662 354.301> 679 102<235 330>
VStem: 30 117<163.234 442.344> 235 95<679 781> 403 116<144.18 232 394 468.424> 446 73<0 23.45>
LayerCount: 2
Fore
SplineSet
330 679 m 1x3e
 235 679 l 1
 235 781 l 1
 330 781 l 1
 330 679 l 1x3e
267 330 m 1
 519 330 l 1
 519 0 l 1
 446 0 l 1x7e80
 426 67 l 1
 387 16 328 -11 264 -11 c 0
 116 -11 30 88 30 303 c 0
 30 517 124 617 287 617 c 0
 409 617 519 539 519 394 c 1
 403 394 l 1
 403 476 349 520 284 520 c 0
 189 520 147 446 147 325 c 2
 147 281 l 2
 147 157 190 87 285 87 c 0
 354 87 403 143 403 232 c 1xbf
 267 232 l 1
 267 330 l 1
EndSplineSet
Position2: "'cpsp' Capital Spacing lookup 0 subtable" dx=5 dy=0 dh=10 dv=0
EndChar

StartChar: H
Encoding: 72 72 41
Width: 523
GlyphClass: 2
Flags: W
HStem: 0 21G<53 166 357 470> 260 101<166 357> 586 20G<53 166 357 470>
VStem: 53 113<0 260 361 606> 357 113<0 260 361 606>
AnchorPoint: "Anchor-1" 0 0 basechar 0
AnchorPoint: "Anchor-0" 262 606 basechar 0
LayerCount: 2
Fore
SplineSet
357 0 m 1
 357 260 l 1
 166 260 l 1
 166 0 l 1
 53 0 l 1
 53 606 l 1
 166 606 l 1
 166 361 l 1
 357 361 l 1
 357 606 l 1
 470 606 l 1
 470 0 l 1
 357 0 l 1
EndSplineSet
Position2: "'cpsp' Capital Spacing lookup 0 subtable" dx=5 dy=0 dh=10 dv=0
EndChar

StartChar: Hbar
Encoding: 294 294 42
Width: 523
GlyphClass: 2
Flags: W
HStem: 0 21G<53 166 357 470> 254 100<166 357> 433 77<9 53 166 357 470 514> 586 20G<53 166 357 470>
VStem: 53 113<0 254 354 433 510 606> 357 113<0 254 354 433 510 606>
LayerCount: 2
Fore
SplineSet
470 0 m 1
 357 0 l 1
 357 254 l 1
 166 254 l 1
 166 0 l 1
 53 0 l 1
 53 433 l 1
 9 433 l 1
 9 510 l 1
 53 510 l 1
 53 606 l 1
 166 606 l 1
 166 510 l 1
 357 510 l 1
 357 606 l 1
 470 606 l 1
 470 510 l 1
 514 510 l 1
 514 433 l 1
 470 433 l 1
 470 0 l 1
166 433 m 1
 166 354 l 1
 357 354 l 1
 357 433 l 1
 166 433 l 1
EndSplineSet
Position2: "'cpsp' Capital Spacing lookup 0 subtable" dx=5 dy=0 dh=10 dv=0
EndChar

StartChar: Hcircumflex
Encoding: 292 292 43
Width: 523
GlyphClass: 2
Flags: W
HStem: 0 21G<53 166 357 470> 260 101<166 357> 586 20G<53 166 357 470>
VStem: 53 113<0 260 361 606> 357 113<0 260 361 606>
LayerCount: 2
Fore
SplineSet
301 661 m 1
 262 722 l 1
 222 661 l 1
 143 661 l 1
 219 781 l 1
 306 781 l 1
 381 661 l 1
 301 661 l 1
357 0 m 1
 357 260 l 1
 166 260 l 1
 166 0 l 1
 53 0 l 1
 53 606 l 1
 166 606 l 1
 166 361 l 1
 357 361 l 1
 357 606 l 1
 470 606 l 1
 470 0 l 1
 357 0 l 1
EndSplineSet
Position2: "'cpsp' Capital Spacing lookup 0 subtable" dx=5 dy=0 dh=10 dv=0
EndChar

StartChar: I
Encoding: 73 73 44
Width: 202
GlyphClass: 2
Flags: W
HStem: 0 21G<44 157> 586 20G<44 157>
VStem: 44 113<0 606>
AnchorPoint: "Anchor-1" 0 0 basechar 0
AnchorPoint: "Anchor-0" 101 606 basechar 0
LayerCount: 2
Fore
SplineSet
44 606 m 1
 157 606 l 1
 157 0 l 1
 44 0 l 1
 44 606 l 1
EndSplineSet
Position2: "'cpsp' Capital Spacing lookup 0 subtable" dx=5 dy=0 dh=10 dv=0
EndChar

StartChar: IJ
Encoding: 306 306 45
Width: 605
GlyphClass: 2
Flags: W
HStem: -11 98<333.236 425.778> 0 21G<44 157> 586 20G<44 157 438 552>
VStem: 44 113<0 606> 210 112<100.125 191> 438 114<100.125 606>
LayerCount: 2
Fore
SplineSet
44 0 m 1x7c
 44 606 l 1
 157 606 l 1
 157 0 l 1
 44 0 l 1x7c
552 606 m 1
 552 144 l 2
 552 43 491 -11 381 -11 c 0
 271 -11 210 43 210 144 c 2
 210 191 l 1
 322 191 l 1
 322 153 l 2
 322 110 342 87 381 87 c 0xbc
 419 87 438 110 438 153 c 2
 438 606 l 1
 552 606 l 1
EndSplineSet
Position2: "'cpsp' Capital Spacing lookup 0 subtable" dx=5 dy=0 dh=10 dv=0
EndChar

StartChar: Iacute
Encoding: 205 205 46
Width: 202
GlyphClass: 2
Flags: W
HStem: 0 21G<44 157> 586 20G<44 157>
VStem: 44 113<0 606>
LayerCount: 2
Fore
SplineSet
128 664 m 1
 40 664 l 1
 116 781 l 1
 222 781 l 1
 223 778 l 1
 128 664 l 1
44 0 m 1
 44 606 l 1
 157 606 l 1
 157 0 l 1
 44 0 l 1
EndSplineSet
Position2: "'cpsp' Capital Spacing lookup 0 subtable" dx=5 dy=0 dh=10 dv=0
EndChar

StartChar: Ibreve
Encoding: 300 300 47
Width: 202
GlyphClass: 2
Flags: W
HStem: 0 21G<44 157> 586 20G<44 157> 686 65<53.4222 150.374>
VStem: -18 67<759.75 781> 44 113<0 606> 154 65<759.75 781>
LayerCount: 2
Fore
SplineSet
154 781 m 1xf4
 219 781 l 1
 219 736 174 686 101 686 c 0
 28 686 -18 736 -18 781 c 1
 49 781 l 1
 51 768 72 751 101 751 c 0
 131 751 152 768 154 781 c 1xf4
44 606 m 1xe8
 157 606 l 1
 157 0 l 1
 44 0 l 1
 44 606 l 1xe8
EndSplineSet
Position2: "'cpsp' Capital Spacing lookup 0 subtable" dx=5 dy=0 dh=10 dv=0
EndChar

StartChar: Icircumflex
Encoding: 206 206 48
Width: 202
GlyphClass: 2
Flags: W
HStem: 0 21G<44 157> 586 20G<44 157>
VStem: 44 113<0 606>
LayerCount: 2
Fore
SplineSet
102 722 m 1
 62 661 l 1
 -19 661 l 1
 58 781 l 1
 145 781 l 1
 220 661 l 1
 141 661 l 1
 102 722 l 1
44 606 m 1
 157 606 l 1
 157 0 l 1
 44 0 l 1
 44 606 l 1
EndSplineSet
Position2: "'cpsp' Capital Spacing lookup 0 subtable" dx=5 dy=0 dh=10 dv=0
EndChar

StartChar: Idieresis
Encoding: 207 207 49
Width: 202
GlyphClass: 2
Flags: W
HStem: 0 21G<44 157> 586 20G<44 157> 684 97<-20 68 134 223>
VStem: -20 88<684 781> 44 113<0 606> 134 89<684 781>
LayerCount: 2
Fore
SplineSet
-20 684 m 1xf0
 -20 781 l 1
 68 781 l 1
 68 684 l 1
 -20 684 l 1xf0
134 684 m 1xe4
 134 781 l 1
 223 781 l 1
 223 684 l 1
 134 684 l 1xe4
44 0 m 1xe8
 44 606 l 1
 157 606 l 1
 157 0 l 1
 44 0 l 1xe8
EndSplineSet
Position2: "'cpsp' Capital Spacing lookup 0 subtable" dx=5 dy=0 dh=10 dv=0
EndChar

StartChar: Idotaccent
Encoding: 304 304 50
Width: 202
GlyphClass: 2
Flags: W
HStem: 0 21G<44 157> 586 20G<44 157> 679 102<54 149>
VStem: 44 113<0 606> 54 95<679 781>
LayerCount: 2
Fore
SplineSet
54 781 m 1xe8
 149 781 l 1
 149 679 l 1
 54 679 l 1
 54 781 l 1xe8
44 606 m 1xf0
 157 606 l 1
 157 0 l 1
 44 0 l 1
 44 606 l 1xf0
EndSplineSet
Position2: "'cpsp' Capital Spacing lookup 0 subtable" dx=5 dy=0 dh=10 dv=0
EndChar

StartChar: Igrave
Encoding: 204 204 51
Width: 202
GlyphClass: 2
Flags: W
HStem: 0 21G<44 157> 586 20G<44 157>
VStem: 44 113<0 606>
LayerCount: 2
Fore
SplineSet
74 664 m 1
 -21 778 l 1
 -20 781 l 1
 86 781 l 1
 162 664 l 1
 74 664 l 1
44 0 m 1
 44 606 l 1
 157 606 l 1
 157 0 l 1
 44 0 l 1
EndSplineSet
Position2: "'cpsp' Capital Spacing lookup 0 subtable" dx=5 dy=0 dh=10 dv=0
EndChar

StartChar: Imacron
Encoding: 298 298 52
Width: 202
GlyphClass: 2
Flags: W
HStem: 0 21G<44 157> 586 20G<44 157> 671 77<-12 214>
VStem: 44 113<0 606>
LayerCount: 2
Fore
SplineSet
-12 748 m 1
 214 748 l 1
 214 671 l 1
 -12 671 l 1
 -12 748 l 1
44 606 m 1
 157 606 l 1
 157 0 l 1
 44 0 l 1
 44 606 l 1
EndSplineSet
Position2: "'cpsp' Capital Spacing lookup 0 subtable" dx=5 dy=0 dh=10 dv=0
EndChar

StartChar: Iogonek
Encoding: 302 302 53
Width: 202
GlyphClass: 2
Flags: W
HStem: -168 61<135.339 189.063> -156 49<135.563 190> 586 20G<44 157>
VStem: 44 113<-38.9592 -20.7271 0 606> 44 87<-102.371 -20.4585>
LayerCount: 2
Fore
SplineSet
157 606 m 1xb0
 157 0 l 1xb0
 148 -12 131 -37 131 -62 c 0
 131 -85 141 -107 171 -107 c 2xa8
 190 -107 l 1
 190 -156 l 1x68
 170 -164 151 -168 132 -168 c 0
 92 -168 44 -149 44 -88 c 0xa8
 44 -47 62 -22 83 0 c 1
 44 0 l 1
 44 606 l 1
 157 606 l 1xb0
EndSplineSet
Position2: "'cpsp' Capital Spacing lookup 0 subtable" dx=5 dy=0 dh=10 dv=0
EndChar

StartChar: Itilde
Encoding: 296 296 54
Width: 202
GlyphClass: 2
Flags: W
HStem: 0 21G<44 157> 586 20G<44 157> 673 75<89.9046 187.653> 705 76<14.2313 112.088>
VStem: -48 59<673 703.132> 44 113<0 606> 191 59<750.481 781>
LayerCount: 2
Fore
SplineSet
191 781 m 1xde
 250 781 l 1xde
 250 732 225 673 163 673 c 0xee
 120 673 86 705 46 705 c 0xde
 27 705 15 697 11 673 c 1
 -48 673 l 1xee
 -48 721 -23 781 39 781 c 0xde
 83 781 117 748 157 748 c 0xee
 176 748 187 756 191 781 c 1xde
44 606 m 1
 157 606 l 1
 157 0 l 1
 44 0 l 1
 44 606 l 1
EndSplineSet
Position2: "'cpsp' Capital Spacing lookup 0 subtable" dx=5 dy=0 dh=10 dv=0
EndChar

StartChar: J
Encoding: 74 74 55
Width: 403
GlyphClass: 2
Flags: W
HStem: -11 98<131.565 224.075> 586 20G<237 350>
VStem: 8 112<100.125 191> 237 113<100.125 606>
AnchorPoint: "Anchor-1" 0 0 basechar 0
AnchorPoint: "Anchor-0" 202 606 basechar 0
LayerCount: 2
Fore
SplineSet
350 606 m 1
 350 144 l 2
 350 43 289 -11 179 -11 c 0
 70 -11 8 43 8 144 c 2
 8 191 l 1
 120 191 l 1
 120 153 l 2
 120 110 141 87 179 87 c 0
 217 87 237 110 237 153 c 2
 237 606 l 1
 350 606 l 1
EndSplineSet
Position2: "'cpsp' Capital Spacing lookup 0 subtable" dx=5 dy=0 dh=10 dv=0
EndChar

StartChar: Jcircumflex
Encoding: 308 308 56
Width: 403
GlyphClass: 2
Flags: W
HStem: -11 98<131.565 224.075> 586 20G<237 350>
VStem: 8 112<100.125 191> 237 113<100.125 606>
LayerCount: 2
Fore
SplineSet
345 661 m 1
 305 722 l 1
 265 661 l 1
 186 661 l 1
 262 781 l 1
 349 781 l 1
 423 661 l 1
 345 661 l 1
350 606 m 1
 350 144 l 2
 350 43 289 -11 179 -11 c 0
 70 -11 8 43 8 144 c 2
 8 191 l 1
 120 191 l 1
 120 153 l 2
 120 110 141 87 179 87 c 0
 217 87 237 110 237 153 c 2
 237 606 l 1
 350 606 l 1
EndSplineSet
Position2: "'cpsp' Capital Spacing lookup 0 subtable" dx=5 dy=0 dh=10 dv=0
EndChar

StartChar: K
Encoding: 75 75 57
Width: 523
GlyphClass: 2
Flags: W
HStem: 0 21G<53 167 383.332 521> 586 20G<53 167 374.677 515>
VStem: 53 114<0 155 296 606>
AnchorPoint: "Anchor-1" 262 0 basechar 0
AnchorPoint: "Anchor-0" 262 606 basechar 0
LayerCount: 2
Fore
SplineSet
515 606 m 1
 336 360 l 1
 521 0 l 1
 393 0 l 1
 262 271 l 1
 167 155 l 1
 167 0 l 1
 53 0 l 1
 53 606 l 1
 167 606 l 1
 167 296 l 1
 389 606 l 1
 515 606 l 1
EndSplineSet
Position2: "'cpsp' Capital Spacing lookup 0 subtable" dx=5 dy=0 dh=10 dv=0
EndChar

StartChar: Kcommaaccent
Encoding: 310 310 58
Width: 523
GlyphClass: 2
Flags: W
HStem: -157 108<207 250> 0 21G<53 167 383.332 521> 586 20G<53 167 374.677 515>
VStem: 53 114<0 155 296 606> 207 109<-148 -49>
LayerCount: 2
Fore
SplineSet
515 606 m 1
 336 360 l 1
 521 0 l 1
 393 0 l 1
 262 271 l 1
 167 155 l 1
 167 0 l 1
 53 0 l 1
 53 606 l 1
 167 606 l 1
 167 296 l 1
 389 606 l 1
 515 606 l 1
219 -232 m 1
 250 -157 l 1
 207 -157 l 1
 207 -49 l 1
 316 -49 l 1
 316 -148 l 1
 276 -232 l 1
 219 -232 l 1
EndSplineSet
Position2: "'cpsp' Capital Spacing lookup 0 subtable" dx=5 dy=0 dh=10 dv=0
EndChar

StartChar: L
Encoding: 76 76 59
Width: 443
GlyphClass: 2
Flags: W
HStem: 0 106<166 423> 586 20G<53 166>
VStem: 53 113<106 606>
AnchorPoint: "Anchor-1" 222 0 basechar 0
AnchorPoint: "Anchor-0" 222 606 basechar 0
LayerCount: 2
Fore
SplineSet
423 106 m 1
 423 0 l 1
 53 0 l 1
 53 606 l 1
 166 606 l 1
 166 106 l 1
 423 106 l 1
EndSplineSet
Position2: "'cpsp' Capital Spacing lookup 0 subtable" dx=5 dy=0 dh=10 dv=0
EndChar

StartChar: Lacute
Encoding: 313 313 60
Width: 443
GlyphClass: 2
Flags: W
HStem: 0 106<166 423> 586 20G<53 166>
VStem: 53 113<106 606>
LayerCount: 2
Fore
SplineSet
139 664 m 1
 51 664 l 1
 127 781 l 1
 233 781 l 1
 234 778 l 1
 139 664 l 1
423 106 m 1
 423 0 l 1
 53 0 l 1
 53 606 l 1
 166 606 l 1
 166 106 l 1
 423 106 l 1
EndSplineSet
Position2: "'cpsp' Capital Spacing lookup 0 subtable" dx=5 dy=0 dh=10 dv=0
EndChar

StartChar: Lcaron
Encoding: 317 317 61
Width: 443
GlyphClass: 2
Flags: W
HStem: 0 106<166 423> 586 20G<53 166 301 423>
VStem: 53 113<106 606> 301 122<496 606>
LayerCount: 2
Fore
SplineSet
423 106 m 1
 423 0 l 1
 53 0 l 1
 53 606 l 1
 166 606 l 1
 166 106 l 1
 423 106 l 1
364 347 m 1
 301 347 l 1
 349 485 l 1
 301 485 l 1
 301 606 l 1
 423 606 l 1
 423 496 l 1
 364 347 l 1
EndSplineSet
Position2: "'cpsp' Capital Spacing lookup 0 subtable" dx=5 dy=0 dh=10 dv=0
EndChar

StartChar: Lcommaaccent
Encoding: 315 315 62
Width: 443
GlyphClass: 2
Flags: W
HStem: -157 108<167 210> 0 106<166 423> 586 20G<53 166>
VStem: 53 113<106 606> 167 109<-148 -49>
LayerCount: 2
Fore
SplineSet
423 106 m 1
 423 0 l 1
 53 0 l 1
 53 606 l 1
 166 606 l 1
 166 106 l 1
 423 106 l 1
236 -232 m 1
 179 -232 l 1
 210 -157 l 1
 167 -157 l 1
 167 -49 l 1
 276 -49 l 1
 276 -148 l 1
 236 -232 l 1
EndSplineSet
Position2: "'cpsp' Capital Spacing lookup 0 subtable" dx=5 dy=0 dh=10 dv=0
EndChar

StartChar: Ldot
Encoding: 319 319 63
Width: 443
GlyphClass: 2
Flags: W
HStem: 0 106<166 423> 362 101<277 371> 586 20G<53 166>
VStem: 53 113<106 606> 277 94<362 463>
LayerCount: 2
Fore
SplineSet
423 106 m 1
 423 0 l 1
 53 0 l 1
 53 606 l 1
 166 606 l 1
 166 106 l 1
 423 106 l 1
277 362 m 1
 277 463 l 1
 371 463 l 1
 371 362 l 1
 277 362 l 1
EndSplineSet
Ligature2: "Ligature Substitution lookup 31 subtable" L periodcentered
Position2: "'cpsp' Capital Spacing lookup 0 subtable" dx=5 dy=0 dh=10 dv=0
EndChar

StartChar: Lslash
Encoding: 321 321 64
Width: 443
GlyphClass: 2
Flags: W
HStem: 0 106<166 423> 586 20G<53 166>
VStem: 53 113<106 210 293 309 394 606>
LayerCount: 2
Fore
SplineSet
269 486 m 1
 269 400 l 1
 166 309 l 1
 166 106 l 1
 423 106 l 1
 423 0 l 1
 53 0 l 1
 53 210 l 1
 0 163 l 1
 0 247 l 1
 53 293 l 1
 53 606 l 1
 166 606 l 1
 166 394 l 1
 269 486 l 1
EndSplineSet
Position2: "'cpsp' Capital Spacing lookup 0 subtable" dx=5 dy=0 dh=10 dv=0
EndChar

StartChar: M
Encoding: 77 77 65
Width: 604
GlyphClass: 2
Flags: W
HStem: 0 21G<47 143 244.63 351.386 453 557> 586 20G<47 210.491 398.569 557>
VStem: 47 96<0 484> 453 104<0 483.949>
LayerCount: 2
Fore
SplineSet
453 0 m 1
 453 386 l 2
 453 414 457 484 457 484 c 1
 453 484 l 1
 448 461 444 438 438 415 c 2
 347 0 l 1
 249 0 l 1
 164 389 l 2
 156 421 149 452 142 484 c 1
 139 484 l 1
 139 484 143 410 143 386 c 2
 143 0 l 1
 47 0 l 1
 47 606 l 1
 206 606 l 1
 281 272 l 2
 290 232 305 135 305 135 c 1
 309 135 l 1
 309 135 321 237 329 272 c 2
 403 606 l 1
 557 606 l 1
 557 0 l 1
 453 0 l 1
EndSplineSet
Position2: "'cpsp' Capital Spacing lookup 0 subtable" dx=5 dy=0 dh=10 dv=0
EndChar

StartChar: N
Encoding: 78 78 66
Width: 523
GlyphClass: 2
Flags: W
HStem: 0 21G<53 153 358.743 470> 586 20G<53 164.198 370 470>
VStem: 53 100<0 387.975> 370 100<218 606>
AnchorPoint: "Anchor-1" 262 0 basechar 0
AnchorPoint: "Anchor-0" 262 606 basechar 0
LayerCount: 2
Fore
SplineSet
370 0 m 1
 182 334 l 2
 175 347 155 391 155 391 c 1
 151 388 l 1
 151 388 153 354 153 338 c 2
 153 0 l 1
 53 0 l 1
 53 606 l 1
 153 606 l 1
 340 272 l 1
 350 257 368 216 368 216 c 1
 370 218 l 1
 370 347 370 477 370 606 c 1
 470 606 l 1
 470 0 l 1
 370 0 l 1
EndSplineSet
Position2: "'cpsp' Capital Spacing lookup 0 subtable" dx=5 dy=0 dh=10 dv=0
EndChar

StartChar: Nacute
Encoding: 323 323 67
Width: 523
GlyphClass: 2
Flags: W
HStem: 0 21G<53 153 358.743 470> 586 20G<53 164.198 370 470>
VStem: 53 100<0 387.975> 370 100<218 606>
LayerCount: 2
Fore
SplineSet
288 664 m 1
 201 664 l 1
 277 781 l 1
 383 781 l 1
 384 778 l 1
 288 664 l 1
370 0 m 1
 182 334 l 2
 175 347 155 391 155 391 c 1
 151 388 l 1
 151 388 153 354 153 338 c 2
 153 0 l 1
 53 0 l 1
 53 606 l 1
 153 606 l 1
 340 272 l 1
 350 257 368 216 368 216 c 1
 370 218 l 1
 370 347 370 477 370 606 c 1
 470 606 l 1
 470 0 l 1
 370 0 l 1
EndSplineSet
Position2: "'cpsp' Capital Spacing lookup 0 subtable" dx=5 dy=0 dh=10 dv=0
EndChar

StartChar: Ncaron
Encoding: 327 327 68
Width: 523
GlyphClass: 2
Flags: W
HStem: 0 21G<53 153 358.743 470> 586 20G<53 164.198 370 470>
VStem: 53 100<0 387.975> 370 100<218 606>
LayerCount: 2
Fore
SplineSet
219 661 m 1
 143 781 l 1
 222 781 l 1
 262 720 l 1
 301 781 l 1
 381 781 l 1
 306 661 l 1
 219 661 l 1
370 0 m 1
 182 334 l 2
 175 347 155 391 155 391 c 1
 151 388 l 1
 151 388 153 354 153 338 c 2
 153 0 l 1
 53 0 l 1
 53 606 l 1
 153 606 l 1
 340 272 l 1
 350 257 368 216 368 216 c 1
 370 218 l 1
 370 347 370 477 370 606 c 1
 470 606 l 1
 470 0 l 1
 370 0 l 1
EndSplineSet
Position2: "'cpsp' Capital Spacing lookup 0 subtable" dx=5 dy=0 dh=10 dv=0
EndChar

StartChar: Ncommaaccent
Encoding: 325 325 69
Width: 523
GlyphClass: 2
Flags: W
HStem: -157 108<207 250> 0 21G<53 153 358.743 470> 586 20G<53 164.198 370 470>
VStem: 53 100<0 387.975> 207 109<-148 -49> 370 100<218 606>
CounterMasks: 1 1c
LayerCount: 2
Fore
SplineSet
370 0 m 1
 182 334 l 2
 175 347 155 391 155 391 c 1
 151 388 l 1
 151 388 153 354 153 338 c 2
 153 0 l 1
 53 0 l 1
 53 606 l 1
 153 606 l 1
 340 272 l 1
 350 257 368 216 368 216 c 1
 370 218 l 1
 370 347 370 477 370 606 c 1
 470 606 l 1
 470 0 l 1
 370 0 l 1
276 -232 m 1
 219 -232 l 1
 250 -157 l 1
 207 -157 l 1
 207 -49 l 1
 316 -49 l 1
 316 -148 l 1
 276 -232 l 1
EndSplineSet
Position2: "'cpsp' Capital Spacing lookup 0 subtable" dx=5 dy=0 dh=10 dv=0
EndChar

StartChar: Eng
Encoding: 330 330 70
Width: 524
GlyphClass: 2
Flags: W
HStem: -161 89<286.854 363.298> -150 78<286 360.777> 0 21G<53 153> 586 20G<53 164.198 370 470>
VStem: 53 100<0 387.975> 370 100<-64.8916 0 218 606>
LayerCount: 2
Fore
SplineSet
470 606 m 1xbc
 470 -36 l 2
 470 -98 447 -161 362 -161 c 0xbc
 336 -161 304 -156 286 -150 c 1
 286 -72 l 1x7c
 325 -72 l 2
 353 -72 367 -57 367 -29 c 2
 367 0 l 1
 182 334 l 2
 175 347 155 391 155 391 c 1
 151 388 l 1
 151 388 153 354 153 338 c 2
 153 0 l 1
 53 0 l 1
 53 606 l 1
 153 606 l 1
 340 272 l 1
 350 257 368 216 368 216 c 1
 370 218 l 1
 370 347 370 477 370 606 c 1
 470 606 l 1xbc
EndSplineSet
Position2: "'cpsp' Capital Spacing lookup 0 subtable" dx=5 dy=0 dh=10 dv=0
EndChar

StartChar: Ntilde
Encoding: 209 209 71
Width: 523
GlyphClass: 2
Flags: W
HStem: 0 21G<53 153 358.743 470> 586 20G<53 164.198 370 470> 673 75<249.255 348.114> 705 76<173.529 272.335>
VStem: 53 100<0 387.975> 113 58<673 703.132> 352 58<750.481 781> 370 100<218 606>
LayerCount: 2
Fore
SplineSet
352 781 m 1xd6
 410 781 l 1xd6
 410 732 385 673 323 673 c 0xe6
 280 673 246 705 206 705 c 0xd6
 187 705 175 697 171 673 c 1
 113 673 l 1xe6
 113 721 138 781 200 781 c 0xd6
 243 781 278 748 317 748 c 0xe6
 336 748 348 756 352 781 c 1xd6
370 0 m 1xc9
 182 334 l 2
 175 347 155 391 155 391 c 1
 151 388 l 1
 151 388 153 354 153 338 c 2
 153 0 l 1
 53 0 l 1
 53 606 l 1
 153 606 l 1
 340 272 l 1
 350 257 368 216 368 216 c 1
 370 218 l 1
 370 347 370 477 370 606 c 1
 470 606 l 1
 470 0 l 1
 370 0 l 1xc9
EndSplineSet
Position2: "'cpsp' Capital Spacing lookup 0 subtable" dx=5 dy=0 dh=10 dv=0
EndChar

StartChar: O
Encoding: 79 79 72
Width: 564
GlyphClass: 2
Flags: W
HStem: -11 98<212.108 351.892> 520 97<212.108 351.892>
VStem: 30 117<163.656 442.344> 417 117<163.656 442.344>
AnchorPoint: "Anchor-1" 0 0 basechar 0
AnchorPoint: "Anchor-0" 282 606 basechar 0
LayerCount: 2
Fore
SplineSet
282 617 m 0
 438 617 534 517 534 303 c 0
 534 89 438 -11 282 -11 c 0
 126 -11 30 89 30 303 c 0
 30 517 126 617 282 617 c 0
282 520 m 0
 192 520 147 446 147 325 c 2
 147 281 l 2
 147 160 192 87 282 87 c 0
 372 87 417 160 417 281 c 2
 417 325 l 2
 417 446 372 520 282 520 c 0
EndSplineSet
Substitution2: "Single Substitution lookup 32 subtable" ordmasculine
Substitution2: "'aalt' Access All Alternates lookup 0 subtable" ordmasculine
Position2: "'cpsp' Capital Spacing lookup 0 subtable" dx=5 dy=0 dh=10 dv=0
EndChar

StartChar: Oacute
Encoding: 211 211 73
Width: 564
GlyphClass: 2
Flags: W
HStem: -11 98<212.108 351.892> 520 97<212.108 351.892>
VStem: 30 117<163.656 442.344> 417 117<163.656 442.344>
LayerCount: 2
Fore
SplineSet
309 664 m 1
 221 664 l 1
 297 781 l 1
 404 781 l 1
 405 778 l 1
 309 664 l 1
282 617 m 0
 438 617 534 517 534 303 c 0
 534 89 438 -11 282 -11 c 0
 126 -11 30 89 30 303 c 0
 30 517 126 617 282 617 c 0
282 520 m 0
 192 520 147 446 147 325 c 2
 147 281 l 2
 147 160 192 87 282 87 c 0
 372 87 417 160 417 281 c 2
 417 325 l 2
 417 446 372 520 282 520 c 0
EndSplineSet
Position2: "'cpsp' Capital Spacing lookup 0 subtable" dx=5 dy=0 dh=10 dv=0
EndChar

StartChar: Obreve
Encoding: 334 334 74
Width: 564
GlyphClass: 2
Flags: W
HStem: -11 98<212.108 351.892> 520 97<212.108 351.892> 686 65<234.698 331.374>
VStem: 30 117<163.656 442.344> 164 66<759.75 781> 335 65<759.75 781> 417 117<163.656 442.344>
LayerCount: 2
Fore
SplineSet
335 781 m 1
 400 781 l 1
 400 736 355 686 282 686 c 0
 210 686 164 736 164 781 c 1
 230 781 l 1
 232 768 253 751 282 751 c 0
 312 751 333 768 335 781 c 1
282 617 m 0
 438 617 534 517 534 303 c 0
 534 89 438 -11 282 -11 c 0
 126 -11 30 89 30 303 c 0
 30 517 126 617 282 617 c 0
282 520 m 0
 192 520 147 446 147 325 c 2
 147 281 l 2
 147 160 192 87 282 87 c 0
 372 87 417 160 417 281 c 2
 417 325 l 2
 417 446 372 520 282 520 c 0
EndSplineSet
Position2: "'cpsp' Capital Spacing lookup 0 subtable" dx=5 dy=0 dh=10 dv=0
EndChar

StartChar: Ocircumflex
Encoding: 212 212 75
Width: 564
GlyphClass: 2
Flags: W
HStem: -11 98<212.108 351.892> 520 97<212.108 351.892>
VStem: 30 117<163.656 442.344> 417 117<163.656 442.344>
LayerCount: 2
Fore
SplineSet
283 722 m 1
 243 661 l 1
 164 661 l 1
 240 781 l 1
 326 781 l 1
 401 661 l 1
 322 661 l 1
 283 722 l 1
282 617 m 0
 438 617 534 517 534 303 c 0
 534 89 438 -11 282 -11 c 0
 126 -11 30 89 30 303 c 0
 30 517 126 617 282 617 c 0
282 520 m 0
 192 520 147 446 147 325 c 2
 147 281 l 2
 147 160 192 87 282 87 c 0
 372 87 417 160 417 281 c 2
 417 325 l 2
 417 446 372 520 282 520 c 0
EndSplineSet
Position2: "'cpsp' Capital Spacing lookup 0 subtable" dx=5 dy=0 dh=10 dv=0
EndChar

StartChar: Odieresis
Encoding: 214 214 76
Width: 564
GlyphClass: 2
Flags: W
HStem: -11 98<212.108 351.892> 520 97<212.108 351.892> 684 97<161 249 316 404>
VStem: 30 117<163.656 442.344> 161 88<684 781> 316 88<684 781> 417 117<163.656 442.344>
LayerCount: 2
Fore
SplineSet
161 684 m 1
 161 781 l 1
 249 781 l 1
 249 684 l 1
 161 684 l 1
316 684 m 1
 316 781 l 1
 404 781 l 1
 404 684 l 1
 316 684 l 1
282 617 m 0
 438 617 534 517 534 303 c 0
 534 89 438 -11 282 -11 c 0
 126 -11 30 89 30 303 c 0
 30 517 126 617 282 617 c 0
282 520 m 0
 192 520 147 446 147 325 c 2
 147 281 l 2
 147 160 192 87 282 87 c 0
 372 87 417 160 417 281 c 2
 417 325 l 2
 417 446 372 520 282 520 c 0
EndSplineSet
Position2: "'cpsp' Capital Spacing lookup 0 subtable" dx=5 dy=0 dh=10 dv=0
EndChar

StartChar: Ograve
Encoding: 210 210 77
Width: 564
GlyphClass: 2
Flags: W
HStem: -11 98<212.108 351.892> 520 97<212.108 351.892>
VStem: 30 117<163.656 442.344> 417 117<163.656 442.344>
LayerCount: 2
Fore
SplineSet
255 664 m 1
 160 778 l 1
 161 781 l 1
 267 781 l 1
 343 664 l 1
 255 664 l 1
282 617 m 0
 438 617 534 517 534 303 c 0
 534 89 438 -11 282 -11 c 0
 126 -11 30 89 30 303 c 0
 30 517 126 617 282 617 c 0
282 520 m 0
 192 520 147 446 147 325 c 2
 147 281 l 2
 147 160 192 87 282 87 c 0
 372 87 417 160 417 281 c 2
 417 325 l 2
 417 446 372 520 282 520 c 0
EndSplineSet
Position2: "'cpsp' Capital Spacing lookup 0 subtable" dx=5 dy=0 dh=10 dv=0
EndChar

StartChar: Ohungarumlaut
Encoding: 336 336 78
Width: 564
GlyphClass: 2
Flags: W
HStem: -11 98<212.108 351.892> 520 97<212.108 351.892>
VStem: 30 117<163.656 442.344> 417 117<163.656 442.344>
LayerCount: 2
Fore
SplineSet
253 664 m 1
 183 664 l 1
 238 781 l 1
 326 781 l 1
 327 778 l 1
 253 664 l 1
377 664 m 1
 307 664 l 1
 362 781 l 1
 450 781 l 1
 451 778 l 1
 377 664 l 1
282 617 m 0
 438 617 534 517 534 303 c 0
 534 89 438 -11 282 -11 c 0
 126 -11 30 89 30 303 c 0
 30 517 126 617 282 617 c 0
282 520 m 0
 192 520 147 446 147 325 c 2
 147 281 l 2
 147 160 192 87 282 87 c 0
 372 87 417 160 417 281 c 2
 417 325 l 2
 417 446 372 520 282 520 c 0
EndSplineSet
Position2: "'cpsp' Capital Spacing lookup 0 subtable" dx=5 dy=0 dh=10 dv=0
EndChar

StartChar: Omacron
Encoding: 332 332 79
Width: 564
GlyphClass: 2
Flags: W
HStem: -11 98<212.108 351.892> 520 97<212.108 351.892> 671 77<170 395>
VStem: 30 117<163.656 442.344> 417 117<163.656 442.344>
LayerCount: 2
Fore
SplineSet
170 748 m 1
 395 748 l 1
 395 671 l 1
 170 671 l 1
 170 748 l 1
282 617 m 0
 438 617 534 517 534 303 c 0
 534 89 438 -11 282 -11 c 0
 126 -11 30 89 30 303 c 0
 30 517 126 617 282 617 c 0
282 520 m 0
 192 520 147 446 147 325 c 2
 147 281 l 2
 147 160 192 87 282 87 c 0
 372 87 417 160 417 281 c 2
 417 325 l 2
 417 446 372 520 282 520 c 0
EndSplineSet
Position2: "'cpsp' Capital Spacing lookup 0 subtable" dx=5 dy=0 dh=10 dv=0
EndChar

StartChar: Oslash
Encoding: 216 216 80
Width: 564
GlyphClass: 2
Flags: W
HStem: -11 98<209.419 351.892> 520 97<212.108 354.074> 619 20G<442.368 530>
VStem: 30 117<172.458 442.344> 417 117<163.656 430.37>
AnchorPoint: "Anchor-1" 0 0 basechar 0
AnchorPoint: "Anchor-0" 282 606 basechar 0
LayerCount: 2
Fore
SplineSet
530 639 m 1
 467 539 l 1
 510 488 534 409 534 303 c 0
 534 89 438 -11 282 -11 c 0
 229 -11 183 1 145 24 c 1
 110 -33 l 1
 35 -33 l 1
 97 66 l 1
 54 118 30 196 30 303 c 0
 30 517 126 617 282 617 c 0
 335 617 381 606 419 582 c 1
 455 639 l 1
 530 639 l 1
282 520 m 0
 192 520 147 446 147 325 c 2
 147 281 l 2
 147 239 152 202 163 171 c 1
 362 492 l 1
 342 510 315 520 282 520 c 0
400 433 m 1
 202 114 l 1
 222 96 249 87 282 87 c 0
 372 87 417 160 417 281 c 2
 417 325 l 2
 417 367 412 404 400 433 c 1
EndSplineSet
Position2: "'cpsp' Capital Spacing lookup 0 subtable" dx=5 dy=0 dh=10 dv=0
EndChar

StartChar: Oslashacute
Encoding: 510 510 81
Width: 564
GlyphClass: 2
Flags: W
HStem: -11 98<209.419 351.892> 520 97<212.108 354.074> 619 20G<442.368 530>
VStem: 30 117<172.458 442.344> 417 117<163.656 430.37>
LayerCount: 2
Fore
SplineSet
309 664 m 1
 221 664 l 1
 297 781 l 1
 404 781 l 1
 405 778 l 1
 309 664 l 1
530 639 m 1
 467 539 l 1
 510 488 534 409 534 303 c 0
 534 89 438 -11 282 -11 c 0
 229 -11 183 1 145 24 c 1
 110 -33 l 1
 35 -33 l 1
 97 66 l 1
 54 118 30 196 30 303 c 0
 30 517 126 617 282 617 c 0
 335 617 381 606 419 582 c 1
 455 639 l 1
 530 639 l 1
282 520 m 0
 192 520 147 446 147 325 c 2
 147 281 l 2
 147 239 152 202 163 171 c 1
 362 492 l 1
 342 510 315 520 282 520 c 0
400 433 m 1
 202 114 l 1
 222 96 249 87 282 87 c 0
 372 87 417 160 417 281 c 2
 417 325 l 2
 417 367 412 404 400 433 c 1
EndSplineSet
Position2: "'cpsp' Capital Spacing lookup 0 subtable" dx=5 dy=0 dh=10 dv=0
EndChar

StartChar: Otilde
Encoding: 213 213 82
Width: 564
GlyphClass: 2
Flags: W
HStem: -11 98<212.108 351.892> 520 97<212.108 351.892> 673 75<270.141 368.833> 705 76<196.005 293.231>
VStem: 30 117<163.656 442.344> 133 60<673 703.132> 372 59<750.481 781> 417 117<163.656 442.344>
LayerCount: 2
Fore
SplineSet
372 781 m 1xd6
 431 781 l 1xd6
 431 732 406 673 344 673 c 0xe6
 301 673 267 705 227 705 c 0xd6
 208 705 196 697 193 673 c 1
 133 673 l 1xe6
 133 721 159 781 221 781 c 0xd6
 264 781 298 748 339 748 c 0xe6
 357 748 369 756 372 781 c 1xd6
282 617 m 0
 438 617 534 517 534 303 c 0
 534 89 438 -11 282 -11 c 0
 126 -11 30 89 30 303 c 0xc9
 30 517 126 617 282 617 c 0
282 520 m 0
 192 520 147 446 147 325 c 2
 147 281 l 2
 147 160 192 87 282 87 c 0
 372 87 417 160 417 281 c 2
 417 325 l 2
 417 446 372 520 282 520 c 0
EndSplineSet
Position2: "'cpsp' Capital Spacing lookup 0 subtable" dx=5 dy=0 dh=10 dv=0
EndChar

StartChar: OE
Encoding: 338 338 83
Width: 725
GlyphClass: 2
Flags: W
HStem: -11 98<189.145 311.595> 0 101<474 700> 260 101<474 656> 506 100<474 694> 520 97<189.145 311.595>
VStem: 27 116<144.368 462.038> 360 114<144.368 260 361 462.038>
AnchorPoint: "Anchor-1" 0 0 basechar 0
AnchorPoint: "Anchor-0" 362 606 basechar 0
LayerCount: 2
Fore
SplineSet
228 617 m 0xae
 282 617 327 596 361 552 c 1
 361 606 l 1
 694 606 l 1
 694 506 l 1
 474 506 l 1
 474 361 l 1
 656 361 l 1
 656 260 l 1
 474 260 l 1
 474 101 l 1
 700 101 l 1
 700 0 l 1
 361 0 l 1x76
 361 54 l 1
 327 10 282 -11 228 -11 c 0
 103 -11 27 89 27 303 c 0
 27 517 103 617 228 617 c 0xae
251 520 m 0xae
 179 520 143 464 143 325 c 2
 143 281 l 2
 143 142 179 87 251 87 c 0
 324 87 360 142 360 281 c 2
 360 325 l 2
 360 464 324 520 251 520 c 0xae
EndSplineSet
Position2: "'cpsp' Capital Spacing lookup 0 subtable" dx=5 dy=0 dh=10 dv=0
EndChar

StartChar: P
Encoding: 80 80 84
Width: 484
GlyphClass: 2
Flags: W
HStem: 0 21G<53 166> 235 100<166 315.734> 506 100<166 319.161>
VStem: 53 113<0 235 335 506> 343 117<359.268 481.277>
LayerCount: 2
Fore
SplineSet
53 0 m 1
 53 606 l 1
 270 606 l 2
 395 606 460 530 460 424 c 0
 460 310 384 235 270 235 c 2
 166 235 l 1
 166 0 l 1
 53 0 l 1
166 335 m 1
 258 335 l 2
 313 335 343 369 343 424 c 0
 343 474 312 506 258 506 c 2
 166 506 l 1
 166 335 l 1
EndSplineSet
Position2: "'cpsp' Capital Spacing lookup 0 subtable" dx=5 dy=0 dh=10 dv=0
EndChar

StartChar: Thorn
Encoding: 222 222 85
Width: 484
GlyphClass: 2
Flags: W
HStem: 0 21G<53 166> 127 100<166 315.734> 398 101<166 319.161> 586 20G<53 166>
VStem: 53 113<0 127 227 398 499 606> 343 117<251.268 373.323>
LayerCount: 2
Fore
SplineSet
166 499 m 1
 270 499 l 2
 395 499 460 422 460 316 c 0
 460 202 384 127 270 127 c 2
 166 127 l 1
 166 0 l 1
 53 0 l 1
 53 606 l 1
 166 606 l 1
 166 499 l 1
166 227 m 1
 258 227 l 2
 313 227 343 261 343 316 c 0
 343 366 312 398 258 398 c 2
 166 398 l 1
 166 227 l 1
EndSplineSet
Position2: "'cpsp' Capital Spacing lookup 0 subtable" dx=5 dy=0 dh=10 dv=0
EndChar

StartChar: Q
Encoding: 81 81 86
Width: 564
GlyphClass: 2
Flags: W
HStem: -11 98<213.407 293> 520 97<212.108 351.892>
VStem: 30 117<163.656 442.344> 417 117<162.666 442.344>
LayerCount: 2
Fore
SplineSet
30 303 m 0
 30 517 126 617 282 617 c 0
 438 617 534 517 534 303 c 0
 534 151 485 57 402 15 c 1
 519 -110 l 1
 380 -110 l 1
 293 -11 l 1
 282 -11 l 2
 126 -11 30 89 30 303 c 0
147 325 m 2
 147 281 l 2
 147 160 192 87 282 87 c 0
 372 87 417 160 417 281 c 2
 417 325 l 2
 417 446 372 520 282 520 c 0
 192 520 147 446 147 325 c 2
EndSplineSet
Position2: "'cpsp' Capital Spacing lookup 0 subtable" dx=5 dy=0 dh=10 dv=0
EndChar

StartChar: R
Encoding: 82 82 87
Width: 523
GlyphClass: 2
Flags: W
HStem: 0 21G<53 166 377.016 507> 253 100<166 284> 506 100<166 350.264>
VStem: 53 113<0 253 353 506> 370 122<372.189 487.769>
AnchorPoint: "Anchor-1" 262 0 basechar 0
AnchorPoint: "Anchor-0" 262 606 basechar 0
LayerCount: 2
Fore
SplineSet
53 606 m 1
 307 606 l 2
 430 606 492 533 492 433 c 0
 492 360 453 303 391 278 c 1
 507 0 l 1
 385 0 l 1
 284 253 l 1
 166 253 l 1
 166 0 l 1
 53 0 l 1
 53 606 l 1
166 353 m 1
 291 353 l 2
 346 353 370 383 370 433 c 0
 370 477 347 506 295 506 c 2
 166 506 l 1
 166 353 l 1
EndSplineSet
Position2: "'cpsp' Capital Spacing lookup 0 subtable" dx=5 dy=0 dh=10 dv=0
EndChar

StartChar: Racute
Encoding: 340 340 88
Width: 523
GlyphClass: 2
Flags: W
HStem: 0 21G<53 166 377.016 507> 253 100<166 284> 506 100<166 350.264>
VStem: 53 113<0 253 353 506> 370 122<372.189 487.769>
LayerCount: 2
Fore
SplineSet
288 664 m 1
 201 664 l 1
 277 781 l 1
 383 781 l 1
 384 778 l 1
 288 664 l 1
53 606 m 1
 307 606 l 2
 430 606 492 533 492 433 c 0
 492 360 453 303 391 278 c 1
 507 0 l 1
 385 0 l 1
 284 253 l 1
 166 253 l 1
 166 0 l 1
 53 0 l 1
 53 606 l 1
166 353 m 1
 291 353 l 2
 346 353 370 383 370 433 c 0
 370 477 347 506 295 506 c 2
 166 506 l 1
 166 353 l 1
EndSplineSet
Position2: "'cpsp' Capital Spacing lookup 0 subtable" dx=5 dy=0 dh=10 dv=0
EndChar

StartChar: Rcaron
Encoding: 344 344 89
Width: 523
GlyphClass: 2
Flags: W
HStem: 0 21G<53 166 377.016 507> 253 100<166 284> 506 100<166 350.264>
VStem: 53 113<0 253 353 506> 370 122<372.189 487.769>
LayerCount: 2
Fore
SplineSet
219 661 m 1
 143 781 l 1
 222 781 l 1
 262 720 l 1
 301 781 l 1
 381 781 l 1
 306 661 l 1
 219 661 l 1
53 606 m 1
 307 606 l 2
 430 606 492 533 492 433 c 0
 492 360 453 303 391 278 c 1
 507 0 l 1
 385 0 l 1
 284 253 l 1
 166 253 l 1
 166 0 l 1
 53 0 l 1
 53 606 l 1
166 353 m 1
 291 353 l 2
 346 353 370 383 370 433 c 0
 370 477 347 506 295 506 c 2
 166 506 l 1
 166 353 l 1
EndSplineSet
Position2: "'cpsp' Capital Spacing lookup 0 subtable" dx=5 dy=0 dh=10 dv=0
EndChar

StartChar: Rcommaaccent
Encoding: 342 342 90
Width: 523
GlyphClass: 2
Flags: W
HStem: -157 108<207 250> 0 21G<53 166 377.016 507> 253 100<166 284> 506 100<166 350.264>
VStem: 53 113<0 253 353 506> 207 109<-148 -49> 370 122<372.189 487.769>
LayerCount: 2
Fore
SplineSet
53 606 m 1
 307 606 l 2
 430 606 492 533 492 433 c 0
 492 360 453 303 391 278 c 1
 507 0 l 1
 385 0 l 1
 284 253 l 1
 166 253 l 1
 166 0 l 1
 53 0 l 1
 53 606 l 1
166 353 m 1
 291 353 l 2
 346 353 370 383 370 433 c 0
 370 477 347 506 295 506 c 2
 166 506 l 1
 166 353 l 1
276 -232 m 1
 219 -232 l 1
 250 -157 l 1
 207 -157 l 1
 207 -49 l 1
 316 -49 l 1
 316 -148 l 1
 276 -232 l 1
EndSplineSet
Position2: "'cpsp' Capital Spacing lookup 0 subtable" dx=5 dy=0 dh=10 dv=0
EndChar

StartChar: S
Encoding: 83 83 91
Width: 484
GlyphClass: 2
Flags: W
HStem: -11 98<175.646 309.387> 520 97<176.568 299.465>
VStem: 27 117<118.968 197> 39 117<408.628 501.19> 323 115<428 495.735> 333 117<110.354 211.131>
AnchorPoint: "Anchor-1" 242 0 basechar 0
AnchorPoint: "Anchor-0" 242 606 basechar 0
LayerCount: 2
Fore
SplineSet
241 617 m 0xd4
 349 617 438 563 438 438 c 2
 438 428 l 1
 323 428 l 1
 323 436 l 2
 323 487 292 520 240 520 c 0
 186 520 156 492 156 455 c 0xd8
 156 332 450 405 450 182 c 0
 450 43 362 -11 236 -11 c 0
 125 -11 27 53 27 178 c 2
 27 197 l 1
 145 197 l 1
 144 183 l 1xe4
 144 126 179 87 241 87 c 0
 309 87 333 123 333 158 c 0
 333 302 39 217 39 447 c 0
 39 562 134 617 241 617 c 0xd4
EndSplineSet
Position2: "'cpsp' Capital Spacing lookup 0 subtable" dx=5 dy=0 dh=10 dv=0
EndChar

StartChar: Sacute
Encoding: 346 346 92
Width: 484
GlyphClass: 2
Flags: W
HStem: -11 98<175.646 309.387> 520 97<176.568 299.465>
VStem: 27 117<118.968 197> 39 117<408.628 501.19> 323 115<428 495.735> 333 117<110.354 211.131>
LayerCount: 2
Fore
SplineSet
269 664 m 1xc0
 181 664 l 1
 257 781 l 1
 363 781 l 1
 364 778 l 1
 269 664 l 1xc0
241 617 m 0
 349 617 438 563 438 438 c 2
 438 428 l 1
 323 428 l 1
 323 436 l 2
 323 487 292 520 240 520 c 0
 186 520 156 492 156 455 c 0xd8
 156 332 450 405 450 182 c 0
 450 43 362 -11 236 -11 c 0
 125 -11 27 53 27 178 c 2
 27 197 l 1
 145 197 l 1
 144 183 l 1xe4
 144 126 179 87 241 87 c 0
 309 87 333 123 333 158 c 0
 333 302 39 217 39 447 c 0xd4
 39 562 134 617 241 617 c 0
EndSplineSet
Position2: "'cpsp' Capital Spacing lookup 0 subtable" dx=5 dy=0 dh=10 dv=0
EndChar

StartChar: Scaron
Encoding: 352 352 93
Width: 484
GlyphClass: 2
Flags: W
HStem: -11 98<175.646 309.387> 520 97<176.568 299.465>
VStem: 27 117<118.968 197> 39 117<408.628 501.19> 323 115<428 495.735> 333 117<110.354 211.131>
LayerCount: 2
Fore
SplineSet
123 781 m 1xc0
 202 781 l 1
 242 720 l 1
 281 781 l 1
 361 781 l 1
 286 661 l 1
 199 661 l 1
 123 781 l 1xc0
241 617 m 0
 349 617 438 563 438 438 c 2
 438 428 l 1
 323 428 l 1
 323 436 l 2
 323 487 292 520 240 520 c 0
 186 520 156 492 156 455 c 0xd8
 156 332 450 405 450 182 c 0
 450 43 362 -11 236 -11 c 0
 125 -11 27 53 27 178 c 2
 27 197 l 1
 145 197 l 1
 144 183 l 1xe4
 144 126 179 87 241 87 c 0
 309 87 333 123 333 158 c 0
 333 302 39 217 39 447 c 0xd4
 39 562 134 617 241 617 c 0
EndSplineSet
Position2: "'cpsp' Capital Spacing lookup 0 subtable" dx=5 dy=0 dh=10 dv=0
EndChar

StartChar: Scedilla
Encoding: 350 350 94
Width: 484
GlyphClass: 2
Flags: W
HStem: -161 50<157.036 249.98> -154 43<156 229.826> -10 97<179 199 259 309.241> 520 97<176.568 299.465>
VStem: 27 117<120.273 197> 39 117<408.628 501.19> 251 76<-109.873 -68.6409> 323 115<428 495.735> 333 117<109.986 211.131>
LayerCount: 2
Fore
SplineSet
241 617 m 0xb480
 349 617 438 563 438 438 c 2
 438 428 l 1
 323 428 l 1
 323 436 l 2xb5
 323 487 292 520 240 520 c 0
 186 520 156 492 156 455 c 0
 156 332 450 405 450 182 c 0
 450 52 372 -3 259 -10 c 1
 257 -29 l 1
 295 -32 327 -49 327 -89 c 0
 327 -149 269 -161 231 -161 c 0xb680
 206 -161 178 -158 156 -154 c 1
 156 -111 l 1x7680
 219 -111 l 2
 239 -111 251 -106 251 -89 c 0
 251 -75 244 -68 221 -68 c 2
 192 -68 l 1
 199 -8 l 1
 103 4 27 66 27 178 c 2
 27 197 l 1
 145 197 l 1
 144 183 l 1xba
 144 126 179 87 241 87 c 0
 309 87 333 123 333 158 c 0
 333 302 39 217 39 447 c 0
 39 562 134 617 241 617 c 0xb480
EndSplineSet
Substitution2: "'locl' Localized Forms in Latin lookup 5 subtable" Scommaaccent
Substitution2: "'locl' Localized Forms in Latin lookup 4 subtable" Scommaaccent
Substitution2: "'aalt' Access All Alternates lookup 0 subtable" Scommaaccent
Position2: "'cpsp' Capital Spacing lookup 0 subtable" dx=5 dy=0 dh=10 dv=0
EndChar

StartChar: Scircumflex
Encoding: 348 348 95
Width: 484
GlyphClass: 2
Flags: W
HStem: -11 98<175.646 309.387> 520 97<176.568 299.465>
VStem: 27 117<118.968 197> 39 117<408.628 501.19> 323 115<428 495.735> 333 117<110.354 211.131>
LayerCount: 2
Fore
SplineSet
242 722 m 1xc0
 202 661 l 1
 123 661 l 1
 199 781 l 1
 286 781 l 1
 361 661 l 1
 281 661 l 1
 242 722 l 1xc0
241 617 m 0
 349 617 438 563 438 438 c 2
 438 428 l 1
 323 428 l 1
 323 436 l 2
 323 487 292 520 240 520 c 0
 186 520 156 492 156 455 c 0xd8
 156 332 450 405 450 182 c 0
 450 43 362 -11 236 -11 c 0
 125 -11 27 53 27 178 c 2
 27 197 l 1
 145 197 l 1
 144 183 l 1xe4
 144 126 179 87 241 87 c 0
 309 87 333 123 333 158 c 0
 333 302 39 217 39 447 c 0xd4
 39 562 134 617 241 617 c 0
EndSplineSet
Position2: "'cpsp' Capital Spacing lookup 0 subtable" dx=5 dy=0 dh=10 dv=0
EndChar

StartChar: Scommaaccent
Encoding: 536 536 96
Width: 484
GlyphClass: 2
Flags: W
HStem: -157 108<187 231> -11 98<175.646 309.387> 520 97<176.568 299.465>
VStem: 27 117<118.968 197> 39 117<408.628 501.19> 187 110<-148 -49> 323 115<428 495.735> 333 117<110.354 211.131>
AnchorPoint: "Anchor-1" 242 0 basechar 0
AnchorPoint: "Anchor-0" 242 606 basechar 0
LayerCount: 2
Fore
SplineSet
241 617 m 0xed
 349 617 438 563 438 438 c 2
 438 428 l 1
 323 428 l 1
 323 436 l 2
 323 487 292 520 240 520 c 0
 186 520 156 492 156 455 c 0xee
 156 332 450 405 450 182 c 0
 450 43 362 -11 236 -11 c 0
 125 -11 27 53 27 178 c 2
 27 197 l 1
 145 197 l 1
 144 183 l 1xf5
 144 126 179 87 241 87 c 0
 309 87 333 123 333 158 c 0
 333 302 39 217 39 447 c 0
 39 562 134 617 241 617 c 0xed
199 -232 m 1
 231 -157 l 1
 187 -157 l 1
 187 -49 l 1
 297 -49 l 1
 297 -148 l 1
 256 -232 l 1
 199 -232 l 1
EndSplineSet
Position2: "'cpsp' Capital Spacing lookup 0 subtable" dx=5 dy=0 dh=10 dv=0
EndChar

StartChar: T
Encoding: 84 84 97
Width: 443
GlyphClass: 2
Flags: W
HStem: 0 21G<165 278> 506 100<15 165 278 429>
VStem: 165 113<0 506>
AnchorPoint: "Anchor-1" 222 0 basechar 0
AnchorPoint: "Anchor-0" 222 606 basechar 0
LayerCount: 2
Fore
SplineSet
278 506 m 1
 278 0 l 1
 165 0 l 1
 165 506 l 1
 15 506 l 1
 15 606 l 1
 429 606 l 1
 429 506 l 1
 278 506 l 1
EndSplineSet
Position2: "'cpsp' Capital Spacing lookup 0 subtable" dx=5 dy=0 dh=10 dv=0
EndChar

StartChar: Tbar
Encoding: 358 358 98
Width: 443
GlyphClass: 2
Flags: W
HStem: 0 21G<165 278> 271 76<65 165 278 377> 506 100<15 165 278 429>
VStem: 165 113<0 271 347 506>
LayerCount: 2
Fore
SplineSet
278 506 m 1
 278 347 l 1
 377 347 l 1
 377 271 l 1
 278 271 l 1
 278 0 l 1
 165 0 l 1
 165 271 l 1
 65 271 l 1
 65 347 l 1
 165 347 l 1
 165 506 l 1
 15 506 l 1
 15 606 l 1
 429 606 l 1
 429 506 l 1
 278 506 l 1
EndSplineSet
Position2: "'cpsp' Capital Spacing lookup 0 subtable" dx=5 dy=0 dh=10 dv=0
EndChar

StartChar: Tcaron
Encoding: 356 356 99
Width: 443
GlyphClass: 2
Flags: W
HStem: 0 21G<165 278> 506 100<15 165 278 429>
VStem: 165 113<0 506>
LayerCount: 2
Fore
SplineSet
179 661 m 1
 103 781 l 1
 182 781 l 1
 222 720 l 1
 261 781 l 1
 340 781 l 1
 265 661 l 1
 179 661 l 1
278 506 m 1
 278 0 l 1
 165 0 l 1
 165 506 l 1
 15 506 l 1
 15 606 l 1
 429 606 l 1
 429 506 l 1
 278 506 l 1
EndSplineSet
Position2: "'cpsp' Capital Spacing lookup 0 subtable" dx=5 dy=0 dh=10 dv=0
EndChar

StartChar: Tcedilla
Encoding: 354 354 100
Width: 443
GlyphClass: 2
Flags: W
HStem: -161 50<136.989 228.98> -154 43<136 208.826> 506 100<15 165 278 429>
VStem: 165 113<0 506> 180 57<-32.2234 0> 230 76<-109.921 -68.6409>
AnchorPoint: "Anchor-1" 222 0 basechar 0
AnchorPoint: "Anchor-0" 222 606 basechar 0
LayerCount: 2
Fore
SplineSet
240 0 m 1xb0
 237 -29 l 1xa8
 275 -32 306 -49 306 -89 c 0
 306 -149 248 -161 210 -161 c 0xa4
 185 -161 157 -158 136 -154 c 1
 136 -111 l 1x64
 199 -111 l 2
 218 -111 230 -106 230 -89 c 0xa4
 230 -75 223 -68 200 -68 c 2
 171 -68 l 1
 180 0 l 1xa8
 165 0 l 1
 165 506 l 1
 15 506 l 1
 15 606 l 1
 429 606 l 1
 429 506 l 1
 278 506 l 1
 278 0 l 1
 240 0 l 1xb0
EndSplineSet
Substitution2: "'locl' Localized Forms in Latin lookup 5 subtable" Tcommaaccent
Substitution2: "'locl' Localized Forms in Latin lookup 4 subtable" Tcommaaccent
Substitution2: "'aalt' Access All Alternates lookup 0 subtable" Tcommaaccent
Position2: "'cpsp' Capital Spacing lookup 0 subtable" dx=5 dy=0 dh=10 dv=0
EndChar

StartChar: Tcommaaccent
Encoding: 538 538 101
Width: 443
GlyphClass: 2
Flags: W
HStem: -157 108<167 210> 0 21G<165 278> 506 100<15 165 278 429>
VStem: 165 113<-148 -49 0 506>
LayerCount: 2
Fore
SplineSet
278 506 m 1
 278 0 l 1
 165 0 l 1
 165 506 l 1
 15 506 l 1
 15 606 l 1
 429 606 l 1
 429 506 l 1
 278 506 l 1
236 -232 m 1
 179 -232 l 1
 210 -157 l 1
 167 -157 l 1
 167 -49 l 1
 276 -49 l 1
 276 -148 l 1
 236 -232 l 1
EndSplineSet
Position2: "'cpsp' Capital Spacing lookup 0 subtable" dx=5 dy=0 dh=10 dv=0
EndChar

StartChar: U
Encoding: 85 85 102
Width: 523
GlyphClass: 2
Flags: W
HStem: -11 98<199.076 324.924> 586 20G<54 167 357 470>
VStem: 54 113<122.434 606> 357 113<122.434 606>
AnchorPoint: "Anchor-1" 0 0 basechar 0
AnchorPoint: "Anchor-0" 262 606 basechar 0
LayerCount: 2
Fore
SplineSet
470 606 m 1
 470 190 l 2
 470 58 392 -11 262 -11 c 0
 132 -11 54 58 54 190 c 2
 54 606 l 1
 167 606 l 1
 167 194 l 2
 167 124 202 87 262 87 c 0
 322 87 357 124 357 194 c 2
 357 606 l 1
 470 606 l 1
EndSplineSet
Position2: "'cpsp' Capital Spacing lookup 0 subtable" dx=5 dy=0 dh=10 dv=0
EndChar

StartChar: Uacute
Encoding: 218 218 103
Width: 523
GlyphClass: 2
Flags: W
HStem: -11 98<199.076 324.924> 586 20G<54 167 357 470>
VStem: 54 113<122.434 606> 357 113<122.434 606>
LayerCount: 2
Fore
SplineSet
288 664 m 1
 201 664 l 1
 277 781 l 1
 383 781 l 1
 384 778 l 1
 288 664 l 1
470 606 m 1
 470 190 l 2
 470 58 392 -11 262 -11 c 0
 132 -11 54 58 54 190 c 2
 54 606 l 1
 167 606 l 1
 167 194 l 2
 167 124 202 87 262 87 c 0
 322 87 357 124 357 194 c 2
 357 606 l 1
 470 606 l 1
EndSplineSet
Position2: "'cpsp' Capital Spacing lookup 0 subtable" dx=5 dy=0 dh=10 dv=0
EndChar

StartChar: Ubreve
Encoding: 364 364 104
Width: 523
GlyphClass: 2
Flags: W
HStem: -11 98<199.076 324.924> 586 20G<54 167 357 470> 686 65<214.008 310.695>
VStem: 54 113<122.434 606> 144 66<757.633 781> 314 66<757.633 781> 357 113<122.434 606>
LayerCount: 2
Fore
SplineSet
314 781 m 1xec
 380 781 l 1
 380 736 334 686 261 686 c 0
 188 686 144 736 144 781 c 1
 210 781 l 1
 212 768 232 751 261 751 c 0
 292 751 313 768 314 781 c 1xec
470 606 m 1xf2
 470 190 l 2
 470 58 392 -11 262 -11 c 0
 132 -11 54 58 54 190 c 2
 54 606 l 1
 167 606 l 1
 167 194 l 2
 167 124 202 87 262 87 c 0
 322 87 357 124 357 194 c 2
 357 606 l 1
 470 606 l 1xf2
EndSplineSet
Position2: "'cpsp' Capital Spacing lookup 0 subtable" dx=5 dy=0 dh=10 dv=0
EndChar

StartChar: Ucircumflex
Encoding: 219 219 105
Width: 523
GlyphClass: 2
Flags: W
HStem: -11 98<199.076 324.924> 586 20G<54 167 357 470>
VStem: 54 113<122.434 606> 357 113<122.434 606>
LayerCount: 2
Fore
SplineSet
301 661 m 1
 262 722 l 1
 222 661 l 1
 143 661 l 1
 219 781 l 1
 306 781 l 1
 381 661 l 1
 301 661 l 1
470 606 m 1
 470 190 l 2
 470 58 392 -11 262 -11 c 0
 132 -11 54 58 54 190 c 2
 54 606 l 1
 167 606 l 1
 167 194 l 2
 167 124 202 87 262 87 c 0
 322 87 357 124 357 194 c 2
 357 606 l 1
 470 606 l 1
EndSplineSet
Position2: "'cpsp' Capital Spacing lookup 0 subtable" dx=5 dy=0 dh=10 dv=0
EndChar

StartChar: Udieresis
Encoding: 220 220 106
Width: 523
GlyphClass: 2
Flags: W
HStem: -11 98<199.076 324.924> 586 20G<54 167 357 470> 684 97<141 229 294 384>
VStem: 54 113<122.434 606> 141 88<684 781> 294 90<684 781> 357 113<122.434 606>
LayerCount: 2
Fore
SplineSet
141 684 m 1xe8
 141 781 l 1
 229 781 l 1
 229 684 l 1
 141 684 l 1xe8
294 684 m 1xe4
 294 781 l 1
 384 781 l 1
 384 684 l 1
 294 684 l 1xe4
470 606 m 1xf2
 470 190 l 2
 470 58 392 -11 262 -11 c 0
 132 -11 54 58 54 190 c 2
 54 606 l 1
 167 606 l 1
 167 194 l 2
 167 124 202 87 262 87 c 0
 322 87 357 124 357 194 c 2
 357 606 l 1
 470 606 l 1xf2
EndSplineSet
Position2: "'cpsp' Capital Spacing lookup 0 subtable" dx=5 dy=0 dh=10 dv=0
EndChar

StartChar: Ugrave
Encoding: 217 217 107
Width: 523
GlyphClass: 2
Flags: W
HStem: -11 98<199.076 324.924> 586 20G<54 167 357 470>
VStem: 54 113<122.434 606> 357 113<122.434 606>
LayerCount: 2
Fore
SplineSet
235 664 m 1
 140 778 l 1
 141 781 l 1
 247 781 l 1
 323 664 l 1
 235 664 l 1
470 606 m 1
 470 190 l 2
 470 58 392 -11 262 -11 c 0
 132 -11 54 58 54 190 c 2
 54 606 l 1
 167 606 l 1
 167 194 l 2
 167 124 202 87 262 87 c 0
 322 87 357 124 357 194 c 2
 357 606 l 1
 470 606 l 1
EndSplineSet
Position2: "'cpsp' Capital Spacing lookup 0 subtable" dx=5 dy=0 dh=10 dv=0
EndChar

StartChar: Uhungarumlaut
Encoding: 368 368 108
Width: 523
GlyphClass: 2
Flags: W
HStem: -11 98<199.076 324.924> 586 20G<54 167 357 470>
VStem: 54 113<122.434 606> 357 113<122.434 606>
LayerCount: 2
Fore
SplineSet
232 664 m 1
 162 664 l 1
 217 781 l 1
 305 781 l 1
 306 778 l 1
 232 664 l 1
355 664 m 1
 286 664 l 1
 340 781 l 1
 429 781 l 1
 430 778 l 1
 355 664 l 1
470 606 m 1
 470 190 l 2
 470 58 392 -11 262 -11 c 0
 132 -11 54 58 54 190 c 2
 54 606 l 1
 167 606 l 1
 167 194 l 2
 167 124 202 87 262 87 c 0
 322 87 357 124 357 194 c 2
 357 606 l 1
 470 606 l 1
EndSplineSet
Position2: "'cpsp' Capital Spacing lookup 0 subtable" dx=5 dy=0 dh=10 dv=0
EndChar

StartChar: Umacron
Encoding: 362 362 109
Width: 523
GlyphClass: 2
Flags: W
HStem: -11 98<199.076 324.924> 586 20G<54 167 357 470> 671 77<149 375>
VStem: 54 113<122.434 606> 357 113<122.434 606>
LayerCount: 2
Fore
SplineSet
149 671 m 1
 149 748 l 1
 375 748 l 1
 375 671 l 1
 149 671 l 1
470 606 m 1
 470 190 l 2
 470 58 392 -11 262 -11 c 0
 132 -11 54 58 54 190 c 2
 54 606 l 1
 167 606 l 1
 167 194 l 2
 167 124 202 87 262 87 c 0
 322 87 357 124 357 194 c 2
 357 606 l 1
 470 606 l 1
EndSplineSet
Position2: "'cpsp' Capital Spacing lookup 0 subtable" dx=5 dy=0 dh=10 dv=0
EndChar

StartChar: Uogonek
Encoding: 370 370 110
Width: 523
GlyphClass: 2
Flags: W
HStem: -164 61<336.01 390.018> -151 48<336.01 391> -11 98<200.162 267.551> 586 20G<54 167 357 470>
VStem: 54 113<122.114 606> 245 86<-98.2928 -15.8256> 357 113<121.501 606>
LayerCount: 2
Fore
SplineSet
470 606 m 1xbe
 470 197 l 2
 470 97 430 32 358 4 c 1
 347 -8 331 -33 331 -57 c 0
 331 -80 342 -103 371 -103 c 2xbe
 391 -103 l 1
 391 -151 l 1x7e
 370 -159 352 -164 332 -164 c 0
 292 -164 245 -145 245 -84 c 0
 245 -53 256 -30 270 -11 c 1
 262 -11 l 2
 132 -11 54 61 54 197 c 2
 54 606 l 1
 167 606 l 1
 167 201 l 2
 167 126 202 87 262 87 c 0
 322 87 357 126 357 201 c 2
 357 606 l 1
 470 606 l 1xbe
EndSplineSet
Position2: "'cpsp' Capital Spacing lookup 0 subtable" dx=5 dy=0 dh=10 dv=0
EndChar

StartChar: Uring
Encoding: 366 366 111
Width: 523
GlyphClass: 2
Flags: W
HStem: -11 98<199.076 324.924> 586 20G<54 167 357 470> 637 45<225.49 297.306> 763 44<226.436 297.079>
VStem: 54 113<122.434 606> 177 44<686.605 757.564> 302 45<686.601 758.51> 357 113<122.434 606>
LayerCount: 2
Fore
SplineSet
262 807 m 0
 309 807 347 768 347 722 c 0
 347 675 309 637 262 637 c 0
 216 637 177 674 177 722 c 0
 177 769 215 807 262 807 c 0
262 763 m 0
 239 763 221 745 221 722 c 0
 221 699 239 682 262 682 c 0
 284 682 302 699 302 722 c 0
 302 745 284 763 262 763 c 0
470 606 m 1
 470 190 l 2
 470 58 392 -11 262 -11 c 0
 132 -11 54 58 54 190 c 2
 54 606 l 1
 167 606 l 1
 167 194 l 2
 167 124 202 87 262 87 c 0
 322 87 357 124 357 194 c 2
 357 606 l 1
 470 606 l 1
EndSplineSet
Position2: "'cpsp' Capital Spacing lookup 0 subtable" dx=5 dy=0 dh=10 dv=0
EndChar

StartChar: Utilde
Encoding: 360 360 112
Width: 523
GlyphClass: 2
Flags: W
HStem: -11 98<199.076 324.924> 586 20G<54 167 357 470> 673 75<249.255 348.114> 705 76<173.529 272.335>
VStem: 54 113<122.434 606> 113 58<673 703.132> 352 58<750.481 781> 357 113<122.434 606>
LayerCount: 2
Fore
SplineSet
352 781 m 1xd6
 410 781 l 1xd6
 410 732 385 673 323 673 c 0xe6
 280 673 246 705 206 705 c 0xd6
 187 705 175 697 171 673 c 1
 113 673 l 1xe6
 113 721 138 781 200 781 c 0xd6
 243 781 278 748 317 748 c 0xe6
 336 748 348 756 352 781 c 1xd6
470 606 m 1xc9
 470 190 l 2
 470 58 392 -11 262 -11 c 0
 132 -11 54 58 54 190 c 2
 54 606 l 1
 167 606 l 1
 167 194 l 2
 167 124 202 87 262 87 c 0
 322 87 357 124 357 194 c 2
 357 606 l 1
 470 606 l 1xc9
EndSplineSet
Position2: "'cpsp' Capital Spacing lookup 0 subtable" dx=5 dy=0 dh=10 dv=0
EndChar

StartChar: V
Encoding: 86 86 113
Width: 484
GlyphClass: 2
Flags: W
HStem: 0 21G<178.894 305.106> 586 20G<0 122.853 367.24 484>
LayerCount: 2
Fore
SplineSet
0 606 m 1
 117 606 l 1
 244 172 l 1
 248 172 l 1
 373 606 l 1
 484 606 l 1
 299 0 l 1
 185 0 l 1
 0 606 l 1
EndSplineSet
Position2: "'cpsp' Capital Spacing lookup 0 subtable" dx=5 dy=0 dh=10 dv=0
EndChar

StartChar: W
Encoding: 87 87 114
Width: 684
GlyphClass: 2
Flags: W
HStem: 0 21G<127.644 250.197 433.699 556.323> 586 20G<0 115.914 281.032 416.861 582.032 683>
AnchorPoint: "Anchor-1" 0 0 basechar 0
AnchorPoint: "Anchor-0" 342 606 basechar 0
LayerCount: 2
Fore
SplineSet
438 0 m 1
 355 386 l 2
 348 417 343 472 343 472 c 1
 339 472 l 1
 339 472 332 412 327 386 c 2
 246 0 l 1
 132 0 l 1
 0 606 l 1
 112 606 l 1
 185 233 l 2
 190 207 196 149 196 149 c 1
 200 149 l 1
 200 149 206 208 211 233 c 2
 285 606 l 1
 413 606 l 1
 485 233 l 2
 490 210 497 149 497 149 c 1
 500 149 l 1
 500 149 506 203 512 233 c 2
 586 606 l 1
 683 606 l 1
 552 0 l 1
 438 0 l 1
EndSplineSet
Position2: "'cpsp' Capital Spacing lookup 0 subtable" dx=5 dy=0 dh=10 dv=0
EndChar

StartChar: Wacute
Encoding: 7810 7810 115
Width: 684
GlyphClass: 2
Flags: W
HStem: 0 21G<127.644 250.197 433.699 556.323> 586 20G<0 115.914 281.032 416.861 582.032 683>
LayerCount: 2
Fore
SplineSet
369 664 m 1
 281 664 l 1
 357 781 l 1
 463 781 l 1
 464 778 l 1
 369 664 l 1
438 0 m 1
 355 386 l 2
 348 417 343 472 343 472 c 1
 339 472 l 1
 339 472 332 412 327 386 c 2
 246 0 l 1
 132 0 l 1
 0 606 l 1
 112 606 l 1
 185 233 l 2
 190 207 196 149 196 149 c 1
 200 149 l 1
 200 149 206 208 211 233 c 2
 285 606 l 1
 413 606 l 1
 485 233 l 2
 490 210 497 149 497 149 c 1
 500 149 l 1
 500 149 506 203 512 233 c 2
 586 606 l 1
 683 606 l 1
 552 0 l 1
 438 0 l 1
EndSplineSet
Position2: "'cpsp' Capital Spacing lookup 0 subtable" dx=5 dy=0 dh=10 dv=0
EndChar

StartChar: Wcircumflex
Encoding: 372 372 116
Width: 684
GlyphClass: 2
Flags: W
HStem: 0 21G<127.644 250.197 433.699 556.323> 586 20G<0 115.914 281.032 416.861 582.032 683>
LayerCount: 2
Fore
SplineSet
343 722 m 1
 303 661 l 1
 224 661 l 1
 300 781 l 1
 386 781 l 1
 461 661 l 1
 382 661 l 1
 343 722 l 1
438 0 m 1
 355 386 l 2
 348 417 343 472 343 472 c 1
 339 472 l 1
 339 472 332 412 327 386 c 2
 246 0 l 1
 132 0 l 1
 0 606 l 1
 112 606 l 1
 185 233 l 2
 190 207 196 149 196 149 c 1
 200 149 l 1
 200 149 206 208 211 233 c 2
 285 606 l 1
 413 606 l 1
 485 233 l 2
 490 210 497 149 497 149 c 1
 500 149 l 1
 500 149 506 203 512 233 c 2
 586 606 l 1
 683 606 l 1
 552 0 l 1
 438 0 l 1
EndSplineSet
Position2: "'cpsp' Capital Spacing lookup 0 subtable" dx=5 dy=0 dh=10 dv=0
EndChar

StartChar: Wdieresis
Encoding: 7812 7812 117
Width: 684
GlyphClass: 2
Flags: W
HStem: 0 21G<127.644 250.197 433.699 556.323> 586 20G<0 115.914 281.032 416.861 582.032 683> 684 97<221 309 376 464>
VStem: 221 88<684 781> 376 88<684 781>
LayerCount: 2
Fore
SplineSet
221 684 m 1
 221 781 l 1
 309 781 l 1
 309 684 l 1
 221 684 l 1
376 684 m 1
 376 781 l 1
 464 781 l 1
 464 684 l 1
 376 684 l 1
438 0 m 1
 355 386 l 2
 348 417 343 472 343 472 c 1
 339 472 l 1
 339 472 332 412 327 386 c 2
 246 0 l 1
 132 0 l 1
 0 606 l 1
 112 606 l 1
 185 233 l 2
 190 207 196 149 196 149 c 1
 200 149 l 1
 200 149 206 208 211 233 c 2
 285 606 l 1
 413 606 l 1
 485 233 l 2
 490 210 497 149 497 149 c 1
 500 149 l 1
 500 149 506 203 512 233 c 2
 586 606 l 1
 683 606 l 1
 552 0 l 1
 438 0 l 1
EndSplineSet
Position2: "'cpsp' Capital Spacing lookup 0 subtable" dx=5 dy=0 dh=10 dv=0
EndChar

StartChar: Wgrave
Encoding: 7808 7808 118
Width: 684
GlyphClass: 2
Flags: W
HStem: 0 21G<127.644 250.197 433.699 556.323> 586 20G<0 115.914 281.032 416.861 582.032 683>
LayerCount: 2
Fore
SplineSet
316 664 m 1
 220 778 l 1
 221 781 l 1
 327 781 l 1
 403 664 l 1
 316 664 l 1
438 0 m 1
 355 386 l 2
 348 417 343 472 343 472 c 1
 339 472 l 1
 339 472 332 412 327 386 c 2
 246 0 l 1
 132 0 l 1
 0 606 l 1
 112 606 l 1
 185 233 l 2
 190 207 196 149 196 149 c 1
 200 149 l 1
 200 149 206 208 211 233 c 2
 285 606 l 1
 413 606 l 1
 485 233 l 2
 490 210 497 149 497 149 c 1
 500 149 l 1
 500 149 506 203 512 233 c 2
 586 606 l 1
 683 606 l 1
 552 0 l 1
 438 0 l 1
EndSplineSet
Position2: "'cpsp' Capital Spacing lookup 0 subtable" dx=5 dy=0 dh=10 dv=0
EndChar

StartChar: X
Encoding: 88 88 119
Width: 484
GlyphClass: 2
Flags: W
HStem: 0 21G<0 128.218 346.694 483> 586 20G<16 152.303 338.798 467>
LayerCount: 2
Fore
SplineSet
483 0 m 1
 357 0 l 1
 239 229 l 1
 235 229 l 1
 118 0 l 1
 0 0 l 1
 171 318 l 1
 16 606 l 1
 142 606 l 1
 244 408 l 1
 248 408 l 1
 349 606 l 1
 467 606 l 1
 310 320 l 1
 483 0 l 1
EndSplineSet
Position2: "'cpsp' Capital Spacing lookup 0 subtable" dx=5 dy=0 dh=10 dv=0
EndChar

StartChar: Y
Encoding: 89 89 120
Width: 484
GlyphClass: 2
Flags: W
HStem: 0 21G<186 299> 586 20G<0 128.323 360.752 484>
VStem: 186 113<0 229>
AnchorPoint: "Anchor-1" 0 0 basechar 0
AnchorPoint: "Anchor-0" 242 606 basechar 0
LayerCount: 2
Fore
SplineSet
186 0 m 1
 186 229 l 1
 0 606 l 1
 119 606 l 1
 243 340 l 1
 247 340 l 1
 370 606 l 1
 484 606 l 1
 299 229 l 1
 299 0 l 1
 186 0 l 1
EndSplineSet
Position2: "'cpsp' Capital Spacing lookup 0 subtable" dx=5 dy=0 dh=10 dv=0
EndChar

StartChar: Yacute
Encoding: 221 221 121
Width: 484
GlyphClass: 2
Flags: W
HStem: 0 21G<186 299> 586 20G<0 128.323 360.752 484>
VStem: 186 113<0 229>
LayerCount: 2
Fore
SplineSet
269 664 m 1
 181 664 l 1
 257 781 l 1
 363 781 l 1
 364 778 l 1
 269 664 l 1
299 0 m 1
 186 0 l 1
 186 229 l 1
 0 606 l 1
 119 606 l 1
 243 340 l 1
 247 340 l 1
 370 606 l 1
 484 606 l 1
 299 229 l 1
 299 0 l 1
EndSplineSet
Position2: "'cpsp' Capital Spacing lookup 0 subtable" dx=5 dy=0 dh=10 dv=0
EndChar

StartChar: Ycircumflex
Encoding: 374 374 122
Width: 484
GlyphClass: 2
Flags: W
HStem: 0 21G<186 299> 586 20G<0 128.323 360.752 484>
VStem: 186 113<0 229>
LayerCount: 2
Fore
SplineSet
242 722 m 1
 202 661 l 1
 123 661 l 1
 199 781 l 1
 286 781 l 1
 361 661 l 1
 281 661 l 1
 242 722 l 1
186 0 m 1
 186 229 l 1
 0 606 l 1
 119 606 l 1
 243 340 l 1
 247 340 l 1
 370 606 l 1
 484 606 l 1
 299 229 l 1
 299 0 l 1
 186 0 l 1
EndSplineSet
Position2: "'cpsp' Capital Spacing lookup 0 subtable" dx=5 dy=0 dh=10 dv=0
EndChar

StartChar: Ydieresis
Encoding: 376 376 123
Width: 484
GlyphClass: 2
Flags: W
HStem: 0 21G<186 299> 586 20G<0 128.323 360.752 484> 684 97<120 209 275 363>
VStem: 120 89<684 781> 186 113<0 229> 275 88<684 781>
LayerCount: 2
Fore
SplineSet
120 684 m 1xf0
 120 781 l 1
 209 781 l 1
 209 684 l 1
 120 684 l 1xf0
275 684 m 1xe4
 275 781 l 1
 363 781 l 1
 363 684 l 1
 275 684 l 1xe4
299 0 m 1xe8
 186 0 l 1
 186 229 l 1
 0 606 l 1
 119 606 l 1
 243 340 l 1
 247 340 l 1
 370 606 l 1
 484 606 l 1
 299 229 l 1
 299 0 l 1xe8
EndSplineSet
Position2: "'cpsp' Capital Spacing lookup 0 subtable" dx=5 dy=0 dh=10 dv=0
EndChar

StartChar: Ygrave
Encoding: 7922 7922 124
Width: 484
GlyphClass: 2
Flags: W
HStem: 0 21G<186 299> 586 20G<0 128.323 360.752 484>
VStem: 186 113<0 229>
LayerCount: 2
Fore
SplineSet
215 664 m 1
 119 778 l 1
 120 781 l 1
 226 781 l 1
 302 664 l 1
 215 664 l 1
299 0 m 1
 186 0 l 1
 186 229 l 1
 0 606 l 1
 119 606 l 1
 243 340 l 1
 247 340 l 1
 370 606 l 1
 484 606 l 1
 299 229 l 1
 299 0 l 1
EndSplineSet
Position2: "'cpsp' Capital Spacing lookup 0 subtable" dx=5 dy=0 dh=10 dv=0
EndChar

StartChar: Z
Encoding: 90 90 125
Width: 443
GlyphClass: 2
Flags: W
HStem: 0 101<169 424> 506 100<33 263>
AnchorPoint: "Anchor-1" 0 0 basechar 0
AnchorPoint: "Anchor-0" 222 606 basechar 0
LayerCount: 2
Fore
SplineSet
169 101 m 1
 424 101 l 1
 424 0 l 1
 14 0 l 1
 14 43 l 1
 263 506 l 1
 33 506 l 1
 33 606 l 1
 418 606 l 1
 418 562 l 1
 169 101 l 1
EndSplineSet
Position2: "'cpsp' Capital Spacing lookup 0 subtable" dx=5 dy=0 dh=10 dv=0
EndChar

StartChar: Zacute
Encoding: 377 377 126
Width: 443
GlyphClass: 2
Flags: W
HStem: 0 101<169 424> 506 100<33 263>
LayerCount: 2
Fore
SplineSet
248 664 m 1
 161 664 l 1
 237 781 l 1
 343 781 l 1
 344 778 l 1
 248 664 l 1
169 101 m 1
 424 101 l 1
 424 0 l 1
 14 0 l 1
 14 43 l 1
 263 506 l 1
 33 506 l 1
 33 606 l 1
 418 606 l 1
 418 562 l 1
 169 101 l 1
EndSplineSet
Position2: "'cpsp' Capital Spacing lookup 0 subtable" dx=5 dy=0 dh=10 dv=0
EndChar

StartChar: Zcaron
Encoding: 381 381 127
Width: 443
GlyphClass: 2
Flags: W
HStem: 0 101<169 424> 506 100<33 263>
LayerCount: 2
Fore
SplineSet
179 661 m 1
 103 781 l 1
 182 781 l 1
 222 720 l 1
 261 781 l 1
 340 781 l 1
 265 661 l 1
 179 661 l 1
169 101 m 1
 424 101 l 1
 424 0 l 1
 14 0 l 1
 14 43 l 1
 263 506 l 1
 33 506 l 1
 33 606 l 1
 418 606 l 1
 418 562 l 1
 169 101 l 1
EndSplineSet
Position2: "'cpsp' Capital Spacing lookup 0 subtable" dx=5 dy=0 dh=10 dv=0
EndChar

StartChar: Zdotaccent
Encoding: 379 379 128
Width: 443
GlyphClass: 2
Flags: W
HStem: 0 101<169 424> 506 100<33 263> 679 102<174 269>
VStem: 174 95<679 781>
LayerCount: 2
Fore
SplineSet
174 679 m 1
 174 781 l 1
 269 781 l 1
 269 679 l 1
 174 679 l 1
169 101 m 1
 424 101 l 1
 424 0 l 1
 14 0 l 1
 14 43 l 1
 263 506 l 1
 33 506 l 1
 33 606 l 1
 418 606 l 1
 418 562 l 1
 169 101 l 1
EndSplineSet
Position2: "'cpsp' Capital Spacing lookup 0 subtable" dx=5 dy=0 dh=10 dv=0
EndChar

StartChar: a
Encoding: 97 97 129
Width: 403
GlyphClass: 2
Flags: W
HStem: -11 89<106.98 209.08 351.008 395.478> 4 75<351.04 396> 206 77<149.953 243> 389 87<147.906 235.228>
VStem: 12 109<86.1484 178.142> 34 105<327 380.729> 243 107<100.092 206 283 380.161>
AnchorPoint: "Anchor-1" 0 0 basechar 0
AnchorPoint: "Anchor-0" 202 465 basechar 0
LayerCount: 2
Fore
SplineSet
192 476 m 0xb6
 300 476 350 425 350 339 c 2
 350 110 l 2
 350 88 362 79 375 79 c 2
 396 79 l 1
 396 4 l 1x76
 385 -3 365 -11 333 -11 c 0
 291 -11 262 14 251 50 c 1
 247 50 l 1
 220 13 191 -11 129 -11 c 0
 86 -11 12 12 12 120 c 0xba
 12 246 108 283 243 283 c 1
 243 331 l 2
 243 363 235 389 194 389 c 0
 151 389 139 362 139 340 c 2
 139 327 l 1
 35 327 l 1
 34 332 34 339 34 347 c 0
 34 424 96 476 192 476 c 0xb6
243 179 m 2
 243 206 l 1
 181 206 121 190 121 130 c 0
 121 98 137 78 173 78 c 0xba
 224 78 243 125 243 179 c 2
EndSplineSet
Substitution2: "Single Substitution lookup 32 subtable" ordfeminine
Substitution2: "'aalt' Access All Alternates lookup 0 subtable" ordfeminine
EndChar

StartChar: aacute
Encoding: 225 225 130
Width: 403
GlyphClass: 2
Flags: W
HStem: -11 89<106.98 209.08 351.008 395.478> 4 75<351.04 396> 206 77<149.953 243> 389 87<147.906 235.228> 619 20G<194.009 314>
VStem: 12 109<86.1484 178.142> 34 105<327 380.729> 243 107<100.092 206 283 380.161>
LayerCount: 2
Fore
SplineSet
218 522 m 1x39
 131 522 l 1
 207 639 l 1
 313 639 l 1
 314 636 l 1
 218 522 l 1x39
192 476 m 0
 300 476 350 425 350 339 c 2
 350 110 l 2
 350 88 362 79 375 79 c 2
 396 79 l 1
 396 4 l 1x7b
 385 -3 365 -11 333 -11 c 0
 291 -11 262 14 251 50 c 1
 247 50 l 1
 220 13 191 -11 129 -11 c 0
 86 -11 12 12 12 120 c 0xbd
 12 246 108 283 243 283 c 1
 243 331 l 2
 243 363 235 389 194 389 c 0
 151 389 139 362 139 340 c 2
 139 327 l 1
 35 327 l 1
 34 332 34 339 34 347 c 0xbb
 34 424 96 476 192 476 c 0
243 179 m 2
 243 206 l 1
 181 206 121 190 121 130 c 0
 121 98 137 78 173 78 c 0xbd
 224 78 243 125 243 179 c 2
EndSplineSet
EndChar

StartChar: abreve
Encoding: 259 259 131
Width: 403
GlyphClass: 2
Flags: W
HStem: -11 89<106.98 209.08 351.008 395.478> 4 75<351.04 396> 206 77<149.953 243> 389 87<147.906 235.228> 545 65<143.777 240.664> 619 20G<73 141 243 310>
VStem: 12 109<86.1484 178.142> 34 105<327 380.729> 73 67<618.149 639> 243 107<100.092 206 283 380.161> 244 66<618.149 639>
LayerCount: 2
Fore
SplineSet
244 639 m 1x3ca0
 310 639 l 1
 310 595 264 545 191 545 c 0
 118 545 73 595 73 639 c 1
 140 639 l 1
 142 627 163 610 191 610 c 0
 221 610 242 627 244 639 c 1x3ca0
192 476 m 0
 300 476 350 425 350 339 c 2
 350 110 l 2
 350 88 362 79 375 79 c 2
 396 79 l 1
 396 4 l 1x7d40
 385 -3 365 -11 333 -11 c 0
 291 -11 262 14 251 50 c 1
 247 50 l 1
 220 13 191 -11 129 -11 c 0
 86 -11 12 12 12 120 c 0xbe40
 12 246 108 283 243 283 c 1
 243 331 l 2
 243 363 235 389 194 389 c 0
 151 389 139 362 139 340 c 2
 139 327 l 1
 35 327 l 1
 34 332 34 339 34 347 c 0xbd40
 34 424 96 476 192 476 c 0
243 179 m 2
 243 206 l 1
 181 206 121 190 121 130 c 0
 121 98 137 78 173 78 c 0xbe40
 224 78 243 125 243 179 c 2
EndSplineSet
EndChar

StartChar: acircumflex
Encoding: 226 226 132
Width: 403
GlyphClass: 2
Flags: W
HStem: -11 89<106.98 209.08 351.008 395.478> 4 75<351.04 396> 206 77<149.953 243> 389 87<147.906 235.228> 619 20G<136.227 248.605>
VStem: 12 109<86.1484 178.142> 34 105<327 380.729> 243 107<100.092 206 283 380.161>
LayerCount: 2
Fore
SplineSet
192 581 m 1x39
 152 520 l 1
 73 520 l 1
 149 639 l 1
 236 639 l 1
 311 520 l 1
 232 520 l 1
 192 581 l 1x39
192 476 m 0
 300 476 350 425 350 339 c 2
 350 110 l 2
 350 88 362 79 375 79 c 2
 396 79 l 1
 396 4 l 1x7b
 385 -3 365 -11 333 -11 c 0
 291 -11 262 14 251 50 c 1
 247 50 l 1
 220 13 191 -11 129 -11 c 0
 86 -11 12 12 12 120 c 0xbd
 12 246 108 283 243 283 c 1
 243 331 l 2
 243 363 235 389 194 389 c 0
 151 389 139 362 139 340 c 2
 139 327 l 1
 35 327 l 1
 34 332 34 339 34 347 c 0xbb
 34 424 96 476 192 476 c 0
243 179 m 2
 243 206 l 1
 181 206 121 190 121 130 c 0
 121 98 137 78 173 78 c 0xbd
 224 78 243 125 243 179 c 2
EndSplineSet
EndChar

StartChar: adieresis
Encoding: 228 228 133
Width: 403
GlyphClass: 2
Flags: W
HStem: -11 89<106.98 209.08 351.008 395.478> 4 75<351.04 396> 206 77<149.953 243> 389 87<147.906 235.228> 543 96<71 159 225 313>
VStem: 12 109<86.1484 178.142> 34 105<327 380.729> 71 88<543 639> 225 88<543 639> 243 107<100.092 206 283 380.161>
LayerCount: 2
Fore
SplineSet
71 543 m 1x39
 71 639 l 1
 159 639 l 1
 159 543 l 1
 71 543 l 1x39
225 543 m 1x3880
 225 639 l 1
 313 639 l 1
 313 543 l 1
 225 543 l 1x3880
192 476 m 0
 300 476 350 425 350 339 c 2
 350 110 l 2
 350 88 362 79 375 79 c 2
 396 79 l 1
 396 4 l 1x7a40
 385 -3 365 -11 333 -11 c 0
 291 -11 262 14 251 50 c 1
 247 50 l 1
 220 13 191 -11 129 -11 c 0
 86 -11 12 12 12 120 c 0xbc40
 12 246 108 283 243 283 c 1
 243 331 l 2
 243 363 235 389 194 389 c 0
 151 389 139 362 139 340 c 2
 139 327 l 1
 35 327 l 1
 34 332 34 339 34 347 c 0xba40
 34 424 96 476 192 476 c 0
243 179 m 2
 243 206 l 1
 181 206 121 190 121 130 c 0
 121 98 137 78 173 78 c 0xbc40
 224 78 243 125 243 179 c 2
EndSplineSet
EndChar

StartChar: agrave
Encoding: 224 224 134
Width: 403
GlyphClass: 2
Flags: W
HStem: -11 89<106.98 209.08 351.008 395.478> 4 75<351.04 396> 206 77<149.953 243> 389 87<147.906 235.228> 619 20G<70 189.991>
VStem: 12 109<86.1484 178.142> 34 105<327 380.729> 243 107<100.092 206 283 380.161>
LayerCount: 2
Fore
SplineSet
165 522 m 1x39
 70 636 l 1
 71 639 l 1
 177 639 l 1
 253 522 l 1
 165 522 l 1x39
192 476 m 0
 300 476 350 425 350 339 c 2
 350 110 l 2
 350 88 362 79 375 79 c 2
 396 79 l 1
 396 4 l 1x7b
 385 -3 365 -11 333 -11 c 0
 291 -11 262 14 251 50 c 1
 247 50 l 1
 220 13 191 -11 129 -11 c 0
 86 -11 12 12 12 120 c 0xbd
 12 246 108 283 243 283 c 1
 243 331 l 2
 243 363 235 389 194 389 c 0
 151 389 139 362 139 340 c 2
 139 327 l 1
 35 327 l 1
 34 332 34 339 34 347 c 0xbb
 34 424 96 476 192 476 c 0
243 179 m 2
 243 206 l 1
 181 206 121 190 121 130 c 0
 121 98 137 78 173 78 c 0xbd
 224 78 243 125 243 179 c 2
EndSplineSet
EndChar

StartChar: amacron
Encoding: 257 257 135
Width: 403
GlyphClass: 2
Flags: W
HStem: -11 89<106.98 209.08 351.008 395.478> 4 75<351.04 396> 206 77<149.953 243> 389 87<147.906 235.228> 530 76<79 305>
VStem: 12 109<86.1484 178.142> 34 105<327 380.729> 243 107<100.092 206 283 380.161>
LayerCount: 2
Fore
SplineSet
79 606 m 1x39
 305 606 l 1
 305 530 l 1
 79 530 l 1
 79 606 l 1x39
192 476 m 0
 300 476 350 425 350 339 c 2
 350 110 l 2
 350 88 362 79 375 79 c 2
 396 79 l 1
 396 4 l 1x7b
 385 -3 365 -11 333 -11 c 0
 291 -11 262 14 251 50 c 1
 247 50 l 1
 220 13 191 -11 129 -11 c 0
 86 -11 12 12 12 120 c 0xbd
 12 246 108 283 243 283 c 1
 243 331 l 2
 243 363 235 389 194 389 c 0
 151 389 139 362 139 340 c 2
 139 327 l 1
 35 327 l 1
 34 332 34 339 34 347 c 0xbb
 34 424 96 476 192 476 c 0
243 179 m 2
 243 206 l 1
 181 206 121 190 121 130 c 0
 121 98 137 78 173 78 c 0xbd
 224 78 243 125 243 179 c 2
EndSplineSet
EndChar

StartChar: aogonek
Encoding: 261 261 136
Width: 403
GlyphClass: 2
Flags: W
HStem: -164 61<374.292 428.018> -152 49<374.653 429> -11 89<106.98 209.08> 206 77<149.953 243> 389 87<147.906 235.228>
VStem: 12 109<86.1484 178.142> 34 105<327 380.729> 243 107<100.092 206 283 380.161> 283 87<-99.0832 -14.6952>
LayerCount: 2
Fore
SplineSet
429 -103 m 1x7880
 429 -152 l 1x7880
 408 -160 390 -164 370 -164 c 0
 331 -164 283 -146 283 -85 c 0
 283 -50 294 -27 310 -8 c 1
 280 -1 260 21 251 50 c 1
 247 50 l 1
 220 13 191 -11 129 -11 c 0
 86 -11 12 12 12 120 c 0xbc80
 12 246 108 283 243 283 c 1
 243 331 l 2
 243 363 235 389 194 389 c 0
 151 389 139 362 139 340 c 2
 139 327 l 1
 35 327 l 1
 34 332 34 339 34 347 c 0
 34 424 96 476 192 476 c 0
 300 476 350 425 350 339 c 2
 350 110 l 2xbb
 350 88 362 79 375 79 c 2
 396 79 l 1
 396 4 l 1
 386 -9 370 -34 370 -58 c 0
 370 -81 380 -103 409 -103 c 2xb880
 429 -103 l 1x7880
243 179 m 2x3d
 243 206 l 1
 181 206 121 190 121 130 c 0
 121 98 137 78 173 78 c 0
 224 78 243 125 243 179 c 2x3d
EndSplineSet
EndChar

StartChar: aring
Encoding: 229 229 137
Width: 403
GlyphClass: 2
Flags: W
HStem: -11 89<106.98 209.08 351.008 395.478> 4 75<351.04 396> 206 77<149.953 243> 389 87<147.906 235.228> 496 44<155.719 227.079> 621 45<155.272 227.521>
VStem: 12 109<86.1484 178.142> 34 105<327 380.729> 107 44<545.221 616.18> 232 45<545.207 616.184> 243 107<100.092 206 283 380.161>
LayerCount: 2
Fore
SplineSet
192 666 m 0x3cc0
 240 666 277 627 277 581 c 0
 277 534 239 496 192 496 c 0
 146 496 107 533 107 581 c 0
 107 628 145 666 192 666 c 0x3cc0
192 621 m 0
 169 621 151 604 151 581 c 0
 151 558 169 540 192 540 c 0
 214 540 232 558 232 581 c 0
 232 604 214 621 192 621 c 0
192 476 m 0
 300 476 350 425 350 339 c 2
 350 110 l 2
 350 88 362 79 375 79 c 2
 396 79 l 1
 396 4 l 1x7d20
 385 -3 365 -11 333 -11 c 0
 291 -11 262 14 251 50 c 1
 247 50 l 1
 220 13 191 -11 129 -11 c 0
 86 -11 12 12 12 120 c 0xbe20
 12 246 108 283 243 283 c 1
 243 331 l 2
 243 363 235 389 194 389 c 0
 151 389 139 362 139 340 c 2
 139 327 l 1
 35 327 l 1
 34 332 34 339 34 347 c 0xbd20
 34 424 96 476 192 476 c 0
243 179 m 2
 243 206 l 1
 181 206 121 190 121 130 c 0
 121 98 137 78 173 78 c 0xbe20
 224 78 243 125 243 179 c 2
EndSplineSet
EndChar

StartChar: aringacute
Encoding: 507 507 138
Width: 442
GlyphClass: 2
Flags: W
HStem: -11 89<106.98 209.08 351.008 395.478> 4 75<351.04 396> 206 77<149.953 243> 389 87<147.906 235.228> 496 42<156.651 227.079> 617 43<156.207 227.521>
VStem: 12 109<86.1484 178.142> 34 105<327 380.729> 107 44<543.296 612.004> 232 45<542.391 612.006> 243 107<100.092 206 283 380.161>
LayerCount: 2
Fore
SplineSet
241 679 m 1x3c
 154 679 l 1
 220 781 l 1
 326 781 l 1
 327 778 l 1
 241 679 l 1x3c
192 660 m 0
 240 660 277 622 277 578 c 0
 277 533 239 496 192 496 c 0
 146 496 107 532 107 578 c 0x3cc0
 107 623 145 660 192 660 c 0
192 617 m 0
 169 617 151 600 151 578 c 0
 151 555 169 538 192 538 c 0
 214 538 232 555 232 578 c 0
 232 600 214 617 192 617 c 0
192 476 m 0
 300 476 350 425 350 339 c 2
 350 110 l 2
 350 88 362 79 375 79 c 2
 396 79 l 1
 396 4 l 1x7d20
 385 -3 365 -11 333 -11 c 0
 291 -11 262 14 251 50 c 1
 247 50 l 1
 220 13 191 -11 129 -11 c 0
 86 -11 12 12 12 120 c 0xbe20
 12 246 108 283 243 283 c 1
 243 331 l 2
 243 363 235 389 194 389 c 0
 151 389 139 362 139 340 c 2
 139 327 l 1
 35 327 l 1
 34 332 34 339 34 347 c 0xbd20
 34 424 96 476 192 476 c 0
243 179 m 2
 243 206 l 1
 181 206 121 190 121 130 c 0
 121 98 137 78 173 78 c 0xbe20
 224 78 243 125 243 179 c 2
EndSplineSet
EndChar

StartChar: atilde
Encoding: 227 227 139
Width: 403
GlyphClass: 2
Flags: W
HStem: -11 89<106.98 209.08 351.008 395.478> 4 75<351.04 396> 206 77<149.953 243> 389 87<147.906 235.228> 531 75<181.074 278.272> 564 75<105.207 202.448>
VStem: 12 109<86.1484 178.142> 34 105<327 380.729> 43 59<531 561.519> 243 107<100.092 206 283 380.161> 282 58<608.868 639>
LayerCount: 2
Fore
SplineSet
282 639 m 1x34a0
 340 639 l 1x34a0
 340 591 316 531 253 531 c 0x38a0
 210 531 176 564 136 564 c 0x34a0
 118 564 105 555 102 531 c 1
 43 531 l 1x38a0
 43 580 68 639 130 639 c 0x34a0
 173 639 208 606 248 606 c 0x38a0
 266 606 278 614 282 639 c 1x34a0
192 476 m 0
 300 476 350 425 350 339 c 2
 350 110 l 2
 350 88 362 79 375 79 c 2
 396 79 l 1
 396 4 l 1x7140
 385 -3 365 -11 333 -11 c 0
 291 -11 262 14 251 50 c 1
 247 50 l 1
 220 13 191 -11 129 -11 c 0
 86 -11 12 12 12 120 c 0xb240
 12 246 108 283 243 283 c 1
 243 331 l 2
 243 363 235 389 194 389 c 0
 151 389 139 362 139 340 c 2
 139 327 l 1
 35 327 l 1
 34 332 34 339 34 347 c 0xb140
 34 424 96 476 192 476 c 0
243 179 m 2
 243 206 l 1
 181 206 121 190 121 130 c 0
 121 98 137 78 173 78 c 0xb240
 224 78 243 125 243 179 c 2
EndSplineSet
EndChar

StartChar: ae
Encoding: 230 230 140
Width: 644
GlyphClass: 2
Flags: W
HStem: -11 87<149.393 238.423 399.323 486.065> 206 77<170.109 263 375 499> 389 87<168.139 256.068 397.73 481.378>
VStem: 33 108<86.4548 178.142> 55 104<327 380.729> 263 112<100.269 206 283 366.001> 499 111<87.2514 164 283 373.127>
AnchorPoint: "Anchor-1" 0 0 basechar 0
AnchorPoint: "Anchor-0" 323 465 basechar 0
LayerCount: 2
Fore
SplineSet
442 476 m 0xee
 554 476 610 400 610 232 c 2
 610 206 l 1
 374 206 l 1
 375 123 393 76 446 76 c 0
 482 76 505 109 505 164 c 1
 610 164 l 1
 610 45 540 -11 446 -11 c 0
 384 -11 337 10 307 52 c 1
 273 15 232 -11 167 -11 c 0
 117 -11 33 12 33 120 c 0xf6
 33 246 128 283 263 283 c 1
 263 331 l 2
 263 363 255 389 215 389 c 0
 171 389 159 362 159 340 c 2
 159 327 l 1
 56 327 l 1
 55 332 55 339 55 347 c 0
 55 424 117 476 212 476 c 0
 265 476 305 460 331 431 c 1
 360 461 397 476 442 476 c 0xee
442 389 m 0
 397 389 378 350 375 283 c 1
 499 283 l 1
 499 350 481 389 442 389 c 0
263 179 m 2
 263 206 l 1
 202 206 141 190 141 130 c 0
 141 98 157 78 194 78 c 0
 244 78 263 125 263 179 c 2
EndSplineSet
EndChar

StartChar: aeacute
Encoding: 509 509 141
Width: 644
GlyphClass: 2
Flags: W
HStem: -11 87<149.393 238.423 399.323 486.065> 206 77<170.109 263 375 499> 389 87<168.139 256.068 397.73 481.378> 619 20G<325.009 445>
VStem: 33 108<86.4548 178.142> 55 104<327 380.729> 263 112<100.269 206 283 366.001> 499 111<87.2514 164 283 373.127>
LayerCount: 2
Fore
SplineSet
349 522 m 1xf3
 262 522 l 1
 338 639 l 1
 444 639 l 1
 445 636 l 1
 349 522 l 1xf3
442 476 m 0
 554 476 610 400 610 232 c 2
 610 206 l 1
 374 206 l 1
 375 123 393 76 446 76 c 0
 482 76 505 109 505 164 c 1
 610 164 l 1
 610 45 540 -11 446 -11 c 0
 384 -11 337 10 307 52 c 1
 273 15 232 -11 167 -11 c 0
 117 -11 33 12 33 120 c 0xfb
 33 246 128 283 263 283 c 1
 263 331 l 2
 263 363 255 389 215 389 c 0
 171 389 159 362 159 340 c 2
 159 327 l 1
 56 327 l 1
 55 332 55 339 55 347 c 0xf7
 55 424 117 476 212 476 c 0
 265 476 305 460 331 431 c 1
 360 461 397 476 442 476 c 0
442 389 m 0
 397 389 378 350 375 283 c 1
 499 283 l 1
 499 350 481 389 442 389 c 0
263 179 m 2
 263 206 l 1
 202 206 141 190 141 130 c 0
 141 98 157 78 194 78 c 0
 244 78 263 125 263 179 c 2
EndSplineSet
EndChar

StartChar: b
Encoding: 98 98 142
Width: 443
GlyphClass: 2
Flags: W
HStem: -11 97<190.468 270.688> 0 21G<49 140.86> 379 97<190.461 271.147> 619 20G<49 155>
VStem: 49 106<109.96 354.347 417 639> 49 88<0 36.2727> 296 111<112.726 353.517>
LayerCount: 2
Fore
SplineSet
155 417 m 1x7a
 159 417 l 1
 176 454 216 476 263 476 c 0
 345 476 407 402 407 233 c 0
 407 65 349 -11 257 -11 c 0xba
 213 -11 175 12 152 57 c 1
 148 57 l 1
 137 0 l 1
 49 0 l 1x76
 49 639 l 1
 155 639 l 1
 155 417 l 1x7a
225 379 m 0
 174 379 155 331 155 248 c 2
 155 216 l 2
 155 132 174 86 225 86 c 0
 277 86 296 132 296 216 c 2
 296 249 l 2
 296 333 277 379 225 379 c 0
EndSplineSet
EndChar

StartChar: c
Encoding: 99 99 143
Width: 403
GlyphClass: 2
Flags: W
HStem: -11 90<169.402 251.162> 386 90<168.488 246.072>
VStem: 36 111<102.002 363.035> 266 105<91.3984 175 290 369.223>
AnchorPoint: "Anchor-1" 202 0 basechar 0
AnchorPoint: "Anchor-0" 202 465 basechar 0
LayerCount: 2
Fore
SplineSet
209 476 m 0
 308 476 371 420 371 290 c 1
 263 290 l 1
 263 355 245 386 209 386 c 0
 164 386 147 339 147 249 c 2
 147 216 l 2
 147 126 164 79 212 79 c 0
 250 79 266 111 266 175 c 1
 371 175 l 1
 371 45 309 -11 212 -11 c 0
 91 -11 36 65 36 232 c 0
 36 400 94 476 209 476 c 0
EndSplineSet
EndChar

StartChar: cacute
Encoding: 263 263 144
Width: 403
GlyphClass: 2
Flags: W
HStem: -11 90<169.402 251.162> 386 90<168.488 246.072> 619 20G<212.009 331>
VStem: 36 111<102.002 363.035> 266 105<91.3984 175 290 369.223>
LayerCount: 2
Fore
SplineSet
237 522 m 1
 149 522 l 1
 225 639 l 1
 331 639 l 1
 331 636 l 1
 237 522 l 1
209 476 m 0
 308 476 371 420 371 290 c 1
 263 290 l 1
 263 355 245 386 209 386 c 0
 164 386 147 339 147 249 c 2
 147 216 l 2
 147 126 164 79 212 79 c 0
 250 79 266 111 266 175 c 1
 371 175 l 1
 371 45 309 -11 212 -11 c 0
 91 -11 36 65 36 232 c 0
 36 400 94 476 209 476 c 0
EndSplineSet
EndChar

StartChar: ccaron
Encoding: 269 269 145
Width: 403
GlyphClass: 2
Flags: W
HStem: -11 90<169.402 251.162> 386 90<168.488 246.072> 619 20G<91 183.787 236.213 329>
VStem: 36 111<102.002 363.035> 266 105<91.3984 175 290 369.223>
LayerCount: 2
Fore
SplineSet
91 639 m 1
 171 639 l 1
 210 578 l 1
 249 639 l 1
 329 639 l 1
 254 520 l 1
 167 520 l 1
 91 639 l 1
209 476 m 0
 308 476 371 420 371 290 c 1
 263 290 l 1
 263 355 245 386 209 386 c 0
 164 386 147 339 147 249 c 2
 147 216 l 2
 147 126 164 79 212 79 c 0
 250 79 266 111 266 175 c 1
 371 175 l 1
 371 45 309 -11 212 -11 c 0
 91 -11 36 65 36 232 c 0
 36 400 94 476 209 476 c 0
EndSplineSet
EndChar

StartChar: ccedilla
Encoding: 231 231 146
Width: 403
GlyphClass: 2
Flags: W
HStem: -161 50<129.99 222.045> -154 43<129 201.871> 386 90<168.488 246.072>
VStem: 36 111<104.896 363.035> 224 76<-109.873 -68.6409> 266 105<92.0181 175 290 369.223>
LayerCount: 2
Fore
SplineSet
209 476 m 0xb8
 308 476 371 420 371 290 c 1
 263 290 l 1
 263 355 245 386 209 386 c 0
 164 386 147 339 147 249 c 2
 147 216 l 2
 147 126 164 79 212 79 c 0
 250 79 266 111 266 175 c 1
 371 175 l 1xb4
 371 54 317 -2 232 -10 c 1
 230 -29 l 1
 268 -32 300 -49 300 -89 c 0
 300 -149 241 -161 203 -161 c 0xb8
 179 -161 150 -158 129 -154 c 1
 129 -111 l 1x78
 192 -111 l 2
 211 -111 224 -106 224 -89 c 0
 224 -75 217 -68 194 -68 c 2
 165 -68 l 1
 172 -7 l 1
 79 8 36 85 36 232 c 0
 36 400 94 476 209 476 c 0xb8
EndSplineSet
EndChar

StartChar: ccircumflex
Encoding: 265 265 147
Width: 403
GlyphClass: 2
Flags: W
HStem: -11 90<169.402 251.162> 386 90<168.488 246.072> 619 20G<154.227 266.605>
VStem: 36 111<102.002 363.035> 266 105<91.3984 175 290 369.223>
LayerCount: 2
Fore
SplineSet
210 581 m 1
 171 520 l 1
 91 520 l 1
 167 639 l 1
 254 639 l 1
 329 520 l 1
 249 520 l 1
 210 581 l 1
209 476 m 0
 308 476 371 420 371 290 c 1
 263 290 l 1
 263 355 245 386 209 386 c 0
 164 386 147 339 147 249 c 2
 147 216 l 2
 147 126 164 79 212 79 c 0
 250 79 266 111 266 175 c 1
 371 175 l 1
 371 45 309 -11 212 -11 c 0
 91 -11 36 65 36 232 c 0
 36 400 94 476 209 476 c 0
EndSplineSet
EndChar

StartChar: cdotaccent
Encoding: 267 267 148
Width: 403
GlyphClass: 2
Flags: W
HStem: -11 90<169.402 251.162> 386 90<168.488 246.072> 537 102<163 257>
VStem: 36 111<102.002 363.035> 163 94<537 639> 266 105<91.3984 175 290 369.223>
LayerCount: 2
Fore
SplineSet
163 639 m 1
 257 639 l 1
 257 537 l 1
 163 537 l 1
 163 639 l 1
209 476 m 0
 308 476 371 420 371 290 c 1
 263 290 l 1
 263 355 245 386 209 386 c 0
 164 386 147 339 147 249 c 2
 147 216 l 2
 147 126 164 79 212 79 c 0
 250 79 266 111 266 175 c 1
 371 175 l 1
 371 45 309 -11 212 -11 c 0
 91 -11 36 65 36 232 c 0
 36 400 94 476 209 476 c 0
EndSplineSet
EndChar

StartChar: d
Encoding: 100 100 149
Width: 443
GlyphClass: 2
Flags: W
HStem: -11 97<172.199 253.154> 0 21G<302.14 394> 379 97<171.74 252.341> 619 20G<288 394>
VStem: 36 111<112.726 353.517> 288 106<109.96 354.347 417 639> 306 88<0 36.2727>
LayerCount: 2
Fore
SplineSet
295 57 m 1x7a
 291 57 l 1
 268 12 230 -11 186 -11 c 0
 94 -11 36 65 36 233 c 0
 36 402 98 476 180 476 c 0
 227 476 267 454 284 417 c 1
 288 417 l 1
 288 639 l 1
 394 639 l 1xbc
 394 0 l 1
 306 0 l 1
 295 57 l 1x7a
217 379 m 0
 166 379 147 333 147 249 c 2
 147 216 l 2
 147 132 166 86 217 86 c 0
 269 86 288 132 288 216 c 2
 288 248 l 2
 288 331 269 379 217 379 c 0
EndSplineSet
EndChar

StartChar: eth
Encoding: 240 240 150
Width: 443
GlyphClass: 2
Flags: W
HStem: -11 90<173.02 270.98> 386 90<173.58 240.201> 587 20G<272 387> 619 20G<115 234>
VStem: 36 111<106.934 359.347> 297 111<106.934 356.418>
LayerCount: 2
Fore
SplineSet
117 639 m 1
 228 639 l 1
 240 629 255 614 272 597 c 1
 387 607 l 1
 387 543 l 1
 321 537 l 1
 367 469 408 372 408 232 c 0
 408 65 346 -11 222 -11 c 0
 98 -11 36 65 36 232 c 0
 36 392 98 476 197 476 c 0
 210 476 227 473 240 469 c 1
 243 472 l 1
 234 489 222 508 210 526 c 1
 95 516 l 1
 95 581 l 1
 162 587 l 1
 144 607 126 624 115 636 c 1
 117 639 l 1
222 386 m 0
 167 386 147 339 147 249 c 2
 147 216 l 2
 147 126 167 79 222 79 c 0
 277 79 297 126 297 216 c 2
 297 249 l 2
 297 339 277 386 222 386 c 0
EndSplineSet
EndChar

StartChar: dcaron
Encoding: 271 271 151
Width: 521
GlyphClass: 2
Flags: W
HStem: -11 97<172.199 253.154> 0 21G<302.14 394> 379 97<171.74 252.341> 586 20G<422 544> 619 20G<288 394>
VStem: 36 111<112.726 353.517> 288 106<109.96 354.347 417 639> 306 88<0 36.2727> 422 122<496 606>
LayerCount: 2
Fore
SplineSet
295 57 m 1x7d80
 291 57 l 1
 268 12 230 -11 186 -11 c 0
 94 -11 36 65 36 233 c 0
 36 402 98 476 180 476 c 0
 227 476 267 454 284 417 c 1
 288 417 l 1
 288 639 l 1
 394 639 l 1xbe80
 394 0 l 1
 306 0 l 1
 295 57 l 1x7d80
422 347 m 1
 470 485 l 1
 422 485 l 1
 422 606 l 1
 544 606 l 1
 544 496 l 1
 485 347 l 1
 422 347 l 1
217 379 m 0
 166 379 147 333 147 249 c 2
 147 216 l 2
 147 132 166 86 217 86 c 0
 269 86 288 132 288 216 c 2
 288 248 l 2
 288 331 269 379 217 379 c 0
EndSplineSet
EndChar

StartChar: dcroat
Encoding: 273 273 152
Width: 446
GlyphClass: 2
Flags: W
HStem: -11 97<172.199 253.154> 0 21G<302.14 394> 379 97<171.74 252.341> 515 77<171 288 394 442> 619 20G<288 394>
VStem: 36 111<112.726 353.517> 288 106<109.96 354.347 417 515 592 639> 306 88<0 36.2727>
LayerCount: 2
Fore
SplineSet
442 592 m 1xbe
 442 515 l 1
 394 515 l 1xbe
 394 0 l 1
 306 0 l 1x7d
 295 57 l 1
 291 57 l 1
 268 12 230 -11 186 -11 c 0
 94 -11 36 65 36 233 c 0
 36 402 98 476 180 476 c 0
 227 476 267 454 284 417 c 1
 288 417 l 1
 288 515 l 1
 171 515 l 1
 171 592 l 1
 288 592 l 1
 288 639 l 1
 394 639 l 1
 394 592 l 1
 442 592 l 1xbe
217 379 m 0
 166 379 147 333 147 249 c 2
 147 216 l 2
 147 132 166 86 217 86 c 0
 269 86 288 132 288 216 c 2
 288 248 l 2
 288 331 269 379 217 379 c 0
EndSplineSet
EndChar

StartChar: e
Encoding: 101 101 153
Width: 403
GlyphClass: 2
Flags: W
HStem: -11 87<162.806 250.065> 206 77<139 263> 389 87<163.16 245.378>
VStem: 27 111<102.067 206 283 363.035> 263 111<87.2514 164 283 373.127>
AnchorPoint: "Anchor-1" 202 0 basechar 0
AnchorPoint: "Anchor-0" 202 465 basechar 0
LayerCount: 2
Fore
SplineSet
206 476 m 0
 318 476 374 400 374 232 c 2
 374 206 l 1
 138 206 l 1
 139 123 157 76 210 76 c 0
 246 76 269 109 269 164 c 1
 374 164 l 1
 374 45 304 -11 210 -11 c 0
 90 -11 27 65 27 232 c 0
 27 400 91 476 206 476 c 0
206 389 m 0
 161 389 142 350 139 283 c 1
 263 283 l 1
 263 350 245 389 206 389 c 0
EndSplineSet
EndChar

StartChar: eacute
Encoding: 233 233 154
Width: 403
GlyphClass: 2
Flags: W
HStem: -11 87<162.806 250.065> 206 77<139 263> 389 87<163.16 245.378> 619 20G<204.009 324>
VStem: 27 111<102.067 206 283 363.035> 263 111<87.2514 164 283 373.127>
LayerCount: 2
Fore
SplineSet
228 522 m 1
 141 522 l 1
 217 639 l 1
 323 639 l 1
 324 636 l 1
 228 522 l 1
206 476 m 0
 318 476 374 400 374 232 c 2
 374 206 l 1
 138 206 l 1
 139 123 157 76 210 76 c 0
 246 76 269 109 269 164 c 1
 374 164 l 1
 374 45 304 -11 210 -11 c 0
 90 -11 27 65 27 232 c 0
 27 400 91 476 206 476 c 0
206 389 m 0
 161 389 142 350 139 283 c 1
 263 283 l 1
 263 350 245 389 206 389 c 0
EndSplineSet
EndChar

StartChar: ebreve
Encoding: 277 277 155
Width: 403
GlyphClass: 2
Flags: W
HStem: -11 87<162.806 250.065> 206 77<139 263> 389 87<163.16 245.378> 545 65<152.6 251.586> 619 20G<84 150.5 254 320>
VStem: 27 111<102.067 206 283 363.035> 84 65<618.149 639> 255 65<618.149 639> 263 111<87.2514 164 283 373.127>
LayerCount: 2
Fore
SplineSet
255 639 m 1xfb
 320 639 l 1
 320 595 275 545 202 545 c 0
 129 545 84 595 84 639 c 1
 149 639 l 1
 152 627 172 610 202 610 c 0
 232 610 253 627 255 639 c 1xfb
206 476 m 0
 318 476 374 400 374 232 c 2
 374 206 l 1
 138 206 l 1
 139 123 157 76 210 76 c 0
 246 76 269 109 269 164 c 1
 374 164 l 1
 374 45 304 -11 210 -11 c 0
 90 -11 27 65 27 232 c 0xfc80
 27 400 91 476 206 476 c 0
206 389 m 0
 161 389 142 350 139 283 c 1
 263 283 l 1
 263 350 245 389 206 389 c 0
EndSplineSet
EndChar

StartChar: ecaron
Encoding: 283 283 156
Width: 403
GlyphClass: 2
Flags: W
HStem: -11 87<162.806 250.065> 206 77<139 263> 389 87<163.16 245.378> 619 20G<83 175.787 228.213 321>
VStem: 27 111<102.067 206 283 363.035> 263 111<87.2514 164 283 373.127>
LayerCount: 2
Fore
SplineSet
83 639 m 1
 163 639 l 1
 202 578 l 1
 241 639 l 1
 321 639 l 1
 246 520 l 1
 159 520 l 1
 83 639 l 1
206 476 m 0
 318 476 374 400 374 232 c 2
 374 206 l 1
 138 206 l 1
 139 123 157 76 210 76 c 0
 246 76 269 109 269 164 c 1
 374 164 l 1
 374 45 304 -11 210 -11 c 0
 90 -11 27 65 27 232 c 0
 27 400 91 476 206 476 c 0
206 389 m 0
 161 389 142 350 139 283 c 1
 263 283 l 1
 263 350 245 389 206 389 c 0
EndSplineSet
EndChar

StartChar: ecircumflex
Encoding: 234 234 157
Width: 403
GlyphClass: 2
Flags: W
HStem: -11 87<162.806 250.065> 206 77<139 263> 389 87<163.16 245.378> 619 20G<146.227 258.605>
VStem: 27 111<102.067 206 283 363.035> 263 111<87.2514 164 283 373.127>
LayerCount: 2
Fore
SplineSet
202 581 m 1
 163 520 l 1
 83 520 l 1
 159 639 l 1
 246 639 l 1
 321 520 l 1
 241 520 l 1
 202 581 l 1
206 476 m 0
 318 476 374 400 374 232 c 2
 374 206 l 1
 138 206 l 1
 139 123 157 76 210 76 c 0
 246 76 269 109 269 164 c 1
 374 164 l 1
 374 45 304 -11 210 -11 c 0
 90 -11 27 65 27 232 c 0
 27 400 91 476 206 476 c 0
206 389 m 0
 161 389 142 350 139 283 c 1
 263 283 l 1
 263 350 245 389 206 389 c 0
EndSplineSet
EndChar

StartChar: edieresis
Encoding: 235 235 158
Width: 403
GlyphClass: 2
Flags: W
HStem: -11 87<162.806 250.065> 206 77<139 263> 389 87<163.16 245.378> 543 96<80 169 235 324>
VStem: 27 111<102.067 206 283 363.035> 80 89<543 639> 235 89<543 639> 263 111<87.2514 164 283 373.127>
LayerCount: 2
Fore
SplineSet
80 543 m 1xf4
 80 639 l 1
 169 639 l 1
 169 543 l 1
 80 543 l 1xf4
235 543 m 1xf2
 235 639 l 1
 324 639 l 1
 324 543 l 1
 235 543 l 1xf2
206 476 m 0
 318 476 374 400 374 232 c 2
 374 206 l 1
 138 206 l 1
 139 123 157 76 210 76 c 0
 246 76 269 109 269 164 c 1
 374 164 l 1
 374 45 304 -11 210 -11 c 0
 90 -11 27 65 27 232 c 0xf9
 27 400 91 476 206 476 c 0
206 389 m 0
 161 389 142 350 139 283 c 1
 263 283 l 1
 263 350 245 389 206 389 c 0
EndSplineSet
EndChar

StartChar: edotaccent
Encoding: 279 279 159
Width: 403
GlyphClass: 2
Flags: W
HStem: -11 87<162.806 250.065> 206 77<139 263> 389 87<163.16 245.378> 537 102<155 249>
VStem: 27 111<102.067 206 283 363.035> 155 94<537 639> 263 111<87.2514 164 283 373.127>
LayerCount: 2
Fore
SplineSet
155 639 m 1
 249 639 l 1
 249 537 l 1
 155 537 l 1
 155 639 l 1
206 476 m 0
 318 476 374 400 374 232 c 2
 374 206 l 1
 138 206 l 1
 139 123 157 76 210 76 c 0
 246 76 269 109 269 164 c 1
 374 164 l 1
 374 45 304 -11 210 -11 c 0
 90 -11 27 65 27 232 c 0
 27 400 91 476 206 476 c 0
206 389 m 0
 161 389 142 350 139 283 c 1
 263 283 l 1
 263 350 245 389 206 389 c 0
EndSplineSet
EndChar

StartChar: egrave
Encoding: 232 232 160
Width: 403
GlyphClass: 2
Flags: W
HStem: -11 87<162.806 250.065> 206 77<139 263> 389 87<163.16 245.378> 619 20G<80 199.991>
VStem: 27 111<102.067 206 283 363.035> 263 111<87.2514 164 283 373.127>
LayerCount: 2
Fore
SplineSet
175 522 m 1
 80 636 l 1
 80 639 l 1
 187 639 l 1
 263 522 l 1
 175 522 l 1
206 476 m 0
 318 476 374 400 374 232 c 2
 374 206 l 1
 138 206 l 1
 139 123 157 76 210 76 c 0
 246 76 269 109 269 164 c 1
 374 164 l 1
 374 45 304 -11 210 -11 c 0
 90 -11 27 65 27 232 c 0
 27 400 91 476 206 476 c 0
206 389 m 0
 161 389 142 350 139 283 c 1
 263 283 l 1
 263 350 245 389 206 389 c 0
EndSplineSet
EndChar

StartChar: emacron
Encoding: 275 275 161
Width: 403
GlyphClass: 2
Flags: W
HStem: -11 87<162.806 250.065> 206 77<139 263> 389 87<163.16 245.378> 530 76<89 315>
VStem: 27 111<102.067 206 283 363.035> 263 111<87.2514 164 283 373.127>
LayerCount: 2
Fore
SplineSet
89 606 m 1
 315 606 l 1
 315 530 l 1
 89 530 l 1
 89 606 l 1
206 476 m 0
 318 476 374 400 374 232 c 2
 374 206 l 1
 138 206 l 1
 139 123 157 76 210 76 c 0
 246 76 269 109 269 164 c 1
 374 164 l 1
 374 45 304 -11 210 -11 c 0
 90 -11 27 65 27 232 c 0
 27 400 91 476 206 476 c 0
206 389 m 0
 161 389 142 350 139 283 c 1
 263 283 l 1
 263 350 245 389 206 389 c 0
EndSplineSet
EndChar

StartChar: eogonek
Encoding: 281 281 162
Width: 403
GlyphClass: 2
Flags: W
HStem: -164 61<265.01 318.063> -151 48<265.454 319> -11 87<163.16 198> 206 77<139 263> 389 87<163.16 245.378>
VStem: 27 111<105.306 206 283 363.035> 173 87<-98.2928 -9.66207> 263 111<88.5563 164 283 373.127>
LayerCount: 2
Fore
SplineSet
374 206 m 1xbf
 138 206 l 1
 139 123 157 76 210 76 c 0
 246 76 269 109 269 164 c 1
 374 164 l 1
 374 80 339 28 286 4 c 1
 276 -8 260 -33 260 -57 c 0
 260 -80 271 -103 300 -103 c 2xbf
 319 -103 l 1
 319 -151 l 1x7f
 299 -159 280 -164 261 -164 c 0
 221 -164 173 -145 173 -84 c 0
 173 -51 184 -29 198 -11 c 1
 86 -6 27 71 27 232 c 0
 27 400 91 476 206 476 c 0
 318 476 374 400 374 232 c 2
 374 206 l 1xbf
139 283 m 1
 263 283 l 1
 263 350 245 389 206 389 c 0
 161 389 142 350 139 283 c 1
EndSplineSet
EndChar

StartChar: f
Encoding: 102 102 163
Width: 241
GlyphClass: 2
Flags: W
HStem: 0 21G<55 161> 376 89<8 55 161 241> 557 89<163.406 240.19> 557 79<165.179 241>
VStem: 55 106<0 376 465 553.3>
LayerCount: 2
Fore
SplineSet
164 646 m 0xe8
 189 646 224 641 241 636 c 1
 241 557 l 1xd8
 198 557 l 2
 174 557 161 544 161 519 c 2
 161 465 l 1
 241 465 l 1
 241 376 l 1
 161 376 l 1
 161 0 l 1
 55 0 l 1
 55 376 l 1
 8 376 l 1
 8 465 l 1
 55 465 l 1
 55 522 l 2
 55 583 80 646 164 646 c 0xe8
EndSplineSet
EndChar

StartChar: g
Encoding: 103 103 164
Width: 443
GlyphClass: 2
Flags: W
HStem: -161 81<125.657 324.605> 5 98<144.313 326.131> 159 79<170.375 267.727> 397 79<170.557 269.054>
VStem: 14 107<-74.6131 -0.73304> 36 107<103.98 157.664> 48 106<253.857 380.204> 286 106<255.091 380.605> 331 107<-73.4214 -0.694574> 342 88<486.237 543>
AnchorPoint: "Anchor-1" 0 0 basechar 0
AnchorPoint: "Anchor-0" 222 465 basechar 0
LayerCount: 2
Fore
SplineSet
342 543 m 1xf240
 430 543 l 1xf240
 430 476 401 438 354 424 c 1
 378 398 392 361 392 317 c 0
 392 222 331 159 219 159 c 2
 175 159 l 2
 156 159 143 147 143 131 c 0xf5
 143 115 155 103 171 103 c 2
 331 103 l 2
 390 103 438 57 438 -18 c 0
 438 -104 370 -161 287 -161 c 2
 117 -161 l 2
 60 -161 14 -118 14 -54 c 0xf880
 14 -8 40 22 73 41 c 1
 50 55 36 79 36 110 c 0xf4
 36 151 67 179 104 192 c 1
 67 219 48 263 48 317 c 0
 48 413 108 476 219 476 c 0
 248 476 275 471 297 462 c 1
 332 488 342 526 342 543 c 1xf240
219 397 m 0
 176 397 154 367 154 317 c 0
 154 268 176 238 219 238 c 0
 263 238 286 268 286 317 c 0xf3
 286 367 263 397 219 397 c 0
287 5 m 2
 164 5 l 2
 140 5 121 -14 121 -37 c 0
 121 -64 140 -80 164 -80 c 2
 283 -80 l 2
 309 -80 331 -64 331 -37 c 0xf880
 331 -11 311 5 287 5 c 2
EndSplineSet
EndChar

StartChar: gbreve
Encoding: 287 287 165
Width: 443
GlyphClass: 2
Flags: W
HStem: -161 81<125.657 324.605> 5 98<144.313 326.131> 159 79<170.375 267.727> 397 79<170.557 269.054> 545 65<172.122 270.586> 619 20G<103 170 273 339>
VStem: 14 107<-74.6131 -0.73304> 36 107<103.98 157.664> 48 106<253.857 380.204> 103 66<618.149 639> 274 65<618.149 639> 286 106<255.091 380.605> 331 107<-73.4214 -0.694574> 342 88<486.237 543>
LayerCount: 2
Fore
SplineSet
274 639 m 1xfc60
 339 639 l 1
 339 595 294 545 221 545 c 0
 149 545 103 595 103 639 c 1
 169 639 l 1
 171 627 192 610 221 610 c 0
 251 610 272 627 274 639 c 1xfc60
342 543 m 1xfc84
 430 543 l 1xfc84
 430 476 401 438 354 424 c 1
 378 398 392 361 392 317 c 0
 392 222 331 159 219 159 c 2
 175 159 l 2
 156 159 143 147 143 131 c 0xfd10
 143 115 155 103 171 103 c 2
 331 103 l 2
 390 103 438 57 438 -18 c 0
 438 -104 370 -161 287 -161 c 2
 117 -161 l 2
 60 -161 14 -118 14 -54 c 0xfe08
 14 -8 40 22 73 41 c 1
 50 55 36 79 36 110 c 0xfd
 36 151 67 179 104 192 c 1
 67 219 48 263 48 317 c 0
 48 413 108 476 219 476 c 0
 248 476 275 471 297 462 c 1
 332 488 342 526 342 543 c 1xfc84
219 397 m 0
 176 397 154 367 154 317 c 0
 154 268 176 238 219 238 c 0
 263 238 286 268 286 317 c 0xfc90
 286 367 263 397 219 397 c 0
287 5 m 2
 164 5 l 2
 140 5 121 -14 121 -37 c 0
 121 -64 140 -80 164 -80 c 2
 283 -80 l 2
 309 -80 331 -64 331 -37 c 0xfe08
 331 -11 311 5 287 5 c 2
EndSplineSet
EndChar

StartChar: gcircumflex
Encoding: 285 285 166
Width: 443
GlyphClass: 2
Flags: W
HStem: -161 81<125.657 324.605> 5 98<144.313 326.131> 159 79<170.375 267.727> 397 79<170.557 269.054> 619 20G<166.227 277.605>
VStem: 14 107<-74.6131 -0.73304> 36 107<103.98 157.664> 48 106<253.857 380.204> 286 106<255.091 380.605> 331 107<-73.4214 -0.694574> 361 69<477.461 543>
LayerCount: 2
Fore
SplineSet
222 581 m 1xf8
 182 520 l 1
 103 520 l 1
 179 639 l 1
 265 639 l 1
 340 520 l 1
 261 520 l 1
 222 581 l 1xf8
361 543 m 1xf920
 430 543 l 1xf920
 430 476 401 438 354 424 c 1
 378 398 392 361 392 317 c 0
 392 222 331 159 219 159 c 2
 175 159 l 2
 156 159 143 147 143 131 c 0xfa80
 143 115 155 103 171 103 c 2
 331 103 l 2
 390 103 438 57 438 -18 c 0
 438 -104 370 -161 287 -161 c 2
 117 -161 l 2
 60 -161 14 -118 14 -54 c 0xfc40
 14 -8 40 22 73 41 c 1
 50 55 36 79 36 110 c 0xfa
 36 151 67 179 104 192 c 1
 67 219 48 263 48 317 c 0
 48 413 108 476 219 476 c 0
 248 476 275 471 297 462 c 1
 362 465 361 526 361 543 c 1xf920
219 397 m 0
 176 397 154 367 154 317 c 0
 154 268 176 238 219 238 c 0
 263 238 286 268 286 317 c 0xf980
 286 367 263 397 219 397 c 0
287 5 m 2
 164 5 l 2
 140 5 121 -14 121 -37 c 0
 121 -64 140 -80 164 -80 c 2
 283 -80 l 2
 309 -80 331 -64 331 -37 c 0xfc40
 331 -11 311 5 287 5 c 2
EndSplineSet
EndChar

StartChar: gcommaaccent
Encoding: 291 291 167
Width: 443
GlyphClass: 2
Flags: W
HStem: -161 81<125.657 324.605> 5 98<144.313 326.131> 159 79<170.375 267.727> 397 79<170.557 269.054> 522 108<223 266>
VStem: 14 107<-74.6131 -0.73304> 36 107<103.98 157.664> 48 106<253.857 380.204> 156 110<522 621> 286 106<255.091 380.605> 331 107<-73.4214 -0.694574> 342 88<486.237 543>
LayerCount: 2
Fore
SplineSet
266 630 m 1xf880
 266 522 l 1
 156 522 l 1
 156 621 l 1
 197 705 l 1
 255 705 l 1
 223 630 l 1
 266 630 l 1xf880
342 543 m 1xf990
 430 543 l 1xf990
 430 476 401 438 354 424 c 1
 378 398 392 361 392 317 c 0
 392 222 331 159 219 159 c 2
 175 159 l 2
 156 159 143 147 143 131 c 0xfac0
 143 115 155 103 171 103 c 2
 331 103 l 2
 390 103 438 57 438 -18 c 0
 438 -104 370 -161 287 -161 c 2
 117 -161 l 2
 60 -161 14 -118 14 -54 c 0xfca0
 14 -8 40 22 73 41 c 1
 50 55 36 79 36 110 c 0xfa80
 36 151 67 179 104 192 c 1
 67 219 48 263 48 317 c 0
 48 413 108 476 219 476 c 0
 248 476 275 471 297 462 c 1
 332 488 342 526 342 543 c 1xf990
219 397 m 0
 176 397 154 367 154 317 c 0
 154 268 176 238 219 238 c 0
 263 238 286 268 286 317 c 0xf9c0
 286 367 263 397 219 397 c 0
287 5 m 2
 164 5 l 2
 140 5 121 -14 121 -37 c 0
 121 -64 140 -80 164 -80 c 2
 283 -80 l 2
 309 -80 331 -64 331 -37 c 0xfca0
 331 -11 311 5 287 5 c 2
EndSplineSet
EndChar

StartChar: gdotaccent
Encoding: 289 289 168
Width: 443
GlyphClass: 2
Flags: W
HStem: -161 81<125.657 324.605> 5 98<144.313 326.131> 159 79<170.375 267.727> 397 79<170.557 269.054> 537 102<174 269>
VStem: 14 107<-74.6131 -0.73304> 36 107<103.98 157.664> 48 106<253.857 380.204> 174 95<537 639> 286 106<255.091 380.605> 331 107<-73.4214 -0.694574> 342 88<486.237 543>
LayerCount: 2
Fore
SplineSet
174 639 m 1xf880
 269 639 l 1
 269 537 l 1
 174 537 l 1
 174 639 l 1xf880
342 543 m 1xf990
 430 543 l 1xf990
 430 476 401 438 354 424 c 1
 378 398 392 361 392 317 c 0
 392 222 331 159 219 159 c 2
 175 159 l 2
 156 159 143 147 143 131 c 0xfac0
 143 115 155 103 171 103 c 2
 331 103 l 2
 390 103 438 57 438 -18 c 0
 438 -104 370 -161 287 -161 c 2
 117 -161 l 2
 60 -161 14 -118 14 -54 c 0xfca0
 14 -8 40 22 73 41 c 1
 50 55 36 79 36 110 c 0xfa80
 36 151 67 179 104 192 c 1
 67 219 48 263 48 317 c 0
 48 413 108 476 219 476 c 0
 248 476 275 471 297 462 c 1
 332 488 342 526 342 543 c 1xf990
219 397 m 0
 176 397 154 367 154 317 c 0
 154 268 176 238 219 238 c 0
 263 238 286 268 286 317 c 0xf9c0
 286 367 263 397 219 397 c 0
287 5 m 2
 164 5 l 2
 140 5 121 -14 121 -37 c 0
 121 -64 140 -80 164 -80 c 2
 283 -80 l 2
 309 -80 331 -64 331 -37 c 0xfca0
 331 -11 311 5 287 5 c 2
EndSplineSet
EndChar

StartChar: h
Encoding: 104 104 169
Width: 443
GlyphClass: 2
Flags: W
HStem: 0 21G<49 155 288 394> 619 20G<49 155>
VStem: 49 106<0 353.914 415 639> 288 106<0 364.027>
AnchorPoint: "Anchor-1" 0 0 basechar 0
AnchorPoint: "Anchor-0" 222 465 basechar 0
LayerCount: 2
Fore
SplineSet
155 415 m 1
 158 415 l 1
 179 445 216 476 271 476 c 0
 342 476 394 436 394 326 c 2
 394 0 l 1
 288 0 l 1
 288 297 l 2
 288 357 265 379 227 379 c 0
 186 379 155 339 155 286 c 2
 155 0 l 1
 49 0 l 1
 49 639 l 1
 155 639 l 1
 155 415 l 1
EndSplineSet
EndChar

StartChar: hbar
Encoding: 295 295 170
Width: 443
GlyphClass: 2
Flags: W
HStem: 0 21G<49 155 288 394> 515 77<0 49 155 271> 619 20G<49 155>
VStem: 49 106<0 353.914 415 515 592 639> 288 106<0 364.027>
LayerCount: 2
Fore
SplineSet
271 592 m 1
 271 515 l 1
 155 515 l 1
 155 415 l 1
 158 415 l 1
 179 445 216 476 271 476 c 0
 342 476 394 436 394 326 c 2
 394 0 l 1
 288 0 l 1
 288 297 l 2
 288 357 265 379 227 379 c 0
 186 379 155 339 155 286 c 2
 155 0 l 1
 49 0 l 1
 49 515 l 1
 0 515 l 1
 0 592 l 1
 49 592 l 1
 49 639 l 1
 155 639 l 1
 155 592 l 1
 271 592 l 1
EndSplineSet
EndChar

StartChar: hcircumflex
Encoding: 293 293 171
Width: 443
GlyphClass: 2
Flags: W
HStem: 0 21G<49 155 288 394> 619 20G<49 155>
VStem: 49 106<0 353.914 415 639> 288 106<0 364.027>
LayerCount: 2
Fore
SplineSet
100 722 m 1
 60 661 l 1
 -19 661 l 1
 57 781 l 1
 143 781 l 1
 218 661 l 1
 139 661 l 1
 100 722 l 1
155 415 m 1
 158 415 l 1
 179 445 216 476 271 476 c 0
 342 476 394 436 394 326 c 2
 394 0 l 1
 288 0 l 1
 288 297 l 2
 288 357 265 379 227 379 c 0
 186 379 155 339 155 286 c 2
 155 0 l 1
 49 0 l 1
 49 639 l 1
 155 639 l 1
 155 415 l 1
EndSplineSet
EndChar

StartChar: i
Encoding: 105 105 172
Width: 202
GlyphClass: 2
Flags: W
HStem: 0 21G<48 154> 445 20G<48 154> 543 96<48 154>
VStem: 48 106<0 465 543 639>
LayerCount: 2
Fore
SplineSet
48 639 m 1
 154 639 l 1
 154 543 l 1
 48 543 l 1
 48 639 l 1
48 465 m 1
 154 465 l 1
 154 0 l 1
 48 0 l 1
 48 465 l 1
EndSplineSet
EndChar

StartChar: dotlessi
Encoding: 305 305 173
Width: 202
GlyphClass: 2
Flags: W
HStem: 0 21G<48 154> 445 20G<48 154>
VStem: 48 106<0 465>
AnchorPoint: "Anchor-1" 0 0 basechar 0
AnchorPoint: "Anchor-0" 101 465 basechar 0
LayerCount: 2
Fore
SplineSet
48 465 m 1
 154 465 l 1
 154 0 l 1
 48 0 l 1
 48 465 l 1
EndSplineSet
EndChar

StartChar: iacute
Encoding: 237 237 174
Width: 202
GlyphClass: 2
Flags: W
HStem: 0 21G<48 154> 445 20G<48 154> 619 20G<103.009 223>
VStem: 48 106<0 465>
LayerCount: 2
Fore
SplineSet
128 522 m 1
 40 522 l 1
 116 639 l 1
 222 639 l 1
 223 636 l 1
 128 522 l 1
48 0 m 1
 48 465 l 1
 154 465 l 1
 154 0 l 1
 48 0 l 1
EndSplineSet
EndChar

StartChar: ibreve
Encoding: 301 301 175
Width: 202
GlyphClass: 2
Flags: W
HStem: 0 21G<48 154> 445 20G<48 154> 545 65<53.2112 150.586> 619 20G<-18 50 153 219>
VStem: -18 67<618.149 639> 48 106<0 465> 154 65<618.149 639>
LayerCount: 2
Fore
SplineSet
154 639 m 1xfa
 219 639 l 1
 219 595 174 545 101 545 c 0
 28 545 -18 595 -18 639 c 1
 49 639 l 1
 51 627 72 610 101 610 c 0
 131 610 152 627 154 639 c 1xfa
48 465 m 1xf4
 154 465 l 1
 154 0 l 1
 48 0 l 1
 48 465 l 1xf4
EndSplineSet
EndChar

StartChar: icircumflex
Encoding: 238 238 176
Width: 202
GlyphClass: 2
Flags: W
HStem: 0 21G<48 154> 445 20G<48 154> 619 20G<45.0588 157.605>
VStem: 48 106<0 465>
LayerCount: 2
Fore
SplineSet
102 581 m 1
 62 520 l 1
 -19 520 l 1
 58 639 l 1
 145 639 l 1
 220 520 l 1
 141 520 l 1
 102 581 l 1
48 465 m 1
 154 465 l 1
 154 0 l 1
 48 0 l 1
 48 465 l 1
EndSplineSet
EndChar

StartChar: idieresis
Encoding: 239 239 177
Width: 202
GlyphClass: 2
Flags: W
HStem: 0 21G<48 154> 445 20G<48 154> 543 96<-20 68 134 223>
VStem: -20 88<543 639> 48 106<0 465> 134 89<543 639>
LayerCount: 2
Fore
SplineSet
-20 543 m 1xf0
 -20 639 l 1
 68 639 l 1
 68 543 l 1
 -20 543 l 1xf0
134 543 m 1xe4
 134 639 l 1
 223 639 l 1
 223 543 l 1
 134 543 l 1xe4
48 0 m 1xe8
 48 465 l 1
 154 465 l 1
 154 0 l 1
 48 0 l 1xe8
EndSplineSet
EndChar

StartChar: igrave
Encoding: 236 236 178
Width: 202
GlyphClass: 2
Flags: W
HStem: 0 21G<48 154> 445 20G<48 154> 619 20G<-21 98.9915>
VStem: 48 106<0 465>
LayerCount: 2
Fore
SplineSet
74 522 m 1
 -21 636 l 1
 -20 639 l 1
 86 639 l 1
 162 522 l 1
 74 522 l 1
48 0 m 1
 48 465 l 1
 154 465 l 1
 154 0 l 1
 48 0 l 1
EndSplineSet
EndChar

StartChar: ij
Encoding: 307 307 179
Width: 403
GlyphClass: 2
Flags: W
HStem: -161 89<169.855 245.325> -150 78<169 245.325> 0 21G<48 154> 445 20G<48 154 249 355> 543 96<48 154 249 355>
VStem: 48 106<0 465 543 639> 249 106<-67.7324 465 543 639>
LayerCount: 2
Fore
SplineSet
48 543 m 1x3e
 48 639 l 1
 154 639 l 1
 154 543 l 1
 48 543 l 1x3e
249 543 m 1
 249 639 l 1
 355 639 l 1
 355 543 l 1
 249 543 l 1
48 0 m 1
 48 465 l 1
 154 465 l 1
 154 0 l 1
 48 0 l 1
355 465 m 1
 355 -36 l 2
 355 -98 332 -161 248 -161 c 0xbe
 221 -161 187 -156 169 -150 c 1
 169 -72 l 1x7e
 208 -72 l 2xbe
 235 -72 249 -57 249 -29 c 2
 249 465 l 1
 355 465 l 1
EndSplineSet
EndChar

StartChar: imacron
Encoding: 299 299 180
Width: 202
GlyphClass: 2
Flags: W
HStem: 0 21G<48 154> 445 20G<48 154> 530 76<-12 214>
VStem: 48 106<0 465>
LayerCount: 2
Fore
SplineSet
-12 606 m 1
 214 606 l 1
 214 530 l 1
 -12 530 l 1
 -12 606 l 1
48 465 m 1
 154 465 l 1
 154 0 l 1
 48 0 l 1
 48 465 l 1
EndSplineSet
EndChar

StartChar: iogonek
Encoding: 303 303 181
Width: 202
GlyphClass: 2
Flags: W
HStem: -168 61<131.587 186.018> -156 49<131.728 187> 445 20G<48 154> 537 102<54 149>
VStem: 41 86<-102.371 -19.8768> 48 106<0 465 537 639>
LayerCount: 2
Fore
SplineSet
54 537 m 1x30
 54 639 l 1
 149 639 l 1
 149 537 l 1
 54 537 l 1x30
154 465 m 1xb4
 154 0 l 1xb4
 143 -12 127 -37 127 -62 c 0
 127 -85 138 -107 167 -107 c 2xb8
 187 -107 l 1
 187 -156 l 1x78
 166 -164 148 -168 128 -168 c 0
 88 -168 41 -149 41 -88 c 0xb8
 41 -47 58 -22 80 0 c 1
 48 0 l 1
 48 465 l 1
 154 465 l 1xb4
EndSplineSet
EndChar

StartChar: itilde
Encoding: 297 297 182
Width: 202
GlyphClass: 2
Flags: W
HStem: 0 21G<48 154> 445 20G<48 154> 531 75<91.6851 187.653> 564 75<14.3859 112.088>
VStem: -48 59<531 561.519> 48 106<0 465> 191 59<608.868 639>
CounterMasks: 1 0e
LayerCount: 2
Fore
SplineSet
191 639 m 1xde
 250 639 l 1xde
 250 591 225 531 163 531 c 0xee
 120 531 86 564 46 564 c 0xde
 27 564 15 555 11 531 c 1
 -48 531 l 1xee
 -48 580 -23 639 39 639 c 0xde
 83 639 117 606 157 606 c 0xee
 176 606 187 614 191 639 c 1xde
48 465 m 1
 154 465 l 1
 154 0 l 1
 48 0 l 1
 48 465 l 1
EndSplineSet
EndChar

StartChar: j
Encoding: 106 106 183
Width: 202
GlyphClass: 2
Flags: W
HStem: -161 89<-32.0992 44.2983> -150 78<-33 43.4518> 445 20G<48 154> 543 96<48 154>
VStem: 48 106<-67.7324 465 543 639>
LayerCount: 2
Fore
SplineSet
48 639 m 1x38
 154 639 l 1
 154 543 l 1
 48 543 l 1
 48 639 l 1x38
154 465 m 1
 154 -36 l 2
 154 -98 131 -161 46 -161 c 0xb8
 19 -161 -14 -156 -33 -150 c 1
 -33 -72 l 1x78
 6 -72 l 2xb8
 34 -72 48 -57 48 -29 c 2
 48 465 l 1
 154 465 l 1
EndSplineSet
EndChar

StartChar: jcircumflex
Encoding: 309 309 184
Width: 202
GlyphClass: 2
Flags: W
HStem: -161 89<-32.0992 44.2983> -150 78<-33 43.4518> 445 20G<48 154> 619 20G<46.2269 159.437>
VStem: 48 106<-67.7324 465>
LayerCount: 2
Fore
SplineSet
103 581 m 1x38
 63 520 l 1
 -17 520 l 1
 59 639 l 1
 147 639 l 1
 221 520 l 1
 142 520 l 1
 103 581 l 1x38
154 465 m 1
 154 -36 l 2
 154 -98 131 -161 46 -161 c 0xb8
 19 -161 -14 -156 -33 -150 c 1
 -33 -72 l 1x78
 6 -72 l 2xb8
 34 -72 48 -57 48 -29 c 2
 48 465 l 1
 154 465 l 1
EndSplineSet
EndChar

StartChar: k
Encoding: 107 107 185
Width: 403
GlyphClass: 2
Flags: W
HStem: 0 21G<48 154 276.363 404> 445 20G<269.946 397> 619 20G<48 154>
VStem: 48 106<0 145 280 639>
AnchorPoint: "Anchor-1" 202 0 basechar 0
AnchorPoint: "Anchor-0" 0 0 basechar 0
LayerCount: 2
Fore
SplineSet
397 465 m 1
 259 276 l 1
 404 0 l 1
 286 0 l 1
 193 193 l 1
 154 145 l 1
 154 0 l 1
 48 0 l 1
 48 639 l 1
 154 639 l 1
 154 280 l 1
 284 465 l 1
 397 465 l 1
EndSplineSet
EndChar

StartChar: kcommaaccent
Encoding: 311 311 186
Width: 403
GlyphClass: 2
Flags: W
HStem: 0 21G<48 154 276.363 404> 445 20G<269.946 397> 619 20G<48 154>
VStem: 48 106<0 145 280 639> 148 108<-148 -49>
LayerCount: 2
Fore
SplineSet
397 465 m 1xf0
 259 276 l 1
 404 0 l 1
 286 0 l 1
 193 193 l 1
 154 145 l 1
 154 0 l 1
 48 0 l 1
 48 639 l 1
 154 639 l 1
 154 280 l 1
 284 465 l 1
 397 465 l 1xf0
159 -232 m 1
 190 -157 l 1
 148 -157 l 1
 148 -49 l 1
 256 -49 l 1
 256 -148 l 1xe8
 217 -232 l 1
 159 -232 l 1
EndSplineSet
EndChar

StartChar: kgreenlandic
Encoding: 312 312 187
Width: 404
GlyphClass: 2
Flags: W
HStem: 0 21G<48 154 276.363 404> 445 20G<48 154 269.946 397>
VStem: 48 106<0 145 280 465>
LayerCount: 2
Fore
SplineSet
286 0 m 1
 193 193 l 1
 154 145 l 1
 154 0 l 1
 48 0 l 1
 48 465 l 1
 154 465 l 1
 154 280 l 1
 284 465 l 1
 397 465 l 1
 259 276 l 1
 404 0 l 1
 286 0 l 1
EndSplineSet
EndChar

StartChar: l
Encoding: 108 108 188
Width: 202
GlyphClass: 2
Flags: W
HStem: 0 21G<48 154> 619 20G<48 154>
VStem: 48 106<0 639>
AnchorPoint: "Anchor-1" 101 0 basechar 0
AnchorPoint: "Anchor-0" 101 465 basechar 0
LayerCount: 2
Fore
SplineSet
48 639 m 1
 154 639 l 1
 154 0 l 1
 48 0 l 1
 48 639 l 1
EndSplineSet
EndChar

StartChar: lacute
Encoding: 314 314 189
Width: 202
GlyphClass: 2
Flags: W
HStem: 0 21G<48 154> 619 20G<48 154>
VStem: 48 106<0 639>
LayerCount: 2
Fore
SplineSet
128 664 m 1
 40 664 l 1
 116 781 l 1
 222 781 l 1
 223 778 l 1
 128 664 l 1
48 0 m 1
 48 639 l 1
 154 639 l 1
 154 0 l 1
 48 0 l 1
EndSplineSet
EndChar

StartChar: lcaron
Encoding: 318 318 190
Width: 279
GlyphClass: 2
Flags: W
HStem: 0 21G<48 154> 586 20G<200 322> 619 20G<48 154>
VStem: 48 106<0 639> 200 122<496 606>
LayerCount: 2
Fore
SplineSet
48 639 m 1
 154 639 l 1
 154 0 l 1
 48 0 l 1
 48 639 l 1
200 347 m 1
 248 485 l 1
 200 485 l 1
 200 606 l 1
 322 606 l 1
 322 496 l 1
 263 347 l 1
 200 347 l 1
EndSplineSet
EndChar

StartChar: lcommaaccent
Encoding: 316 316 191
Width: 202
GlyphClass: 2
Flags: W
HStem: -157 108<47 90> 0 21G<48 154> 619 20G<48 154>
VStem: 48 106<-148 -49 0 639>
LayerCount: 2
Fore
SplineSet
48 639 m 1
 154 639 l 1
 154 0 l 1
 48 0 l 1
 48 639 l 1
58 -232 m 1
 90 -157 l 1
 47 -157 l 1
 47 -49 l 1
 156 -49 l 1
 156 -148 l 1
 116 -232 l 1
 58 -232 l 1
EndSplineSet
EndChar

StartChar: ldot
Encoding: 320 320 192
Width: 295
GlyphClass: 2
Flags: W
HStem: 0 21G<48 154> 246 116<188 295> 619 20G<48 154>
VStem: 48 106<0 639> 188 107<246 362>
LayerCount: 2
Fore
SplineSet
48 639 m 1
 154 639 l 1
 154 0 l 1
 48 0 l 1
 48 639 l 1
188 362 m 1
 295 362 l 1
 295 246 l 1
 188 246 l 1
 188 362 l 1
EndSplineSet
Ligature2: "Ligature Substitution lookup 31 subtable" l periodcentered
EndChar

StartChar: lslash
Encoding: 322 322 193
Width: 202
GlyphClass: 2
Flags: W
HStem: 0 21G<48 154> 619 20G<48 154>
VStem: 48 106<0 204 289 299 384 639>
LayerCount: 2
Fore
SplineSet
224 361 m 1
 154 299 l 1
 154 0 l 1
 48 0 l 1
 48 204 l 1
 -12 151 l 1
 -12 236 l 1
 48 289 l 1
 48 639 l 1
 154 639 l 1
 154 384 l 1
 224 446 l 1
 224 361 l 1
EndSplineSet
EndChar

StartChar: m
Encoding: 109 109 194
Width: 644
GlyphClass: 2
Flags: W
HStem: 0 21G<49 155 271 376 492 598> 379 97<195.634 286 409.852 517> 445 20G<49 140.86>
VStem: 49 106<0 357.547> 49 88<428.727 465> 271 105<0 357.974> 492 106<0 368.96>
LayerCount: 2
Fore
SplineSet
484 476 m 0xce
 550 476 598 438 598 326 c 2
 598 0 l 1
 492 0 l 1
 492 297 l 2
 492 357 476 379 440 379 c 0
 406 379 376 345 376 293 c 2
 376 0 l 1
 271 0 l 1
 271 297 l 2
 271 357 254 379 218 379 c 0
 182 379 155 341 155 286 c 2
 155 0 l 1
 49 0 l 1xd6
 49 465 l 1
 137 465 l 1xae
 148 408 l 1
 153 408 l 1
 175 444 212 476 263 476 c 0
 309 476 345 456 363 408 c 1
 387 444 428 476 484 476 c 0xce
EndSplineSet
EndChar

StartChar: n
Encoding: 110 110 195
Width: 443
GlyphClass: 2
Flags: W
HStem: 0 21G<49 155 288 394> 379 97<198.318 273.988> 445 20G<49 140.86>
VStem: 49 106<0 353.914> 49 88<428.727 465> 288 106<0 364.027>
AnchorPoint: "Anchor-1" 222 0 basechar 0
AnchorPoint: "Anchor-0" 222 465 basechar 0
LayerCount: 2
Fore
SplineSet
271 476 m 0xcc
 342 476 394 436 394 326 c 2
 394 0 l 1
 288 0 l 1
 288 297 l 2
 288 357 265 379 227 379 c 0
 186 379 155 339 155 286 c 2
 155 0 l 1
 49 0 l 1xd4
 49 465 l 1
 137 465 l 1xac
 148 408 l 1
 153 408 l 1
 177 444 215 476 271 476 c 0xcc
EndSplineSet
Substitution2: "'sups' Superscript lookup 10 subtable" nsuperior
Substitution2: "'aalt' Access All Alternates lookup 0 subtable" nsuperior
EndChar

StartChar: nacute
Encoding: 324 324 196
Width: 443
GlyphClass: 2
Flags: W
HStem: 0 21G<49 155 288 394> 379 97<198.318 273.988> 445 20G<49 140.86> 619 20G<224.009 344>
VStem: 49 106<0 353.914> 49 88<428.727 465> 288 106<0 364.027>
LayerCount: 2
Fore
SplineSet
248 522 m 1x92
 161 522 l 1
 237 639 l 1
 343 639 l 1
 344 636 l 1
 248 522 l 1x92
271 476 m 0xd6
 342 476 394 436 394 326 c 2
 394 0 l 1
 288 0 l 1
 288 297 l 2
 288 357 265 379 227 379 c 0
 186 379 155 339 155 286 c 2
 155 0 l 1
 49 0 l 1xda
 49 465 l 1
 137 465 l 1xb6
 148 408 l 1
 153 408 l 1
 177 444 215 476 271 476 c 0xd6
EndSplineSet
EndChar

StartChar: napostrophe
Encoding: 329 329 197
Width: 598
GlyphClass: 2
Flags: W
HStem: 0 21G<203 309 443 549> 379 97<352.779 428.512> 445 20G<203 295.509> 498 108<59 103>
VStem: 59 110<507 606> 203 106<0 353.914> 203 89<425.1 465> 443 106<0 364.027>
LayerCount: 2
Fore
SplineSet
129 423 m 1x99
 72 423 l 1
 103 498 l 1
 59 498 l 1
 59 606 l 1
 169 606 l 1
 169 507 l 1
 129 423 l 1x99
425 476 m 0xdb
 497 476 549 436 549 326 c 2
 549 0 l 1
 443 0 l 1
 443 297 l 2
 443 357 420 379 382 379 c 0
 340 379 309 339 309 286 c 2
 309 0 l 1
 203 0 l 1xdd
 203 465 l 1
 292 465 l 1xbb
 302 408 l 1
 308 408 l 1
 331 444 370 476 425 476 c 0xdb
EndSplineSet
EndChar

StartChar: ncaron
Encoding: 328 328 198
Width: 443
GlyphClass: 2
Flags: W
HStem: 0 21G<49 155 288 394> 379 97<198.318 273.988> 445 20G<49 140.86> 619 20G<103 195.115 248.213 340>
VStem: 49 106<0 353.914> 49 88<428.727 465> 288 106<0 364.027>
LayerCount: 2
Fore
SplineSet
103 639 m 1x92
 182 639 l 1
 222 578 l 1
 261 639 l 1
 340 639 l 1
 265 520 l 1
 179 520 l 1
 103 639 l 1x92
271 476 m 0xd6
 342 476 394 436 394 326 c 2
 394 0 l 1
 288 0 l 1
 288 297 l 2
 288 357 265 379 227 379 c 0
 186 379 155 339 155 286 c 2
 155 0 l 1
 49 0 l 1xda
 49 465 l 1
 137 465 l 1xb6
 148 408 l 1
 153 408 l 1
 177 444 215 476 271 476 c 0xd6
EndSplineSet
EndChar

StartChar: ncommaaccent
Encoding: 326 326 199
Width: 443
GlyphClass: 2
Flags: W
HStem: -157 108<167 210> 0 21G<49 155 288 394> 379 97<198.318 273.988> 445 20G<49 140.86>
VStem: 49 106<0 353.914> 49 88<428.727 465> 167 109<-148 -49> 288 106<0 364.027>
LayerCount: 2
Fore
SplineSet
271 476 m 0xe7
 342 476 394 436 394 326 c 2
 394 0 l 1
 288 0 l 1
 288 297 l 2
 288 357 265 379 227 379 c 0
 186 379 155 339 155 286 c 2
 155 0 l 1
 49 0 l 1xeb
 49 465 l 1
 137 465 l 1xd7
 148 408 l 1
 153 408 l 1
 177 444 215 476 271 476 c 0xe7
179 -232 m 1
 210 -157 l 1
 167 -157 l 1
 167 -49 l 1
 276 -49 l 1
 276 -148 l 1
 236 -232 l 1
 179 -232 l 1
EndSplineSet
EndChar

StartChar: eng
Encoding: 331 331 200
Width: 443
GlyphClass: 2
Flags: W
HStem: -161 89<208.855 284.325> -150 78<208 283.54> 0 21G<49 155> 379 97<198.318 273.988> 445 20G<49 140.86>
VStem: 49 106<0 353.914> 49 88<428.727 465> 288 106<-67.7324 364.027>
LayerCount: 2
Fore
SplineSet
271 476 m 0x33
 342 476 394 436 394 326 c 2
 394 -36 l 2
 394 -98 371 -161 286 -161 c 0xb3
 260 -161 226 -156 208 -150 c 1
 208 -72 l 1x63
 247 -72 l 2
 274 -72 288 -57 288 -29 c 2
 288 297 l 2
 288 357 265 379 227 379 c 0
 186 379 155 339 155 286 c 2
 155 0 l 1
 49 0 l 1xb5
 49 465 l 1
 137 465 l 1x2b
 148 408 l 1
 153 408 l 1
 177 444 215 476 271 476 c 0x33
EndSplineSet
EndChar

StartChar: ntilde
Encoding: 241 241 201
Width: 443
GlyphClass: 2
Flags: W
HStem: 0 21G<49 155 288 394> 379 97<198.318 273.988> 445 20G<49 140.86> 531 75<211.074 308.449> 564 75<135.207 232.448>
VStem: 49 106<0 353.914> 49 88<428.727 465> 73 59<531 561.519> 288 106<0 364.027> 312 58<608.868 639>
LayerCount: 2
Fore
SplineSet
312 639 m 1x8940
 370 639 l 1x8940
 370 591 346 531 283 531 c 0x9140
 240 531 206 564 166 564 c 0x8940
 148 564 135 555 132 531 c 1
 73 531 l 1x9140
 73 580 98 639 160 639 c 0x8940
 203 639 238 606 278 606 c 0x9140
 296 606 309 614 312 639 c 1x8940
271 476 m 0xc2
 342 476 394 436 394 326 c 2
 394 0 l 1
 288 0 l 1
 288 297 l 2
 288 357 265 379 227 379 c 0
 186 379 155 339 155 286 c 2
 155 0 l 1
 49 0 l 1xc480
 49 465 l 1
 137 465 l 1xa2
 148 408 l 1
 153 408 l 1
 177 444 215 476 271 476 c 0xc2
EndSplineSet
EndChar

StartChar: o
Encoding: 111 111 202
Width: 443
GlyphClass: 2
Flags: W
HStem: -11 90<173.02 270.98> 386 90<173.02 270.98>
VStem: 36 111<106.934 357.718> 297 111<106.934 357.718>
AnchorPoint: "Anchor-1" 0 0 basechar 0
AnchorPoint: "Anchor-0" 222 465 basechar 0
LayerCount: 2
Fore
SplineSet
222 476 m 0
 346 476 408 400 408 232 c 0
 408 65 346 -11 222 -11 c 0
 98 -11 36 65 36 232 c 0
 36 400 98 476 222 476 c 0
222 386 m 0
 167 386 147 339 147 249 c 2
 147 216 l 2
 147 126 167 79 222 79 c 0
 277 79 297 126 297 216 c 2
 297 249 l 2
 297 339 277 386 222 386 c 0
EndSplineSet
Substitution2: "Single Substitution lookup 32 subtable" ordmasculine
Substitution2: "'aalt' Access All Alternates lookup 0 subtable" ordmasculine
EndChar

StartChar: oacute
Encoding: 243 243 203
Width: 443
GlyphClass: 2
Flags: W
HStem: -11 90<173.02 270.98> 386 90<173.02 270.98> 619 20G<224.009 344>
VStem: 36 111<106.934 357.718> 297 111<106.934 357.718>
LayerCount: 2
Fore
SplineSet
248 522 m 1
 161 522 l 1
 237 639 l 1
 343 639 l 1
 344 636 l 1
 248 522 l 1
222 476 m 0
 346 476 408 400 408 232 c 0
 408 65 346 -11 222 -11 c 0
 98 -11 36 65 36 232 c 0
 36 400 98 476 222 476 c 0
222 386 m 0
 167 386 147 339 147 249 c 2
 147 216 l 2
 147 126 167 79 222 79 c 0
 277 79 297 126 297 216 c 2
 297 249 l 2
 297 339 277 386 222 386 c 0
EndSplineSet
EndChar

StartChar: obreve
Encoding: 335 335 204
Width: 443
GlyphClass: 2
Flags: W
HStem: -11 90<173.02 270.98> 386 90<173.02 270.98> 545 65<172.122 270.586> 619 20G<103 170 273 339>
VStem: 36 111<106.934 357.718> 103 66<618.149 639> 274 65<618.149 639> 297 111<106.934 357.718>
LayerCount: 2
Fore
SplineSet
274 639 m 1xf6
 339 639 l 1
 339 595 294 545 221 545 c 0
 149 545 103 595 103 639 c 1
 169 639 l 1
 171 627 192 610 221 610 c 0
 251 610 272 627 274 639 c 1xf6
222 476 m 0
 346 476 408 400 408 232 c 0
 408 65 346 -11 222 -11 c 0
 98 -11 36 65 36 232 c 0xf9
 36 400 98 476 222 476 c 0
222 386 m 0
 167 386 147 339 147 249 c 2
 147 216 l 2
 147 126 167 79 222 79 c 0
 277 79 297 126 297 216 c 2
 297 249 l 2
 297 339 277 386 222 386 c 0
EndSplineSet
EndChar

StartChar: ocircumflex
Encoding: 244 244 205
Width: 443
GlyphClass: 2
Flags: W
HStem: -11 90<173.02 270.98> 386 90<173.02 270.98> 619 20G<166.227 277.605>
VStem: 36 111<106.934 357.718> 297 111<106.934 357.718>
LayerCount: 2
Fore
SplineSet
222 581 m 1
 182 520 l 1
 103 520 l 1
 179 639 l 1
 265 639 l 1
 340 520 l 1
 261 520 l 1
 222 581 l 1
222 476 m 0
 346 476 408 400 408 232 c 0
 408 65 346 -11 222 -11 c 0
 98 -11 36 65 36 232 c 0
 36 400 98 476 222 476 c 0
222 386 m 0
 167 386 147 339 147 249 c 2
 147 216 l 2
 147 126 167 79 222 79 c 0
 277 79 297 126 297 216 c 2
 297 249 l 2
 297 339 277 386 222 386 c 0
EndSplineSet
EndChar

StartChar: odieresis
Encoding: 246 246 206
Width: 443
GlyphClass: 2
Flags: W
HStem: -11 90<173.02 270.98> 386 90<173.02 270.98> 543 96<100 188 255 343>
VStem: 36 111<106.934 357.718> 100 88<543 639> 255 88<543 639> 297 111<106.934 357.718>
LayerCount: 2
Fore
SplineSet
100 543 m 1xe8
 100 639 l 1
 188 639 l 1
 188 543 l 1
 100 543 l 1xe8
255 543 m 1xe4
 255 639 l 1
 343 639 l 1
 343 543 l 1
 255 543 l 1xe4
222 476 m 0
 346 476 408 400 408 232 c 0
 408 65 346 -11 222 -11 c 0
 98 -11 36 65 36 232 c 0xf2
 36 400 98 476 222 476 c 0
222 386 m 0
 167 386 147 339 147 249 c 2
 147 216 l 2
 147 126 167 79 222 79 c 0
 277 79 297 126 297 216 c 2
 297 249 l 2
 297 339 277 386 222 386 c 0
EndSplineSet
EndChar

StartChar: ograve
Encoding: 242 242 207
Width: 443
GlyphClass: 2
Flags: W
HStem: -11 90<173.02 270.98> 386 90<173.02 270.98> 619 20G<99 218.991>
VStem: 36 111<106.934 357.718> 297 111<106.934 357.718>
LayerCount: 2
Fore
SplineSet
194 522 m 1
 99 636 l 1
 100 639 l 1
 206 639 l 1
 282 522 l 1
 194 522 l 1
222 476 m 0
 346 476 408 400 408 232 c 0
 408 65 346 -11 222 -11 c 0
 98 -11 36 65 36 232 c 0
 36 400 98 476 222 476 c 0
222 386 m 0
 167 386 147 339 147 249 c 2
 147 216 l 2
 147 126 167 79 222 79 c 0
 277 79 297 126 297 216 c 2
 297 249 l 2
 297 339 277 386 222 386 c 0
EndSplineSet
EndChar

StartChar: ohungarumlaut
Encoding: 337 337 208
Width: 443
GlyphClass: 2
Flags: W
HStem: -11 90<173.02 270.98> 386 90<173.02 270.98> 619 20G<167.598 266 291.598 390>
VStem: 36 111<106.934 357.718> 297 111<106.934 357.718>
LayerCount: 2
Fore
SplineSet
122 522 m 1
 177 639 l 1
 265 639 l 1
 266 636 l 1
 192 522 l 1
 122 522 l 1
246 522 m 1
 301 639 l 1
 389 639 l 1
 390 636 l 1
 316 522 l 1
 246 522 l 1
222 476 m 0
 346 476 408 400 408 232 c 0
 408 65 346 -11 222 -11 c 0
 98 -11 36 65 36 232 c 0
 36 400 98 476 222 476 c 0
222 386 m 0
 167 386 147 339 147 249 c 2
 147 216 l 2
 147 126 167 79 222 79 c 0
 277 79 297 126 297 216 c 2
 297 249 l 2
 297 339 277 386 222 386 c 0
EndSplineSet
EndChar

StartChar: omacron
Encoding: 333 333 209
Width: 443
GlyphClass: 2
Flags: W
HStem: -11 90<173.02 270.98> 386 90<173.02 270.98> 530 76<109 334>
VStem: 36 111<106.934 357.718> 297 111<106.934 357.718>
LayerCount: 2
Fore
SplineSet
109 606 m 1
 334 606 l 1
 334 530 l 1
 109 530 l 1
 109 606 l 1
222 476 m 0
 346 476 408 400 408 232 c 0
 408 65 346 -11 222 -11 c 0
 98 -11 36 65 36 232 c 0
 36 400 98 476 222 476 c 0
222 386 m 0
 167 386 147 339 147 249 c 2
 147 216 l 2
 147 126 167 79 222 79 c 0
 277 79 297 126 297 216 c 2
 297 249 l 2
 297 339 277 386 222 386 c 0
EndSplineSet
EndChar

StartChar: oslash
Encoding: 248 248 210
Width: 443
GlyphClass: 2
Flags: W
HStem: -11 90<179.945 270.98> 386 90<173.02 262.637>
VStem: 36 111<165.088 357.718> 297 111<106.934 303.165>
AnchorPoint: "Anchor-1" 0 0 basechar 0
AnchorPoint: "Anchor-0" 222 465 basechar 0
LayerCount: 2
Fore
SplineSet
396 493 m 1
 357 422 l 1
 391 382 408 319 408 232 c 0
 408 65 346 -11 222 -11 c 0
 187 -11 157 -4 132 8 c 1
 112 -28 l 1
 46 -28 l 1
 86 44 l 1
 53 84 36 146 36 232 c 0
 36 400 98 476 222 476 c 0
 256 476 286 469 310 457 c 1
 330 493 l 1
 396 493 l 1
222 386 m 0
 167 386 147 339 147 249 c 2
 147 216 l 2
 147 195 148 178 149 162 c 1
 263 372 l 1
 253 381 239 386 222 386 c 0
293 305 m 1
 179 94 l 1
 190 84 204 79 222 79 c 0
 277 79 297 126 297 216 c 2
 297 249 l 2
 297 270 295 288 293 305 c 1
EndSplineSet
EndChar

StartChar: oslashacute
Encoding: 511 511 211
Width: 443
GlyphClass: 2
Flags: W
HStem: -11 90<179.945 270.98> 386 90<173.02 262.637> 619 20G<224.009 344>
VStem: 36 111<165.088 357.718> 297 111<106.934 303.165>
LayerCount: 2
Fore
SplineSet
248 522 m 1
 161 522 l 1
 237 639 l 1
 343 639 l 1
 344 636 l 1
 248 522 l 1
396 493 m 1
 357 422 l 1
 391 382 408 319 408 232 c 0
 408 65 346 -11 222 -11 c 0
 187 -11 157 -4 132 8 c 1
 112 -28 l 1
 46 -28 l 1
 86 44 l 1
 53 84 36 146 36 232 c 0
 36 400 98 476 222 476 c 0
 256 476 286 469 310 457 c 1
 330 493 l 1
 396 493 l 1
222 386 m 0
 167 386 147 339 147 249 c 2
 147 216 l 2
 147 195 148 178 149 162 c 1
 263 372 l 1
 253 381 239 386 222 386 c 0
293 305 m 1
 179 94 l 1
 190 84 204 79 222 79 c 0
 277 79 297 126 297 216 c 2
 297 249 l 2
 297 270 295 288 293 305 c 1
EndSplineSet
EndChar

StartChar: otilde
Encoding: 245 245 212
Width: 443
GlyphClass: 2
Flags: W
HStem: -11 90<173.02 270.98> 386 90<173.02 270.98> 531 75<211.074 308.449> 564 75<135.207 232.448>
VStem: 36 111<106.934 357.718> 73 59<531 561.519> 297 111<106.934 357.718> 312 58<608.868 639>
LayerCount: 2
Fore
SplineSet
312 639 m 1xd5
 370 639 l 1xd5
 370 591 346 531 283 531 c 0xe5
 240 531 206 564 166 564 c 0xd5
 148 564 135 555 132 531 c 1
 73 531 l 1xe5
 73 580 98 639 160 639 c 0xd5
 203 639 238 606 278 606 c 0xe5
 296 606 309 614 312 639 c 1xd5
222 476 m 0
 346 476 408 400 408 232 c 0
 408 65 346 -11 222 -11 c 0
 98 -11 36 65 36 232 c 0xca
 36 400 98 476 222 476 c 0
222 386 m 0
 167 386 147 339 147 249 c 2
 147 216 l 2
 147 126 167 79 222 79 c 0
 277 79 297 126 297 216 c 2
 297 249 l 2
 297 339 277 386 222 386 c 0
EndSplineSet
EndChar

StartChar: oe
Encoding: 339 339 213
Width: 684
GlyphClass: 2
Flags: W
HStem: -11 87<176.987 268.554 433.851 520.221> 206 77<409 533> 389 87<176.987 268.541 431.648 515.521>
VStem: 36 111<106.934 357.718> 297 111<105.848 206 283 359.347> 533 111<87.2514 164 283 373.127>
AnchorPoint: "Anchor-1" 0 0 basechar 0
AnchorPoint: "Anchor-0" 342 465 basechar 0
LayerCount: 2
Fore
SplineSet
476 476 m 0
 589 476 644 400 644 232 c 2
 644 206 l 1
 408 206 l 1
 409 123 428 76 480 76 c 0
 516 76 539 109 539 164 c 1
 644 164 l 1
 644 45 575 -11 480 -11 c 0
 425 -11 383 8 353 47 c 1
 322 8 278 -11 222 -11 c 0
 98 -11 36 65 36 232 c 0
 36 400 98 476 222 476 c 0
 278 476 322 457 352 417 c 1
 382 457 423 476 476 476 c 0
476 389 m 0
 431 389 413 350 409 283 c 1
 533 283 l 1
 533 350 515 389 476 389 c 0
222 386 m 0
 167 386 147 339 147 249 c 2
 147 216 l 2
 147 126 167 79 222 79 c 0
 277 79 297 126 297 216 c 2
 297 249 l 2
 297 339 277 386 222 386 c 0
EndSplineSet
EndChar

StartChar: p
Encoding: 112 112 214
Width: 443
GlyphClass: 2
Flags: W
HStem: -153 21G<49 155> -11 97<190.461 271.147> 379 97<190.468 270.688> 445 20G<49 140.86>
VStem: 49 106<-153 48 110.344 355.04> 49 88<428.727 465> 296 111<111.483 352.274>
LayerCount: 2
Fore
SplineSet
257 476 m 0xe6
 349 476 407 400 407 232 c 0
 407 63 345 -11 263 -11 c 0
 216 -11 176 11 159 48 c 1
 155 48 l 1
 155 -153 l 1
 49 -153 l 1xea
 49 465 l 1
 137 465 l 1xd6
 148 408 l 1
 152 408 l 1
 175 453 213 476 257 476 c 0xe6
225 379 m 0
 174 379 155 333 155 249 c 2
 155 217 l 2
 155 133 174 86 225 86 c 0
 277 86 296 132 296 216 c 2
 296 249 l 2
 296 333 277 379 225 379 c 0
EndSplineSet
EndChar

StartChar: thorn
Encoding: 254 254 215
Width: 443
GlyphClass: 2
Flags: W
HStem: -153 21G<49 155> -11 97<190.461 271.147> 379 97<190.899 270.688> 619 20G<49 155>
VStem: 49 106<-153 48 110.344 355.04 413 639> 296 111<111.483 352.274>
LayerCount: 2
Fore
SplineSet
257 476 m 0
 349 476 407 400 407 232 c 0
 407 63 345 -11 263 -11 c 0
 216 -11 176 11 159 48 c 1
 155 48 l 1
 155 -153 l 1
 49 -153 l 1
 49 639 l 1
 155 639 l 1
 155 413 l 1
 178 455 215 476 257 476 c 0
296 216 m 2
 296 249 l 2
 296 333 277 379 225 379 c 0
 174 379 155 333 155 249 c 2
 155 217 l 2
 155 133 174 86 225 86 c 0
 277 86 296 132 296 216 c 2
EndSplineSet
EndChar

StartChar: q
Encoding: 113 113 216
Width: 443
GlyphClass: 2
Flags: W
HStem: -153 21G<288 394> -11 97<171.74 252.341> 379 97<172.199 253.154> 445 20G<302.14 394>
VStem: 36 111<111.483 352.274> 288 106<-153 48 110.344 355.04> 306 88<428.727 465>
LayerCount: 2
Fore
SplineSet
186 476 m 0xec
 230 476 268 453 291 408 c 1
 295 408 l 1
 306 465 l 1
 394 465 l 1xda
 394 -153 l 1
 288 -153 l 1
 288 48 l 1
 284 48 l 1
 267 11 227 -11 180 -11 c 0
 98 -11 36 63 36 232 c 0
 36 400 94 476 186 476 c 0xec
217 379 m 0xec
 166 379 147 333 147 249 c 2
 147 216 l 2
 147 132 166 86 217 86 c 0
 269 86 288 133 288 217 c 2
 288 249 l 2
 288 333 269 379 217 379 c 0xec
EndSplineSet
EndChar

StartChar: r
Encoding: 114 114 217
Width: 282
GlyphClass: 2
Flags: W
HStem: 0 21G<49 155> 366 110<185.543 278.988> 366 103<236.304 279>
VStem: 49 106<0 338.336> 49 88<425.333 465>
AnchorPoint: "Anchor-1" 141 0 basechar 0
AnchorPoint: "Anchor-0" 141 465 basechar 0
LayerCount: 2
Fore
SplineSet
235 476 m 0xd0
 263 476 279 469 279 469 c 1
 279 366 l 1xb0
 241 366 l 2
 195 366 155 341 155 259 c 2
 155 0 l 1
 49 0 l 1xd0
 49 465 l 1
 137 465 l 1xc8
 149 397 l 1
 155 397 l 1
 167 436 188 476 235 476 c 0xd0
EndSplineSet
EndChar

StartChar: racute
Encoding: 341 341 218
Width: 282
GlyphClass: 2
Flags: W
HStem: 0 21G<49 155> 366 110<185.543 278.988> 366 103<236.304 279> 619 20G<100.009 221>
VStem: 49 106<0 338.336> 49 88<425.333 465>
LayerCount: 2
Fore
SplineSet
126 522 m 1x90
 37 522 l 1
 113 639 l 1
 220 639 l 1
 221 636 l 1
 126 522 l 1x90
235 476 m 0xd8
 263 476 279 469 279 469 c 1
 279 366 l 1xb8
 241 366 l 2
 195 366 155 341 155 259 c 2
 155 0 l 1
 49 0 l 1xd8
 49 465 l 1
 137 465 l 1xd4
 149 397 l 1
 155 397 l 1
 167 436 188 476 235 476 c 0xd8
EndSplineSet
EndChar

StartChar: rcaron
Encoding: 345 345 219
Width: 282
GlyphClass: 2
Flags: W
HStem: 0 21G<49 155> 366 110<185.543 278.988> 366 103<236.304 279> 619 20G<-20 72.1148 125.213 217>
VStem: 49 106<0 338.336> 49 88<425.333 465>
LayerCount: 2
Fore
SplineSet
-20 639 m 1x90
 59 639 l 1
 99 578 l 1
 138 639 l 1
 217 639 l 1
 142 520 l 1
 56 520 l 1
 -20 639 l 1x90
235 476 m 0xd8
 263 476 279 469 279 469 c 1
 279 366 l 1xb8
 241 366 l 2
 195 366 155 341 155 259 c 2
 155 0 l 1
 49 0 l 1xd8
 49 465 l 1
 137 465 l 1xd4
 149 397 l 1
 155 397 l 1
 167 436 188 476 235 476 c 0xd8
EndSplineSet
EndChar

StartChar: rcommaaccent
Encoding: 343 343 220
Width: 282
GlyphClass: 2
Flags: W
HStem: -157 108<52 95> 0 21G<49 155> 366 110<185.543 278.988> 366 103<236.304 279>
VStem: 49 106<0 338.336> 49 88<425.333 465> 52 110<-148 -49>
LayerCount: 2
Fore
SplineSet
235 476 m 0xe8
 263 476 279 469 279 469 c 1
 279 366 l 1xd8
 241 366 l 2
 195 366 155 341 155 259 c 2
 155 0 l 1
 49 0 l 1xe8
 49 465 l 1
 137 465 l 1xe4
 149 397 l 1
 155 397 l 1
 167 436 188 476 235 476 c 0xe8
64 -232 m 1
 95 -157 l 1
 52 -157 l 1
 52 -49 l 1
 162 -49 l 1
 162 -148 l 1xc2
 121 -232 l 1
 64 -232 l 1
EndSplineSet
EndChar

StartChar: s
Encoding: 115 115 221
Width: 403
GlyphClass: 2
Flags: W
HStem: -11 87<151.33 252.61> 389 87<151.617 241.977>
VStem: 29 109<90.6641 148> 36 108<308.52 379.68> 251 109<329 380.753> 263 108<87.1153 165.428>
AnchorPoint: "Anchor-1" 202 0 basechar 0
AnchorPoint: "Anchor-0" 202 465 basechar 0
LayerCount: 2
Fore
SplineSet
202 476 m 0xd4
 291 476 360 429 360 349 c 0
 360 339 359 330 359 329 c 1
 251 329 l 1
 251 331 l 1
 250 370 231 389 199 389 c 0
 166 389 144 371 144 343 c 0xd8
 144 253 371 324 371 140 c 0
 371 27 297 -11 198 -11 c 0
 91 -11 29 49 29 137 c 0
 29 141 30 148 30 148 c 1
 138 148 l 1
 138 141 l 1xe4
 139 92 171 76 202 76 c 0
 230 76 263 88 263 126 c 0
 263 225 36 155 36 334 c 0
 36 429 110 476 202 476 c 0xd4
EndSplineSet
EndChar

StartChar: sacute
Encoding: 347 347 222
Width: 403
GlyphClass: 2
Flags: W
HStem: -11 87<151.33 252.61> 389 87<151.617 241.977> 619 20G<204.009 324>
VStem: 29 109<90.6641 148> 36 108<308.52 379.68> 251 109<329 380.753> 263 108<87.1153 165.428>
LayerCount: 2
Fore
SplineSet
228 522 m 1xe0
 141 522 l 1
 217 639 l 1
 323 639 l 1
 324 636 l 1
 228 522 l 1xe0
202 476 m 0
 291 476 360 429 360 349 c 0
 360 339 359 330 359 329 c 1
 251 329 l 1
 251 331 l 1
 250 370 231 389 199 389 c 0
 166 389 144 371 144 343 c 0xec
 144 253 371 324 371 140 c 0
 371 27 297 -11 198 -11 c 0
 91 -11 29 49 29 137 c 0
 29 141 30 148 30 148 c 1
 138 148 l 1
 138 141 l 1xf2
 139 92 171 76 202 76 c 0
 230 76 263 88 263 126 c 0
 263 225 36 155 36 334 c 0xea
 36 429 110 476 202 476 c 0
EndSplineSet
EndChar

StartChar: scaron
Encoding: 353 353 223
Width: 403
GlyphClass: 2
Flags: W
HStem: -11 87<151.33 252.61> 389 87<151.617 241.977> 619 20G<83 175.787 228.213 321>
VStem: 29 109<90.6641 148> 36 108<308.52 379.68> 251 109<329 380.753> 263 108<87.1153 165.428>
LayerCount: 2
Fore
SplineSet
159 520 m 1xe0
 83 639 l 1
 163 639 l 1
 202 578 l 1
 241 639 l 1
 321 639 l 1
 246 520 l 1
 159 520 l 1xe0
202 476 m 0
 291 476 360 429 360 349 c 0
 360 339 359 330 359 329 c 1
 251 329 l 1
 251 331 l 1
 250 370 231 389 199 389 c 0
 166 389 144 371 144 343 c 0xec
 144 253 371 324 371 140 c 0
 371 27 297 -11 198 -11 c 0
 91 -11 29 49 29 137 c 0
 29 141 30 148 30 148 c 1
 138 148 l 1
 138 141 l 1xf2
 139 92 171 76 202 76 c 0
 230 76 263 88 263 126 c 0
 263 225 36 155 36 334 c 0xea
 36 429 110 476 202 476 c 0
EndSplineSet
EndChar

StartChar: scedilla
Encoding: 351 351 224
Width: 403
GlyphClass: 2
Flags: W
HStem: -161 50<117.989 209.98> -154 43<117 189.781> -10 86<151.455 159 219 254.492> 389 87<151.617 241.977>
VStem: 29 109<89.3236 148> 36 108<308.52 379.68> 211 76<-109.873 -68.6409> 251 109<329 380.753> 263 108<86.6734 165.428>
LayerCount: 2
Fore
SplineSet
202 476 m 0xb480
 291 476 360 429 360 349 c 0
 360 339 359 330 359 329 c 1
 251 329 l 1
 251 331 l 1xb5
 250 370 231 389 199 389 c 0
 166 389 144 371 144 343 c 0
 144 253 371 324 371 140 c 0xb480
 371 34 307 -4 219 -10 c 1
 217 -29 l 1
 255 -32 287 -49 287 -89 c 0
 287 -149 229 -161 191 -161 c 0xb2
 165 -161 138 -158 117 -154 c 1
 117 -111 l 1x72
 179 -111 l 2
 199 -111 211 -106 211 -89 c 0
 211 -75 203 -68 181 -68 c 2
 152 -68 l 1
 159 -8 l 1
 76 4 29 59 29 137 c 0
 29 141 30 148 30 148 c 1
 138 148 l 1
 138 141 l 1xba
 139 92 171 76 202 76 c 0
 230 76 263 88 263 126 c 0
 263 225 36 155 36 334 c 0
 36 429 110 476 202 476 c 0xb480
EndSplineSet
Substitution2: "'locl' Localized Forms in Latin lookup 5 subtable" scommaaccent
Substitution2: "'locl' Localized Forms in Latin lookup 4 subtable" scommaaccent
Substitution2: "'aalt' Access All Alternates lookup 0 subtable" scommaaccent
EndChar

StartChar: scircumflex
Encoding: 349 349 225
Width: 403
GlyphClass: 2
Flags: W
HStem: -11 87<151.33 252.61> 389 87<151.617 241.977> 619 20G<146.227 258.605>
VStem: 29 109<90.6641 148> 36 108<308.52 379.68> 251 109<329 380.753> 263 108<87.1153 165.428>
LayerCount: 2
Fore
SplineSet
241 520 m 1xe0
 202 581 l 1
 163 520 l 1
 83 520 l 1
 159 639 l 1
 246 639 l 1
 321 520 l 1
 241 520 l 1xe0
202 476 m 0
 291 476 360 429 360 349 c 0
 360 339 359 330 359 329 c 1
 251 329 l 1
 251 331 l 1
 250 370 231 389 199 389 c 0
 166 389 144 371 144 343 c 0xec
 144 253 371 324 371 140 c 0
 371 27 297 -11 198 -11 c 0
 91 -11 29 49 29 137 c 0
 29 141 30 148 30 148 c 1
 138 148 l 1
 138 141 l 1xf2
 139 92 171 76 202 76 c 0
 230 76 263 88 263 126 c 0
 263 225 36 155 36 334 c 0xea
 36 429 110 476 202 476 c 0
EndSplineSet
EndChar

StartChar: scommaaccent
Encoding: 537 537 226
Width: 403
GlyphClass: 2
Flags: W
HStem: -157 108<147 191> -11 87<151.33 252.61> 389 87<151.617 241.977>
VStem: 29 109<90.6641 148> 36 108<308.52 379.68> 147 110<-148 -49> 251 109<329 380.753> 263 108<87.1153 165.428>
AnchorPoint: "Anchor-1" 202 0 basechar 0
AnchorPoint: "Anchor-0" 202 465 basechar 0
LayerCount: 2
Fore
SplineSet
202 476 m 0xe9
 291 476 360 429 360 349 c 0
 360 339 359 330 359 329 c 1
 251 329 l 1
 251 331 l 1
 250 370 231 389 199 389 c 0
 166 389 144 371 144 343 c 0xea
 144 253 371 324 371 140 c 0
 371 27 297 -11 198 -11 c 0
 91 -11 29 49 29 137 c 0
 29 141 30 148 30 148 c 1
 138 148 l 1
 138 141 l 1xf1
 139 92 171 76 202 76 c 0
 230 76 263 88 263 126 c 0
 263 225 36 155 36 334 c 0
 36 429 110 476 202 476 c 0xe9
159 -232 m 1
 191 -157 l 1
 147 -157 l 1
 147 -49 l 1
 257 -49 l 1
 257 -148 l 1xe4
 216 -232 l 1
 159 -232 l 1
EndSplineSet
EndChar

StartChar: germandbls
Encoding: 223 223 227
Width: 443
GlyphClass: 2
Flags: W
HStem: 0 90<184 277.029> 286 100<184 266.992> 560 90<166.639 274.297>
VStem: 35 106<0 532.573> 293 107<411.38 539.349> 311 107<123.955 254.3>
LayerCount: 2
Fore
SplineSet
225 650 m 0xf8
 325 650 400 588 400 484 c 0xf8
 400 426 365 369 316 349 c 1
 316 346 l 1
 376 324 418 257 418 189 c 0
 418 75 340 0 241 0 c 2
 184 0 l 1
 184 90 l 1
 230 90 l 2
 275 90 311 136 311 190 c 0xf4
 311 243 275 286 230 286 c 2
 184 286 l 1
 184 386 l 1
 227 386 l 2
 263 386 293 430 293 482 c 0
 293 528 268 560 220 560 c 0
 173 560 141 527 141 467 c 2
 141 0 l 1
 35 0 l 1
 35 460 l 2
 35 595 118 650 225 650 c 0xf8
EndSplineSet
EndChar

StartChar: longs
Encoding: 383 383 228
Width: 202
GlyphClass: 2
Flags: W
HStem: 0 21G<55 161> 376 89<8 55> 557 89<163.406 240.19> 557 79<165.179 241>
VStem: 8 153<376 465> 55 106<0 376 465 553.3>
LayerCount: 2
Fore
SplineSet
164 646 m 0xe4
 189 646 224 641 241 636 c 1
 241 557 l 1xd4
 198 557 l 2
 174 557 161 544 161 519 c 2
 161 0 l 1
 55 0 l 1
 55 376 l 1xe4
 8 376 l 1
 8 465 l 1xe8
 55 465 l 1
 55 522 l 2
 55 583 80 646 164 646 c 0xe4
EndSplineSet
EndChar

StartChar: t
Encoding: 116 116 229
Width: 241
GlyphClass: 2
Flags: W
HStem: -11 90<163.406 227.287> 0 79<164.989 228> 376 89<8 55 161 228>
VStem: 55 106<82.2676 376 465 522.312> 71 90<538.688 596>
AnchorPoint: "Anchor-1" 146 0 basechar 0
AnchorPoint: "Anchor-0" 0 0 basechar 0
LayerCount: 2
Fore
SplineSet
228 376 m 1xb0
 161 376 l 1
 161 117 l 2
 161 92 174 79 198 79 c 2xb0
 228 79 l 1
 228 0 l 1x70
 213 -5 185 -11 164 -11 c 0
 80 -11 55 52 55 114 c 2
 55 376 l 1
 8 376 l 1
 8 465 l 1
 55 465 l 1xb0
 71 596 l 1
 161 596 l 1xa8
 161 465 l 1
 228 465 l 1
 228 376 l 1xb0
EndSplineSet
EndChar

StartChar: tbar
Encoding: 359 359 230
Width: 241
GlyphClass: 2
Flags: W
HStem: -11 90<163.406 227.287> 0 79<164.989 228> 232 77<10 55 161 225> 376 89<8 55 161 228>
VStem: 8 220<232 309 376 465> 55 106<82.2676 232 309 376 465 522.312> 71 90<538.688 596>
LayerCount: 2
Fore
SplineSet
228 465 m 1xb8
 228 376 l 1xb8
 161 376 l 1
 161 309 l 1
 225 309 l 1
 225 232 l 1
 161 232 l 1
 161 117 l 2
 161 92 174 79 198 79 c 2xb4
 228 79 l 1
 228 0 l 1x78
 213 -5 185 -11 164 -11 c 0
 80 -11 55 52 55 114 c 2
 55 232 l 1
 10 232 l 1
 10 309 l 1
 55 309 l 1
 55 376 l 1xb4
 8 376 l 1
 8 465 l 1xb8
 55 465 l 1xb4
 71 596 l 1
 161 596 l 1xb2
 161 465 l 1xb4
 228 465 l 1xb8
EndSplineSet
EndChar

StartChar: tcaron
Encoding: 357 357 231
Width: 347
GlyphClass: 2
Flags: W
HStem: -11 90<163.406 227.287> 0 79<164.989 228> 376 89<8 55 161 228> 586 20G<265 387>
VStem: 55 106<82.2676 376 465 522.312> 71 90<538.688 596> 265 122<496 606>
LayerCount: 2
Fore
SplineSet
276 376 m 1x32
 314 485 l 1
 265 485 l 1
 265 606 l 1
 387 606 l 1
 387 496 l 1
 339 376 l 1
 276 376 l 1x32
228 376 m 1
 161 376 l 1
 161 117 l 2
 161 92 174 79 198 79 c 2xba
 228 79 l 1
 228 0 l 1x7a
 213 -5 185 -11 164 -11 c 0
 80 -11 55 52 55 114 c 2
 55 376 l 1
 8 376 l 1
 8 465 l 1
 55 465 l 1xba
 71 596 l 1
 161 596 l 1xb6
 161 465 l 1xba
 228 465 l 1
 228 376 l 1
EndSplineSet
EndChar

StartChar: tcedilla
Encoding: 355 355 232
Width: 241
GlyphClass: 2
Flags: W
HStem: -161 50<60.9895 152.98> -154 43<60 132.826> -11 90<163.406 227.287> 0 79<163.406 228> 376 89<8 55 161 228>
VStem: 55 106<81.3438 376 465 522.312> 71 90<538.688 596> 154 76<-109.921 -68.6409>
AnchorPoint: "Anchor-1" 146 0 basechar 0
AnchorPoint: "Anchor-0" 0 0 basechar 0
LayerCount: 2
Fore
SplineSet
163 -11 m 1x2c
 161 -29 l 1x2a
 199 -32 230 -49 230 -89 c 0
 230 -149 172 -161 134 -161 c 0xa9
 109 -161 81 -158 60 -154 c 1
 60 -111 l 1x49
 123 -111 l 2
 142 -111 154 -106 154 -89 c 0x89
 154 -75 147 -68 124 -68 c 2
 95 -68 l 1
 104 4 l 1
 67 26 55 70 55 114 c 2
 55 376 l 1
 8 376 l 1
 8 465 l 1
 55 465 l 1x8c
 71 596 l 1
 161 596 l 1x8a
 161 465 l 1
 228 465 l 1
 228 376 l 1
 161 376 l 1
 161 117 l 2
 161 92 174 79 198 79 c 2xac
 228 79 l 1
 228 0 l 1x1c
 213 -5 185 -11 164 -11 c 2
 163 -11 l 1x2c
EndSplineSet
Substitution2: "'locl' Localized Forms in Latin lookup 5 subtable" tcommaaccent
Substitution2: "'locl' Localized Forms in Latin lookup 4 subtable" tcommaaccent
Substitution2: "'aalt' Access All Alternates lookup 0 subtable" tcommaaccent
EndChar

StartChar: tcommaaccent
Encoding: 539 539 233
Width: 241
GlyphClass: 2
Flags: W
HStem: -157 108<66 110> -11 90<163.406 227.287> 0 79<164.989 228> 376 89<8 55 161 228>
VStem: 55 106<82.2676 376 465 522.312> 66 110<-148 -49> 71 90<538.688 596>
LayerCount: 2
Fore
SplineSet
228 376 m 1xd8
 161 376 l 1
 161 117 l 2
 161 92 174 79 198 79 c 2xd8
 228 79 l 1
 228 0 l 1xb8
 213 -5 185 -11 164 -11 c 0
 80 -11 55 52 55 114 c 2
 55 376 l 1
 8 376 l 1
 8 465 l 1
 55 465 l 1xd8
 71 596 l 1
 161 596 l 1xd2
 161 465 l 1
 228 465 l 1
 228 376 l 1xd8
78 -232 m 1
 110 -157 l 1
 66 -157 l 1
 66 -49 l 1
 176 -49 l 1
 176 -148 l 1x94
 135 -232 l 1
 78 -232 l 1
EndSplineSet
EndChar

StartChar: u
Encoding: 117 117 234
Width: 443
GlyphClass: 2
Flags: W
HStem: -11 97<168.661 244.682> 0 21G<302.14 394> 445 20G<49 155 288 394>
VStem: 49 106<100.973 465> 288 106<110.496 465> 306 88<0 36.2727>
AnchorPoint: "Anchor-1" 0 0 basechar 0
AnchorPoint: "Anchor-0" 222 465 basechar 0
LayerCount: 2
Fore
SplineSet
295 57 m 1x74
 290 57 l 1
 266 21 228 -11 172 -11 c 0
 101 -11 49 29 49 139 c 2
 49 465 l 1
 155 465 l 1
 155 168 l 2
 155 108 176 86 216 86 c 0
 257 86 288 125 288 177 c 2
 288 465 l 1
 394 465 l 1xb8
 394 0 l 1
 306 0 l 1
 295 57 l 1x74
EndSplineSet
EndChar

StartChar: uacute
Encoding: 250 250 235
Width: 443
GlyphClass: 2
Flags: W
HStem: -11 97<168.661 244.682> 0 21G<302.14 394> 445 20G<49 155 288 394> 619 20G<224.009 344>
VStem: 49 106<100.973 465> 288 106<110.496 465> 306 88<0 36.2727>
LayerCount: 2
Fore
SplineSet
248 522 m 1x38
 161 522 l 1
 237 639 l 1
 343 639 l 1
 344 636 l 1
 248 522 l 1x38
306 0 m 1x7a
 295 57 l 1
 290 57 l 1
 266 21 228 -11 172 -11 c 0
 101 -11 49 29 49 139 c 2
 49 465 l 1
 155 465 l 1
 155 168 l 2
 155 108 176 86 216 86 c 0
 257 86 288 125 288 177 c 2
 288 465 l 1
 394 465 l 1xbc
 394 0 l 1
 306 0 l 1x7a
EndSplineSet
EndChar

StartChar: ubreve
Encoding: 365 365 236
Width: 443
GlyphClass: 2
Flags: W
HStem: -11 97<168.661 244.682> 0 21G<302.14 394> 445 20G<49 155 288 394> 545 65<172.122 270.586> 619 20G<103 170 273 339>
VStem: 49 106<100.973 465> 103 66<618.149 639> 274 65<618.149 639> 288 106<110.496 465> 306 88<0 36.2727>
LayerCount: 2
Fore
SplineSet
274 639 m 1x3b
 339 639 l 1
 339 595 294 545 221 545 c 0
 149 545 103 595 103 639 c 1
 169 639 l 1
 171 627 192 610 221 610 c 0
 251 610 272 627 274 639 c 1x3b
295 57 m 1
 290 57 l 1
 266 21 228 -11 172 -11 c 0
 101 -11 49 29 49 139 c 2
 49 465 l 1
 155 465 l 1
 155 168 l 2
 155 108 176 86 216 86 c 0
 257 86 288 125 288 177 c 2
 288 465 l 1
 394 465 l 1xbc80
 394 0 l 1
 306 0 l 1x7840
 295 57 l 1
EndSplineSet
EndChar

StartChar: ucircumflex
Encoding: 251 251 237
Width: 443
GlyphClass: 2
Flags: W
HStem: -11 97<168.661 244.682> 0 21G<302.14 394> 445 20G<49 155 288 394> 619 20G<166.227 277.605>
VStem: 49 106<100.973 465> 288 106<110.496 465> 306 88<0 36.2727>
LayerCount: 2
Fore
SplineSet
222 581 m 1x38
 182 520 l 1
 103 520 l 1
 179 639 l 1
 265 639 l 1
 340 520 l 1
 261 520 l 1
 222 581 l 1x38
295 57 m 1
 290 57 l 1
 266 21 228 -11 172 -11 c 0
 101 -11 49 29 49 139 c 2
 49 465 l 1
 155 465 l 1
 155 168 l 2
 155 108 176 86 216 86 c 0
 257 86 288 125 288 177 c 2
 288 465 l 1
 394 465 l 1xbc
 394 0 l 1
 306 0 l 1x7a
 295 57 l 1
EndSplineSet
EndChar

StartChar: udieresis
Encoding: 252 252 238
Width: 443
GlyphClass: 2
Flags: W
HStem: -11 97<168.661 244.682> 0 21G<302.14 394> 445 20G<49 155 288 394> 543 96<100 188 255 343>
VStem: 49 106<100.973 465> 100 88<543 639> 255 88<543 639> 288 106<110.496 465> 306 88<0 36.2727>
LayerCount: 2
Fore
SplineSet
100 543 m 1x34
 100 639 l 1
 188 639 l 1
 188 543 l 1
 100 543 l 1x34
255 543 m 1x32
 255 639 l 1
 343 639 l 1
 343 543 l 1
 255 543 l 1x32
306 0 m 1x7080
 295 57 l 1
 290 57 l 1
 266 21 228 -11 172 -11 c 0
 101 -11 49 29 49 139 c 2
 49 465 l 1
 155 465 l 1
 155 168 l 2
 155 108 176 86 216 86 c 0
 257 86 288 125 288 177 c 2
 288 465 l 1
 394 465 l 1xb9
 394 0 l 1
 306 0 l 1x7080
EndSplineSet
EndChar

StartChar: ugrave
Encoding: 249 249 239
Width: 443
GlyphClass: 2
Flags: W
HStem: -11 97<168.661 244.682> 0 21G<302.14 394> 445 20G<49 155 288 394> 619 20G<99 218.991>
VStem: 49 106<100.973 465> 288 106<110.496 465> 306 88<0 36.2727>
LayerCount: 2
Fore
SplineSet
194 522 m 1x38
 99 636 l 1
 100 639 l 1
 206 639 l 1
 282 522 l 1
 194 522 l 1x38
306 0 m 1x7a
 295 57 l 1
 290 57 l 1
 266 21 228 -11 172 -11 c 0
 101 -11 49 29 49 139 c 2
 49 465 l 1
 155 465 l 1
 155 168 l 2
 155 108 176 86 216 86 c 0
 257 86 288 125 288 177 c 2
 288 465 l 1
 394 465 l 1xbc
 394 0 l 1
 306 0 l 1x7a
EndSplineSet
EndChar

StartChar: uhungarumlaut
Encoding: 369 369 240
Width: 443
GlyphClass: 2
Flags: W
HStem: -11 97<168.661 244.682> 0 21G<302.14 394> 445 20G<49 155 288 394> 619 20G<167.598 266 291.598 390>
VStem: 49 106<100.973 465> 288 106<110.496 465> 306 88<0 36.2727>
LayerCount: 2
Fore
SplineSet
192 522 m 1x38
 122 522 l 1
 177 639 l 1
 265 639 l 1
 266 636 l 1
 192 522 l 1x38
316 522 m 1
 246 522 l 1
 301 639 l 1
 389 639 l 1
 390 636 l 1
 316 522 l 1
306 0 m 1x7a
 295 57 l 1
 290 57 l 1
 266 21 228 -11 172 -11 c 0
 101 -11 49 29 49 139 c 2
 49 465 l 1
 155 465 l 1
 155 168 l 2
 155 108 176 86 216 86 c 0
 257 86 288 125 288 177 c 2
 288 465 l 1
 394 465 l 1xbc
 394 0 l 1
 306 0 l 1x7a
EndSplineSet
EndChar

StartChar: umacron
Encoding: 363 363 241
Width: 443
GlyphClass: 2
Flags: W
HStem: -11 97<168.661 244.682> 0 21G<302.14 394> 445 20G<49 155 288 394> 530 76<109 334>
VStem: 49 106<100.973 465> 288 106<110.496 465> 306 88<0 36.2727>
LayerCount: 2
Fore
SplineSet
109 606 m 1x38
 334 606 l 1
 334 530 l 1
 109 530 l 1
 109 606 l 1x38
295 57 m 1
 290 57 l 1
 266 21 228 -11 172 -11 c 0
 101 -11 49 29 49 139 c 2
 49 465 l 1
 155 465 l 1
 155 168 l 2
 155 108 176 86 216 86 c 0
 257 86 288 125 288 177 c 2
 288 465 l 1
 394 465 l 1xbc
 394 0 l 1
 306 0 l 1x7a
 295 57 l 1
EndSplineSet
EndChar

StartChar: uogonek
Encoding: 371 371 242
Width: 443
GlyphClass: 2
Flags: W
HStem: -168 61<372.339 426.063> -156 49<372.563 427> -11 97<168.661 244.682> 445 20G<49 155 288 394>
VStem: 49 106<100.973 465> 281 87<-102.371 -20.4585> 288 106<110.496 465>
LayerCount: 2
Fore
SplineSet
427 -107 m 1x7c
 427 -156 l 1x7c
 407 -164 388 -168 369 -168 c 0
 328 -168 281 -149 281 -88 c 0xbc
 281 -47 299 -22 320 0 c 1
 306 0 l 1
 295 57 l 1
 290 57 l 1
 266 21 228 -11 172 -11 c 0
 101 -11 49 29 49 139 c 2
 49 465 l 1
 155 465 l 1
 155 168 l 2
 155 108 176 86 216 86 c 0
 257 86 288 125 288 177 c 2
 288 465 l 1
 394 465 l 1
 394 0 l 1xba
 384 -12 368 -37 368 -62 c 0
 368 -85 378 -107 408 -107 c 2xbc
 427 -107 l 1x7c
EndSplineSet
EndChar

StartChar: uring
Encoding: 367 367 243
Width: 443
GlyphClass: 2
Flags: W
HStem: -11 97<168.661 244.682> 0 21G<302.14 394> 445 20G<49 155 288 394> 496 44<185.719 257.463> 621 45<185.272 257.915>
VStem: 49 106<100.973 465> 137 44<545.221 616.18> 263 44<545.436 615.965> 288 106<110.496 465> 306 88<0 36.2727>
LayerCount: 2
Fore
SplineSet
222 666 m 0x3b
 270 666 307 627 307 581 c 0
 307 534 269 496 222 496 c 0
 176 496 137 533 137 581 c 0
 137 628 175 666 222 666 c 0x3b
222 621 m 0
 199 621 181 604 181 581 c 0
 181 558 199 540 222 540 c 0
 244 540 263 558 263 581 c 0
 263 604 244 621 222 621 c 0
295 57 m 1
 290 57 l 1
 266 21 228 -11 172 -11 c 0
 101 -11 49 29 49 139 c 2
 49 465 l 1
 155 465 l 1
 155 168 l 2
 155 108 176 86 216 86 c 0
 257 86 288 125 288 177 c 2
 288 465 l 1
 394 465 l 1xbc80
 394 0 l 1
 306 0 l 1x7840
 295 57 l 1
EndSplineSet
EndChar

StartChar: utilde
Encoding: 361 361 244
Width: 443
GlyphClass: 2
Flags: W
HStem: -11 97<168.661 244.682> 0 21G<302.14 394> 445 20G<49 155 288 394> 531 75<211.074 308.449> 564 75<135.207 232.448>
VStem: 49 106<100.973 465> 73 59<531 561.519> 288 106<110.496 465> 306 88<0 36.2727> 312 58<608.868 639>
LayerCount: 2
Fore
SplineSet
312 639 m 1x2a40
 370 639 l 1x2a40
 370 591 346 531 283 531 c 0x3240
 240 531 206 564 166 564 c 0x2a40
 148 564 135 555 132 531 c 1
 73 531 l 1x3240
 73 580 98 639 160 639 c 0x2a40
 203 639 238 606 278 606 c 0x3240
 296 606 309 614 312 639 c 1x2a40
295 57 m 1
 290 57 l 1
 266 21 228 -11 172 -11 c 0
 101 -11 49 29 49 139 c 2
 49 465 l 1
 155 465 l 1
 155 168 l 2
 155 108 176 86 216 86 c 0
 257 86 288 125 288 177 c 2
 288 465 l 1
 394 465 l 1xa5
 394 0 l 1
 306 0 l 1x6080
 295 57 l 1
EndSplineSet
EndChar

StartChar: v
Encoding: 118 118 245
Width: 403
GlyphClass: 2
Flags: W
HStem: 0 21G<141.806 261.237> 445 20G<4 121 287.1 400>
LayerCount: 2
Fore
SplineSet
148 0 m 1
 4 465 l 1
 115 465 l 1
 175 265 l 2
 189 219 194 172 204 126 c 1
 208 126 l 1
 217 172 221 219 234 265 c 2
 293 465 l 1
 400 465 l 1
 255 0 l 1
 148 0 l 1
EndSplineSet
EndChar

StartChar: w
Encoding: 119 119 246
Width: 564
GlyphClass: 2
Flags: W
HStem: 0 21G<109.14 225.036 339.856 455.817> 445 20G<1 111.607 227.938 343.041 460.751 563>
AnchorPoint: "Anchor-1" 0 0 basechar 0
AnchorPoint: "Anchor-0" 282 465 basechar 0
LayerCount: 2
Fore
SplineSet
344 0 m 1
 298 222 l 2
 288 269 285 337 285 337 c 1
 279 337 l 1
 279 337 276 271 266 223 c 2
 221 0 l 1
 114 0 l 1
 1 465 l 1
 107 465 l 1
 151 274 l 2
 165 211 170 128 170 128 c 1
 173 128 l 1
 173 128 179 207 193 273 c 2
 232 465 l 1
 339 465 l 1
 378 272 l 2
 388 227 398 128 398 128 c 1
 401 128 l 1
 401 128 414 220 424 272 c 1
 465 465 l 1
 563 465 l 1
 451 0 l 1
 344 0 l 1
EndSplineSet
EndChar

StartChar: wacute
Encoding: 7811 7811 247
Width: 564
GlyphClass: 2
Flags: W
HStem: 0 21G<109.14 225.036 339.856 455.817> 445 20G<1 111.607 227.938 343.041 460.751 563> 619 20G<284.009 405>
LayerCount: 2
Fore
SplineSet
309 522 m 1
 221 522 l 1
 297 639 l 1
 404 639 l 1
 405 636 l 1
 309 522 l 1
344 0 m 1
 298 222 l 2
 288 269 285 337 285 337 c 1
 279 337 l 1
 279 337 276 271 266 223 c 2
 221 0 l 1
 114 0 l 1
 1 465 l 1
 107 465 l 1
 151 274 l 2
 165 211 170 128 170 128 c 1
 173 128 l 1
 173 128 179 207 193 273 c 2
 232 465 l 1
 339 465 l 1
 378 272 l 2
 388 227 398 128 398 128 c 1
 401 128 l 1
 401 128 414 220 424 272 c 1
 465 465 l 1
 563 465 l 1
 451 0 l 1
 344 0 l 1
EndSplineSet
EndChar

StartChar: wcircumflex
Encoding: 373 373 248
Width: 564
GlyphClass: 2
Flags: W
HStem: 0 21G<109.14 225.036 339.856 455.817> 445 20G<1 111.607 227.938 343.041 460.751 563> 619 20G<227.227 338.605>
LayerCount: 2
Fore
SplineSet
283 581 m 1
 243 520 l 1
 164 520 l 1
 240 639 l 1
 326 639 l 1
 401 520 l 1
 322 520 l 1
 283 581 l 1
344 0 m 1
 298 222 l 2
 288 269 285 337 285 337 c 1
 279 337 l 1
 279 337 276 271 266 223 c 2
 221 0 l 1
 114 0 l 1
 1 465 l 1
 107 465 l 1
 151 274 l 2
 165 211 170 128 170 128 c 1
 173 128 l 1
 173 128 179 207 193 273 c 2
 232 465 l 1
 339 465 l 1
 378 272 l 2
 388 227 398 128 398 128 c 1
 401 128 l 1
 401 128 414 220 424 272 c 1
 465 465 l 1
 563 465 l 1
 451 0 l 1
 344 0 l 1
EndSplineSet
EndChar

StartChar: wdieresis
Encoding: 7813 7813 249
Width: 564
GlyphClass: 2
Flags: W
HStem: 0 21G<109.14 225.036 339.856 455.817> 445 20G<1 111.607 227.938 343.041 460.751 563> 543 96<161 249 316 404>
VStem: 161 88<543 639> 316 88<543 639>
LayerCount: 2
Fore
SplineSet
161 543 m 1
 161 639 l 1
 249 639 l 1
 249 543 l 1
 161 543 l 1
316 543 m 1
 316 639 l 1
 404 639 l 1
 404 543 l 1
 316 543 l 1
344 0 m 1
 298 222 l 2
 288 269 285 337 285 337 c 1
 279 337 l 1
 279 337 276 271 266 223 c 2
 221 0 l 1
 114 0 l 1
 1 465 l 1
 107 465 l 1
 151 274 l 2
 165 211 170 128 170 128 c 1
 173 128 l 1
 173 128 179 207 193 273 c 2
 232 465 l 1
 339 465 l 1
 378 272 l 2
 388 227 398 128 398 128 c 1
 401 128 l 1
 401 128 414 220 424 272 c 1
 465 465 l 1
 563 465 l 1
 451 0 l 1
 344 0 l 1
EndSplineSet
EndChar

StartChar: wgrave
Encoding: 7809 7809 250
Width: 564
GlyphClass: 2
Flags: W
HStem: 0 21G<109.14 225.036 339.856 455.817> 445 20G<1 111.607 227.938 343.041 460.751 563> 619 20G<160 279.991>
LayerCount: 2
Fore
SplineSet
255 522 m 1
 160 636 l 1
 161 639 l 1
 267 639 l 1
 343 522 l 1
 255 522 l 1
344 0 m 1
 298 222 l 2
 288 269 285 337 285 337 c 1
 279 337 l 1
 279 337 276 271 266 223 c 2
 221 0 l 1
 114 0 l 1
 1 465 l 1
 107 465 l 1
 151 274 l 2
 165 211 170 128 170 128 c 1
 173 128 l 1
 173 128 179 207 193 273 c 2
 232 465 l 1
 339 465 l 1
 378 272 l 2
 388 227 398 128 398 128 c 1
 401 128 l 1
 401 128 414 220 424 272 c 1
 465 465 l 1
 563 465 l 1
 451 0 l 1
 344 0 l 1
EndSplineSet
EndChar

StartChar: x
Encoding: 120 120 251
Width: 403
GlyphClass: 2
Flags: W
HStem: 0 21G<4 128.13 268.87 399> 445 20G<15 145.222 267.778 392>
LayerCount: 2
Fore
SplineSet
399 0 m 1
 279 0 l 1
 201 154 l 1
 196 154 l 1
 118 0 l 1
 4 0 l 1
 139 240 l 1
 15 465 l 1
 135 465 l 1
 204 330 l 1
 209 330 l 1
 278 465 l 1
 392 465 l 1
 266 243 l 1
 399 0 l 1
EndSplineSet
EndChar

StartChar: y
Encoding: 121 121 252
Width: 403
GlyphClass: 2
Flags: W
HStem: -161 89<39 131.919> 445 20G<4 122.422 287.795 400>
AnchorPoint: "Anchor-1" 0 0 basechar 0
AnchorPoint: "Anchor-0" 202 465 basechar 0
LayerCount: 2
Fore
SplineSet
400 465 m 1
 272 24 l 2
 243 -77 197 -161 108 -161 c 0
 65 -161 39 -154 39 -153 c 2
 39 -72 l 1
 87 -72 l 2
 117 -72 146 -51 158 0 c 1
 4 465 l 1
 116 465 l 1
 186 247 l 2
 198 207 202 166 210 126 c 1
 214 126 l 1
 221 165 225 207 236 246 c 2
 293 465 l 1
 400 465 l 1
EndSplineSet
EndChar

StartChar: yacute
Encoding: 253 253 253
Width: 403
GlyphClass: 2
Flags: W
HStem: -161 89<39 131.919> 445 20G<4 122.422 287.795 400> 619 20G<204.009 324>
LayerCount: 2
Fore
SplineSet
228 522 m 1
 141 522 l 1
 217 639 l 1
 323 639 l 1
 324 636 l 1
 228 522 l 1
400 465 m 1
 272 24 l 2
 243 -77 197 -161 108 -161 c 0
 65 -161 39 -154 39 -153 c 2
 39 -72 l 1
 87 -72 l 2
 117 -72 146 -51 158 0 c 1
 4 465 l 1
 116 465 l 1
 186 247 l 2
 198 207 202 166 210 126 c 1
 214 126 l 1
 221 165 225 207 236 246 c 2
 293 465 l 1
 400 465 l 1
EndSplineSet
EndChar

StartChar: ycircumflex
Encoding: 375 375 254
Width: 403
GlyphClass: 2
Flags: W
HStem: -161 89<39 131.919> 445 20G<4 122.422 287.795 400> 619 20G<146.227 258.605>
LayerCount: 2
Fore
SplineSet
202 581 m 1
 163 520 l 1
 83 520 l 1
 159 639 l 1
 246 639 l 1
 321 520 l 1
 241 520 l 1
 202 581 l 1
400 465 m 1
 272 24 l 2
 243 -77 197 -161 108 -161 c 0
 65 -161 39 -154 39 -153 c 2
 39 -72 l 1
 87 -72 l 2
 117 -72 146 -51 158 0 c 1
 4 465 l 1
 116 465 l 1
 186 247 l 2
 198 207 202 166 210 126 c 1
 214 126 l 1
 221 165 225 207 236 246 c 2
 293 465 l 1
 400 465 l 1
EndSplineSet
EndChar

StartChar: ydieresis
Encoding: 255 255 255
Width: 403
GlyphClass: 2
Flags: W
HStem: -161 89<39 131.919> 445 20G<4 122.422 287.795 400> 543 96<80 169 235 324>
VStem: 80 89<543 639> 235 89<543 639>
LayerCount: 2
Fore
SplineSet
80 543 m 1
 80 639 l 1
 169 639 l 1
 169 543 l 1
 80 543 l 1
235 543 m 1
 235 639 l 1
 324 639 l 1
 324 543 l 1
 235 543 l 1
400 465 m 1
 272 24 l 2
 243 -77 197 -161 108 -161 c 0
 65 -161 39 -154 39 -153 c 2
 39 -72 l 1
 87 -72 l 2
 117 -72 146 -51 158 0 c 1
 4 465 l 1
 116 465 l 1
 186 247 l 2
 198 207 202 166 210 126 c 1
 214 126 l 1
 221 165 225 207 236 246 c 2
 293 465 l 1
 400 465 l 1
EndSplineSet
EndChar

StartChar: ygrave
Encoding: 7923 7923 256
Width: 403
GlyphClass: 2
Flags: W
HStem: -161 89<39 131.919> 445 20G<4 122.422 287.795 400> 619 20G<80 199.991>
LayerCount: 2
Fore
SplineSet
175 522 m 1
 80 636 l 1
 80 639 l 1
 187 639 l 1
 263 522 l 1
 175 522 l 1
400 465 m 1
 272 24 l 2
 243 -77 197 -161 108 -161 c 0
 65 -161 39 -154 39 -153 c 2
 39 -72 l 1
 87 -72 l 2
 117 -72 146 -51 158 0 c 1
 4 465 l 1
 116 465 l 1
 186 247 l 2
 198 207 202 166 210 126 c 1
 214 126 l 1
 221 165 225 207 236 246 c 2
 293 465 l 1
 400 465 l 1
EndSplineSet
EndChar

StartChar: z
Encoding: 122 122 257
Width: 362
GlyphClass: 2
Flags: W
HStem: 0 89<159 347> 376 89<27 196>
VStem: 16 331<0 45>
AnchorPoint: "Anchor-1" 0 0 basechar 0
AnchorPoint: "Anchor-0" 181 465 basechar 0
LayerCount: 2
Fore
SplineSet
347 89 m 1
 347 0 l 1
 16 0 l 1
 16 45 l 1
 196 376 l 1
 27 376 l 1
 27 465 l 1
 340 465 l 1
 340 421 l 1
 159 89 l 1
 347 89 l 1
EndSplineSet
EndChar

StartChar: zacute
Encoding: 378 378 258
Width: 362
GlyphClass: 2
Flags: W
HStem: 0 89<159 347> 376 89<27 196> 619 20G<183.009 303>
VStem: 16 331<0 45>
LayerCount: 2
Fore
SplineSet
208 522 m 1
 120 522 l 1
 196 639 l 1
 302 639 l 1
 303 636 l 1
 208 522 l 1
159 89 m 1
 347 89 l 1
 347 0 l 1
 16 0 l 1
 16 45 l 1
 196 376 l 1
 27 376 l 1
 27 465 l 1
 340 465 l 1
 340 421 l 1
 159 89 l 1
EndSplineSet
EndChar

StartChar: zcaron
Encoding: 382 382 259
Width: 362
GlyphClass: 2
Flags: W
HStem: 0 89<159 347> 376 89<27 196> 619 20G<63 155.115 208.213 301>
VStem: 16 331<0 45>
LayerCount: 2
Fore
SplineSet
63 639 m 1
 142 639 l 1
 182 578 l 1
 221 639 l 1
 301 639 l 1
 225 520 l 1
 139 520 l 1
 63 639 l 1
347 89 m 1
 347 0 l 1
 16 0 l 1
 16 45 l 1
 196 376 l 1
 27 376 l 1
 27 465 l 1
 340 465 l 1
 340 421 l 1
 159 89 l 1
 347 89 l 1
EndSplineSet
EndChar

StartChar: zdotaccent
Encoding: 380 380 260
Width: 362
GlyphClass: 2
Flags: W
HStem: 0 89<159 347> 376 89<27 196> 537 102<134 229>
VStem: 134 95<537 639>
LayerCount: 2
Fore
SplineSet
134 639 m 1
 229 639 l 1
 229 537 l 1
 134 537 l 1
 134 639 l 1
347 89 m 1
 347 0 l 1
 16 0 l 1
 16 45 l 1
 196 376 l 1
 27 376 l 1
 27 465 l 1
 340 465 l 1
 340 421 l 1
 159 89 l 1
 347 89 l 1
EndSplineSet
EndChar

StartChar: fi
Encoding: 64257 64257 261
Width: 443
GlyphClass: 3
Flags: W
HStem: 0 21G<55 161 289 395> 376 89<8 55 161 241> 543 96<289 395> 557 89<163.406 240.19> 557 79<165.179 241>
VStem: 55 106<0 376 465 553.3> 289 106<0 465 543 639>
LayerCount: 2
Fore
SplineSet
164 646 m 0xd6
 189 646 224 641 241 636 c 1
 241 557 l 1xce
 198 557 l 2
 174 557 161 544 161 519 c 2
 161 465 l 1
 241 465 l 1
 241 376 l 1
 161 376 l 1
 161 0 l 1
 55 0 l 1
 55 376 l 1
 8 376 l 1
 8 465 l 1
 55 465 l 1
 55 522 l 2
 55 583 80 646 164 646 c 0xd6
289 639 m 1xe6
 395 639 l 1
 395 543 l 1
 289 543 l 1
 289 639 l 1xe6
289 465 m 1
 395 465 l 1
 395 0 l 1
 289 0 l 1
 289 465 l 1
EndSplineSet
Ligature2: "'liga' Standard Ligatures lookup 13 subtable" f i
EndChar

StartChar: fl
Encoding: 64258 64258 262
Width: 443
GlyphClass: 3
Flags: W
HStem: 0 21G<55 161 289 395> 376 89<8 55 161 241> 557 89<163.406 240.19> 557 79<165.179 241> 619 20G<289 395>
VStem: 55 106<0 376 465 553.3> 289 106<0 639>
LayerCount: 2
Fore
SplineSet
164 646 m 0xe6
 189 646 224 641 241 636 c 1
 241 557 l 1xd6
 198 557 l 2
 174 557 161 544 161 519 c 2
 161 465 l 1
 241 465 l 1
 241 376 l 1
 161 376 l 1
 161 0 l 1
 55 0 l 1
 55 376 l 1
 8 376 l 1
 8 465 l 1
 55 465 l 1
 55 522 l 2
 55 583 80 646 164 646 c 0xe6
289 639 m 1xce
 395 639 l 1
 395 0 l 1
 289 0 l 1
 289 639 l 1xce
EndSplineSet
Ligature2: "'liga' Standard Ligatures lookup 13 subtable" f l
EndChar

StartChar: ordfeminine
Encoding: 170 170 263
Width: 268
GlyphClass: 2
Flags: W
HStem: 321 63<75.9482 154.021 240 270.621> 330 55<240.832 271> 467 52<99.275 164> 587 62<103.753 162.241>
VStem: 12 77<386.055 454.449> 27 75<549 584.461> 164 76<390.563 467 519 586.443>
LayerCount: 2
Fore
SplineSet
133 649 m 0xb6
 206 649 240 615 240 556 c 2
 240 406 l 2
 240 391 248 385 257 385 c 2
 271 385 l 1
 271 330 l 1x76
 263 326 250 321 229 321 c 0
 201 321 181 338 174 362 c 1
 171 362 l 1
 153 337 133 321 91 321 c 0
 62 321 12 336 12 409 c 0xba
 12 493 75 519 164 519 c 1
 164 552 l 2
 164 571 160 587 135 587 c 0
 109 587 102 571 102 558 c 2
 102 549 l 1
 28 549 l 1
 27 552 27 556 27 561 c 0
 27 614 69 649 133 649 c 0xb6
164 449 m 2
 164 467 l 1
 126 467 89 456 89 415 c 0
 89 396 99 384 121 384 c 0xba
 152 384 164 414 164 449 c 2
EndSplineSet
EndChar

StartChar: ordmasculine
Encoding: 186 186 264
Width: 264
GlyphClass: 2
Flags: W
HStem: 320 65<100.025 170.11> 584 65<100.025 170.11>
VStem: 9 79<392.88 575.934> 181 79<395.891 572.784>
LayerCount: 2
Fore
SplineSet
134 649 m 0
 218 649 260 598 260 484 c 0
 260 371 218 320 134 320 c 0
 50 320 9 371 9 484 c 0
 9 598 50 649 134 649 c 0
134 584 m 0
 100 584 88 553 88 496 c 2
 88 473 l 2
 88 415 100 385 134 385 c 0
 169 385 181 415 181 473 c 2
 181 496 l 2
 181 553 169 584 134 584 c 0
EndSplineSet
EndChar

StartChar: nsuperior
Encoding: 8319 8319 265
Width: 287
GlyphClass: 2
Flags: W
HStem: 581 68<121.625 179.574> 622 20G<27 94.6842>
VStem: 27 76<329 572.555> 27 64<604 642> 184 76<329 576.486>
LayerCount: 2
Fore
SplineSet
177 649 m 0x98
 225 649 260 622 260 548 c 2
 260 329 l 1
 184 329 l 1
 184 529 l 2
 184 567 171 581 148 581 c 0
 122 581 103 555 103 522 c 2
 103 329 l 1
 27 329 l 1xa8
 27 642 l 1
 91 642 l 1x58
 98 604 l 1
 102 604 l 1
 117 628 141 649 177 649 c 0x98
EndSplineSet
EndChar

StartChar: Delta
Encoding: 916 916 266
Width: 521
GlyphClass: 2
Flags: W
HStem: 0 101<136 371> 586 20G<184.537 329.427>
LayerCount: 2
Fore
SplineSet
502 0 m 1
 11 0 l 1
 11 49 l 1
 191 606 l 1
 323 606 l 1
 502 49 l 1
 502 0 l 1
136 101 m 1
 371 101 l 1
 255 478 l 1
 252 478 l 1
 136 101 l 1
EndSplineSet
Position2: "'cpsp' Capital Spacing lookup 0 subtable" dx=5 dy=0 dh=10 dv=0
EndChar

StartChar: Omega
Encoding: 937 937 267
Width: 679
GlyphClass: 2
Flags: W
HStem: 0 101<87 172.781 503.219 590> 0 72<263.064 305 372 414.209> 520 97<268.487 408.859>
VStem: 87 115<182.032 442.344> 474 116<182.934 442.344>
LayerCount: 2
Fore
SplineSet
339 617 m 0xb8
 495 617 590 517 590 303 c 0
 590 204 555 133 502 88 c 1
 528 92 554 101 568 101 c 2
 590 101 l 1
 590 0 l 1xb8
 372 0 l 1
 372 72 l 1
 440 89 474 158 474 262 c 2
 474 325 l 2
 474 446 429 520 339 520 c 0
 248 520 202 446 202 325 c 2
 202 262 l 2
 202 159 238 91 305 72 c 1
 305 0 l 1x78
 87 0 l 1
 87 101 l 1
 109 101 l 2
 122 101 148 92 174 88 c 1
 121 133 87 204 87 303 c 0
 87 517 182 617 339 617 c 0xb8
EndSplineSet
Position2: "'cpsp' Capital Spacing lookup 0 subtable" dx=5 dy=0 dh=10 dv=0
EndChar

StartChar: mu
Encoding: 956 956 268
Width: 443
GlyphClass: 2
Flags: W
HStem: -153 21G<49 155> -11 97<168.521 251.27> 0 21G<302.14 394> 445 20G<49 155 288 394>
VStem: 49 106<-153 -4 97.9653 465> 288 106<110.496 465> 306 88<0 36.2727>
LayerCount: 2
Fore
SplineSet
295 57 m 1xba
 290 57 l 1
 270 21 237 -11 190 -11 c 0
 178 -11 165 -8 155 -4 c 1
 155 -153 l 1
 49 -153 l 1
 49 465 l 1
 155 465 l 1
 155 168 l 2
 155 108 176 86 216 86 c 0
 257 86 288 125 288 177 c 2
 288 465 l 1
 394 465 l 1xdc
 394 0 l 1
 306 0 l 1
 295 57 l 1xba
EndSplineSet
EndChar

StartChar: pi
Encoding: 960 960 269
Width: 555
GlyphClass: 2
Flags: W
HStem: 0 21G<67 186.5 336 445> 376 89<28.9838 124 228.678 327 433 507>
VStem: 124 106<168.923 376> 327 106<1.27377 376>
LayerCount: 2
Fore
SplineSet
433 376 m 1
 433 138 l 2
 433 65 438 27 445 0 c 1
 340 0 l 1
 332 14 327 59 327 130 c 2
 327 376 l 1
 230 376 l 1
 224 270 201 73 172 0 c 1
 67 0 l 1
 96 88 121 270 124 376 c 1
 69 376 49 372 28 364 c 1
 18 438 l 1
 41 455 83 465 159 465 c 2
 514 465 l 1
 507 376 l 1
 433 376 l 1
EndSplineSet
EndChar

StartChar: kadeva
Encoding: 2325 2325 270
Width: 616
GlyphClass: 2
Flags: W
HStem: 0 21G<260 366> 89 97<153.935 247.723 419 473.578> 114 72<204.984 247.737> 364 97<153.852 246.789 378.282 472.082> 364 72<204.984 246.875 378.263 421.712> 513 93<-10 260 366 626>
VStem: 30 110<201.4 350.355> 260 106<0 114 197.496 352.135 436 513> 486 110<199.645 348.6>
CounterMasks: 1 0380
AnchorPoint: "Anchor-3" 313 0 basechar 0
AnchorPoint: "Anchor-2" 313 606 basechar 0
LayerCount: 2
Fore
SplineSet
366 436 m 1x8f80
 371 436 l 1x8f80
 389 450 419 461 455 461 c 0
 539 461 596 403 596 274 c 0
 596 145 529 89 436 89 c 0
 431 89 425 90 419 91 c 1
 419 186 l 1
 426 186 l 2xd780
 471 186 486 214 486 264 c 2
 486 286 l 2
 486 336 471 364 426 364 c 0
 381 364 366 336 366 286 c 2
 366 0 l 1
 260 0 l 1
 260 114 l 1
 256 114 l 1xb780
 238 100 208 89 171 89 c 0
 85 89 30 147 30 276 c 0
 30 405 84 461 171 461 c 0xd780
 208 461 238 450 256 436 c 1
 260 436 l 1
 260 513 l 1
 -10 513 l 1
 -10 606 l 1
 626 606 l 1
 626 513 l 1
 366 513 l 1
 366 436 l 1x8f80
260 264 m 2
 260 284 l 2
 260 335 245 364 200 364 c 0
 156 364 140 336 140 286 c 2
 140 264 l 2
 140 214 156 186 200 186 c 0xd780
 245 186 260 214 260 264 c 2
EndSplineSet
Ligature2: "'abvs' Above Base Substitutions lookup 3 subtable" rephdeva kadeva
Ligature2: "Ligature Substitution lookup 2 subtable" kadeva reph_anusvaradeva
Ligature2: "Ligature Substitution lookup 2 subtable" kadeva reph_candraBindudeva
Ligature2: "Ligature Substitution lookup 2 subtable" kadeva rephdeva
Ligature2: "Ligature Substitution lookup 2 subtable" kadeva anusvaradeva
Ligature2: "Ligature Substitution lookup 2 subtable" kadeva candraBindudeva
EndChar

StartChar: khadeva
Encoding: 2326 2326 271
Width: 690
GlyphClass: 2
Flags: W
HStem: 0 21G<514 620> 26 88<244.444 463.09> 169 97<413.486 504.795> 194 72<461.354 509.037> 364 97<413.404 504.795> 364 72<461.354 508.593> 513 93<-10 153 259 514 620 700>
VStem: 153 106<360.523 513> 298 110<272.317 359.219> 513 107<0 71 270.774 358.973 436 513>
AnchorPoint: "Anchor-3" 567 0 basechar 0
AnchorPoint: "Anchor-2" 567 606 basechar 0
LayerCount: 2
Fore
SplineSet
700 513 m 1xc3c0
 620 513 l 1
 620 0 l 1
 514 0 l 1
 514 29 l 1
 513 29 l 1
 513 71 l 1
 475 41 412 26 342 26 c 0
 160 26 26 137 26 344 c 1
 87 344 l 2
 130 344 153 373 153 429 c 2
 153 513 l 1
 -10 513 l 1
 -10 606 l 1
 700 606 l 1
 700 513 l 1xc3c0
347 114 m 0
 449 114 499 145 513 194 c 1
 509 194 l 1xd7c0
 492 180 464 169 430 169 c 0
 349 169 298 214 298 316 c 0
 298 417 348 461 430 461 c 0xebc0
 464 461 492 450 509 436 c 1
 513 436 l 1xc7c0
 513 448 l 1
 514 448 l 1
 514 513 l 1
 259 513 l 1
 259 439 l 2
 259 333 218 273 140 261 c 1
 166 176 228 114 347 114 c 0
513 309 m 2
 513 320 l 2
 513 348 499 364 461 364 c 0
 421 364 408 349 408 321 c 2
 408 309 l 2
 408 281 421 266 461 266 c 0xebc0
 499 266 513 281 513 309 c 2
EndSplineSet
Ligature2: "'abvs' Above Base Substitutions lookup 3 subtable" rephdeva khadeva
Ligature2: "Ligature Substitution lookup 2 subtable" khadeva reph_anusvaradeva
Ligature2: "Ligature Substitution lookup 2 subtable" khadeva reph_candraBindudeva
Ligature2: "Ligature Substitution lookup 2 subtable" khadeva rephdeva
Ligature2: "Ligature Substitution lookup 2 subtable" khadeva anusvaradeva
Ligature2: "Ligature Substitution lookup 2 subtable" khadeva candraBindudeva
EndChar

StartChar: gadeva
Encoding: 2327 2327 272
Width: 560
GlyphClass: 2
Flags: W
HStem: 0 21G<384 490> 75 94<106.318 165.736> 265 94<108.24 172> 513 93<-10 172 278 384 490 570>
VStem: 0 102<171.587 260.319> 172 106<173.611 265 359 513> 384 106<0 513>
AnchorPoint: "Anchor-3" 437 0 basechar 0
AnchorPoint: "Anchor-2" 437 606 basechar 0
LayerCount: 2
Fore
SplineSet
570 513 m 1
 490 513 l 1
 490 0 l 1
 384 0 l 1
 384 513 l 1
 278 513 l 1
 278 218 l 2
 278 134 223 75 137 75 c 0
 51 75 0 129 0 218 c 0
 0 302 55 359 138 359 c 2
 172 359 l 1
 172 513 l 1
 -10 513 l 1
 -10 606 l 1
 570 606 l 1
 570 513 l 1
137 169 m 0
 160 169 172 188 172 218 c 2
 172 265 l 1
 138 265 l 2
 116 265 102 245 102 218 c 0
 102 186 114 169 137 169 c 0
EndSplineSet
Ligature2: "'abvs' Above Base Substitutions lookup 3 subtable" rephdeva gadeva
Ligature2: "Ligature Substitution lookup 2 subtable" gadeva reph_anusvaradeva
Ligature2: "Ligature Substitution lookup 2 subtable" gadeva reph_candraBindudeva
Ligature2: "Ligature Substitution lookup 2 subtable" gadeva rephdeva
Ligature2: "Ligature Substitution lookup 2 subtable" gadeva anusvaradeva
Ligature2: "Ligature Substitution lookup 2 subtable" gadeva candraBindudeva
EndChar

StartChar: ghadeva
Encoding: 2328 2328 273
Width: 511
GlyphClass: 2
Flags: W
HStem: 0 21G<336 442> 103 87<186.799 309.223> 326 87<170.092 261> 513 93<-10 61 163.322 336 442 522>
VStem: 49 111<216.364 315.994 423.006 511.187> 336 106<0 135 217.018 513>
AnchorPoint: "Anchor-3" 389 0 basechar 0
AnchorPoint: "Anchor-2" 389 606 basechar 0
LayerCount: 2
Fore
SplineSet
522 513 m 1
 442 513 l 1
 442 0 l 1
 336 0 l 1
 336 135 l 1
 311 114 277 103 232 103 c 0
 124 103 49 167 49 257 c 0
 49 317 83 358 126 374 c 1
 86 387 49 415 49 466 c 0
 49 484 53 499 61 513 c 1
 -10 513 l 1
 -10 606 l 1
 522 606 l 1
 522 513 l 1
336 320 m 1
 336 513 l 1
 193 513 l 2
 166 513 160 489 160 469 c 0
 160 432 184 413 217 413 c 2
 261 413 l 1
 261 326 l 1
 218 326 l 2
 186 326 160 309 160 270 c 0
 160 218 200 190 253 190 c 0
 310 190 335 230 335 300 c 2
 335 320 l 1
 336 320 l 1
EndSplineSet
Ligature2: "'abvs' Above Base Substitutions lookup 3 subtable" rephdeva ghadeva
Ligature2: "Ligature Substitution lookup 2 subtable" ghadeva reph_anusvaradeva
Ligature2: "Ligature Substitution lookup 2 subtable" ghadeva reph_candraBindudeva
Ligature2: "Ligature Substitution lookup 2 subtable" ghadeva rephdeva
Ligature2: "Ligature Substitution lookup 2 subtable" ghadeva anusvaradeva
Ligature2: "Ligature Substitution lookup 2 subtable" ghadeva candraBindudeva
EndChar

StartChar: ngadeva
Encoding: 2329 2329 274
Width: 504
GlyphClass: 2
Flags: W
HStem: -11 87<157.994 270.197> 274 83<403 486> 354 93<178.515 255> 513 93<-10 255 361 514>
VStem: 31 109<94.3188 148> 66 108<286.305 348.555> 255 106<447 513> 282 108<88.6766 176.729> 403 83<274 357>
AnchorPoint: "Anchor-3" 231 0 basechar 0
AnchorPoint: "Anchor-2" 308 606 basechar 0
LayerCount: 2
Fore
SplineSet
514 606 m 1xb680
 514 513 l 1
 361 513 l 1
 361 354 l 1
 225 354 l 2
 193 354 174 342 174 316 c 0xb680
 174 286 197 281 240 279 c 0
 314 276 390 251 390 142 c 0
 390 29 310 -11 211 -11 c 0
 92 -11 31 49 31 131 c 0
 31 135 31 140 33 148 c 1
 140 148 l 1
 140 141 l 2
 140 96 175 76 216 76 c 0
 260 76 282 96 282 134 c 0xb980
 282 183 247 186 216 188 c 0
 151 192 66 212 66 314 c 0
 66 412 135 447 228 447 c 2
 255 447 l 1
 255 513 l 1
 -10 513 l 1
 -10 606 l 1
 514 606 l 1xb680
403 357 m 1xd080
 486 357 l 1
 486 274 l 1
 403 274 l 1
 403 357 l 1xd080
EndSplineSet
Ligature2: "'abvs' Above Base Substitutions lookup 3 subtable" rephdeva ngadeva
Ligature2: "Ligature Substitution lookup 2 subtable" ngadeva reph_anusvaradeva
Ligature2: "Ligature Substitution lookup 2 subtable" ngadeva reph_candraBindudeva
Ligature2: "Ligature Substitution lookup 2 subtable" ngadeva rephdeva
Ligature2: "Ligature Substitution lookup 2 subtable" ngadeva anusvaradeva
Ligature2: "Ligature Substitution lookup 2 subtable" ngadeva candraBindudeva
EndChar

StartChar: cadeva
Encoding: 2330 2330 275
Width: 483
GlyphClass: 2
Flags: W
HStem: 0 21G<307 413> 72 97<201.015 294.723> 97 72<251.984 294.737> 334 94<4 97 198.205 257> 513 93<-10 307 413 493>
VStem: 77 111<180.438 323.935> 307 106<0 97 180.496 513>
AnchorPoint: "Anchor-3" 360 0 basechar 0
AnchorPoint: "Anchor-2" 360 606 basechar 0
LayerCount: 2
Fore
SplineSet
493 513 m 1xde
 413 513 l 1
 413 0 l 1
 307 0 l 1
 307 97 l 1
 303 97 l 1xbe
 285 83 255 72 218 72 c 0
 132 72 77 126 77 245 c 0
 77 282 84 311 97 334 c 1
 4 334 l 1
 4 428 l 1
 257 428 l 1
 257 334 l 1
 247 334 l 2
 202 334 188 310 188 266 c 2
 188 247 l 2
 188 197 202 169 247 169 c 0
 292 169 307 197 307 247 c 2
 307 513 l 1
 -10 513 l 1
 -10 606 l 1
 493 606 l 1
 493 513 l 1xde
EndSplineSet
Ligature2: "'abvs' Above Base Substitutions lookup 3 subtable" rephdeva cadeva
Ligature2: "Ligature Substitution lookup 2 subtable" cadeva reph_anusvaradeva
Ligature2: "Ligature Substitution lookup 2 subtable" cadeva reph_candraBindudeva
Ligature2: "Ligature Substitution lookup 2 subtable" cadeva rephdeva
Ligature2: "Ligature Substitution lookup 2 subtable" cadeva anusvaradeva
Ligature2: "Ligature Substitution lookup 2 subtable" cadeva candraBindudeva
EndChar

StartChar: chadeva
Encoding: 2331 2331 276
Width: 585
GlyphClass: 2
Flags: W
HStem: 42 87<189.081 371.056> 280 87<161.17 225> 513 93<-20 58 157.375 368 474 595>
VStem: 39 111<165.587 272.912 375.071 508.735> 286 94<320 372.447> 368 106<440.296 513> 453 101<211.239 371.427>
AnchorPoint: "Anchor-3" 308 0 basechar 0
AnchorPoint: "Anchor-2" 421 606 basechar 0
LayerCount: 2
Fore
SplineSet
474 513 m 1xf4
 474 443 l 1xf4
 524 425 554 381 554 302 c 0xf2
 554 155 448 42 276 42 c 0
 136 42 39 112 39 209 c 0
 39 267 75 312 116 328 c 1
 76 343 39 385 39 446 c 0
 39 472 45 494 58 513 c 1
 -20 513 l 1
 -20 606 l 1
 595 606 l 1
 595 513 l 1
 474 513 l 1xf4
368 513 m 1
 188 513 l 2
 157 513 150 478 150 445 c 0
 150 393 167 367 194 367 c 2
 225 367 l 1
 225 280 l 1
 195 280 l 2
 168 280 150 260 150 223 c 0
 150 164 196 129 277 129 c 0
 403 129 453 217 453 292 c 2
 453 316 l 2
 453 355 445 375 414 375 c 0
 392 375 380 364 380 342 c 2
 380 320 l 1
 290 320 l 1
 289 325 286 337 286 352 c 0xfa
 286 397 314 434 368 447 c 1
 368 513 l 1
EndSplineSet
Ligature2: "'abvs' Above Base Substitutions lookup 3 subtable" rephdeva chadeva
Ligature2: "Ligature Substitution lookup 2 subtable" chadeva reph_anusvaradeva
Ligature2: "Ligature Substitution lookup 2 subtable" chadeva reph_candraBindudeva
Ligature2: "Ligature Substitution lookup 2 subtable" chadeva rephdeva
Ligature2: "Ligature Substitution lookup 2 subtable" chadeva anusvaradeva
Ligature2: "Ligature Substitution lookup 2 subtable" chadeva candraBindudeva
EndChar

StartChar: jadeva
Encoding: 2332 2332 277
Width: 572
GlyphClass: 2
Flags: W
HStem: 0 21G<396 502> 73 90<143.09 216.754> 312 94<330 396> 513 93<-10 396 502 582>
VStem: 30 106<169.776 406> 224 106<169.776 312> 396 106<0 312 406 513>
AnchorPoint: "Anchor-3" 449 0 basechar 0
AnchorPoint: "Anchor-2" 449 606 basechar 0
LayerCount: 2
Fore
SplineSet
582 513 m 1
 502 513 l 1
 502 0 l 1
 396 0 l 1
 396 312 l 1
 330 312 l 1
 330 208 l 2
 330 120 268 73 180 73 c 0
 91 73 30 120 30 208 c 2
 30 406 l 1
 136 406 l 1
 136 211 l 2
 136 181 154 163 180 163 c 0
 206 163 224 181 224 211 c 2
 224 406 l 1
 396 406 l 1
 396 513 l 1
 -10 513 l 1
 -10 606 l 1
 582 606 l 1
 582 513 l 1
EndSplineSet
Ligature2: "'abvs' Above Base Substitutions lookup 3 subtable" rephdeva jadeva
Ligature2: "Ligature Substitution lookup 2 subtable" jadeva reph_anusvaradeva
Ligature2: "Ligature Substitution lookup 2 subtable" jadeva reph_candraBindudeva
Ligature2: "Ligature Substitution lookup 2 subtable" jadeva rephdeva
Ligature2: "Ligature Substitution lookup 2 subtable" jadeva anusvaradeva
Ligature2: "Ligature Substitution lookup 2 subtable" jadeva candraBindudeva
EndChar

StartChar: jhadeva
Encoding: 2333 2333 278
Width: 651
GlyphClass: 2
Flags: W
HStem: -11 87<155.495 267.995> 0 21G<475 581> 185 92<177.763 274.369> 196 81<372 475> 354 93<178.423 255> 513 93<-10 255 361 475 581 661>
VStem: 33 106<92.4926 148> 33 97<-80 15> 65 108<284.248 347.466> 255 106<447 513> 282 108<91.2275 175.682> 475 106<0 196 277 513>
AnchorPoint: "Anchor-3" 528 0 basechar 0
AnchorPoint: "Anchor-2" 528 606 basechar 0
LayerCount: 2
Fore
SplineSet
661 513 m 1xacd0
 581 513 l 1
 581 0 l 1
 475 0 l 1x6cd0
 475 196 l 1
 372 196 l 1
 383 180 390 158 390 128 c 0
 390 25 311 -11 236 -11 c 0
 194 -11 157 -1 130 15 c 1
 130 -80 l 1
 33 -80 l 1x9d30
 33 148 l 1
 139 148 l 1
 139 141 l 2
 139 93 180 76 212 76 c 0
 248 76 282 94 282 134 c 0x9e30
 282 180 246 183 215 185 c 0
 152 188 65 201 65 314 c 0
 65 411 135 447 228 447 c 2
 255 447 l 1
 255 513 l 1
 -10 513 l 1
 -10 606 l 1
 661 606 l 1
 661 513 l 1xacd0
475 513 m 1
 361 513 l 1
 361 354 l 1
 224 354 l 2
 200 354 173 342 173 315 c 0
 173 285 203 277 240 277 c 2x2cd0
 475 277 l 1x1cd0
 475 513 l 1
EndSplineSet
Substitution2: "'locl' Localized Forms in Devanagari2 lookup 9 subtable" jhadeva.loclNEP
Ligature2: "'abvs' Above Base Substitutions lookup 3 subtable" rephdeva jhadeva
Ligature2: "Ligature Substitution lookup 2 subtable" jhadeva reph_anusvaradeva
Ligature2: "Ligature Substitution lookup 2 subtable" jhadeva reph_candraBindudeva
Ligature2: "Ligature Substitution lookup 2 subtable" jhadeva rephdeva
Ligature2: "Ligature Substitution lookup 2 subtable" jhadeva anusvaradeva
Ligature2: "Ligature Substitution lookup 2 subtable" jhadeva candraBindudeva
Substitution2: "'aalt' Access All Alternates lookup 0 subtable" jhadeva.loclNEP
EndChar

StartChar: nyadeva
Encoding: 2334 2334 279
Width: 555
GlyphClass: 2
Flags: W
HStem: 0 21G<379 485> 88 90<151.437 217.689> 217 94<325.935 379> 345 90<154.008 218.432> 513 93<-10 379 485 565>
VStem: 43 105<182.888 224 300 340.372> 226 103<182.647 217 311 340.445> 379 106<0 217 311 513>
AnchorPoint: "Anchor-3" 432 0 basechar 0
AnchorPoint: "Anchor-2" 432 606 basechar 0
LayerCount: 2
Fore
SplineSet
565 513 m 1
 485 513 l 1
 485 0 l 1
 379 0 l 1
 379 217 l 1
 329 217 l 1
 318 129 269 88 182 88 c 0
 99 88 43 135 43 205 c 0
 43 211 44 218 46 224 c 1
 148 224 l 1
 148 219 l 2
 148 193 159 178 184 178 c 0
 215 178 226 199 226 248 c 2
 226 276 l 2
 226 325 215 345 186 345 c 0
 163 345 151 332 151 304 c 2
 151 300 l 1
 46 300 l 1
 44 308 43 314 43 318 c 0
 43 389 100 435 185 435 c 0
 266 435 315 395 328 311 c 1
 379 311 l 1
 379 513 l 1
 -10 513 l 1
 -10 606 l 1
 565 606 l 1
 565 513 l 1
EndSplineSet
Ligature2: "'abvs' Above Base Substitutions lookup 3 subtable" rephdeva nyadeva
Ligature2: "Ligature Substitution lookup 2 subtable" nyadeva reph_anusvaradeva
Ligature2: "Ligature Substitution lookup 2 subtable" nyadeva reph_candraBindudeva
Ligature2: "Ligature Substitution lookup 2 subtable" nyadeva rephdeva
Ligature2: "Ligature Substitution lookup 2 subtable" nyadeva anusvaradeva
Ligature2: "Ligature Substitution lookup 2 subtable" nyadeva candraBindudeva
EndChar

StartChar: ttadeva
Encoding: 2335 2335 280
Width: 382
GlyphClass: 2
Flags: W
HStem: 42 90<159.432 235.868> 340 94<159.668 212> 513 93<-10 212 318 392>
VStem: 30 110<150.621 321.308> 212 106<434 513> 248 102<140.198 215>
AnchorPoint: "Anchor-3" 198 0 basechar 0
AnchorPoint: "Anchor-2" 266 606 basechar 0
LayerCount: 2
Fore
SplineSet
318 340 m 1xf8
 205 340 l 2
 165 340 140 310 140 237 c 0
 140 172 158 132 198 132 c 0
 233 132 248 157 248 208 c 2
 248 215 l 1
 348 215 l 1
 349 209 350 200 350 194 c 0xf4
 349 97 292 42 196 42 c 0
 83 42 30 116 30 239 c 0
 30 372 97 434 201 434 c 2
 212 434 l 1
 212 513 l 1
 -10 513 l 1
 -10 606 l 1
 392 606 l 1
 392 513 l 1
 318 513 l 1
 318 340 l 1xf8
EndSplineSet
Ligature2: "'abvs' Above Base Substitutions lookup 3 subtable" rephdeva ttadeva
Ligature2: "Ligature Substitution lookup 2 subtable" ttadeva reph_anusvaradeva
Ligature2: "Ligature Substitution lookup 2 subtable" ttadeva reph_candraBindudeva
Ligature2: "Ligature Substitution lookup 2 subtable" ttadeva rephdeva
Ligature2: "Ligature Substitution lookup 2 subtable" ttadeva anusvaradeva
Ligature2: "Ligature Substitution lookup 2 subtable" ttadeva candraBindudeva
EndChar

StartChar: tthadeva
Encoding: 2336 2336 281
Width: 409
GlyphClass: 2
Flags: W
HStem: 42 90<160.676 247.753> 340 94<162.836 212> 513 93<-10 212 318 419>
VStem: 30 110<150.967 321.245> 212 106<434 513> 270 109<153.914 326.468>
AnchorPoint: "Anchor-3" 204 0 basechar 0
AnchorPoint: "Anchor-2" 266 606 basechar 0
LayerCount: 2
Fore
SplineSet
318 513 m 1xf8
 318 405 l 1xf8
 357 370 379 314 379 238 c 0xf4
 379 116 324 42 204 42 c 0
 84 42 30 116 30 238 c 0
 30 372 96 434 200 434 c 2
 212 434 l 1
 212 513 l 1
 -10 513 l 1
 -10 606 l 1
 419 606 l 1
 419 513 l 1
 318 513 l 1xf8
204 132 m 0
 249 132 270 171 270 237 c 0xf4
 270 289 257 321 237 340 c 1
 203 340 l 2
 165 340 140 311 140 237 c 0
 140 171 159 132 204 132 c 0
EndSplineSet
Ligature2: "'abvs' Above Base Substitutions lookup 3 subtable" rephdeva tthadeva
Ligature2: "Ligature Substitution lookup 2 subtable" tthadeva reph_anusvaradeva
Ligature2: "Ligature Substitution lookup 2 subtable" tthadeva reph_candraBindudeva
Ligature2: "Ligature Substitution lookup 2 subtable" tthadeva rephdeva
Ligature2: "Ligature Substitution lookup 2 subtable" tthadeva anusvaradeva
Ligature2: "Ligature Substitution lookup 2 subtable" tthadeva candraBindudeva
EndChar

